<svg width="25" height="25" viewBox="0 0 25 25" fill="none" xmlns="http://www.w3.org/2000/svg">
<g clip-path="url(#clip0_47_366)">
<path d="M24.625 12.2773C24.625 18.9048 19.2525 24.2773 12.625 24.2773C5.9975 24.2773 0.625 18.9048 0.625 12.2773C0.625 5.64984 5.9975 0.277344 12.625 0.277344C19.2525 0.277344 24.625 5.64984 24.625 12.2773Z" fill="#60DAA8"/>
<path d="M11.7596 20.3862C12.7499 19.4478 13.189 18.1514 13.189 18.1514L11.593 16.7964C11.593 16.7964 9.63196 13.029 9.64404 13.0385C5.26562 7.9469 8.57104 1.04364 8.6084 0.96582C3.95679 2.61816 0.625 7.05884 0.625 12.2772C0.625 18.4535 5.29218 23.5402 11.2916 24.2039C10.5099 23.02 10.6881 21.4019 11.7596 20.3862Z" fill="#09B882"/>
<path d="M11.8914 18.7275C11.5175 18.7275 11.1416 18.6079 10.8248 18.3635L5.16793 13.9999C4.40364 13.4105 4.26192 12.313 4.85152 11.5487C5.44094 10.7846 6.53847 10.6429 7.30275 11.2323L11.6793 14.6086L17.7178 7.92557C18.3649 7.20945 19.4699 7.15342 20.1862 7.8007C20.9024 8.44761 20.9584 9.55283 20.3111 10.269L13.1889 18.1515C12.8454 18.5316 12.37 18.7275 11.8914 18.7275Z" fill="#FFFCDC"/>
</g>
<defs>
<clipPath id="clip0_47_366">
<rect width="24" height="24" fill="white" transform="translate(0.625 0.277344)"/>
</clipPath>
</defs>
</svg>
