<svg width="145" height="145" viewBox="0 0 145 145" fill="none" xmlns="http://www.w3.org/2000/svg">
<path d="M118.674 58.5V115.103L101.307 120.191L89.9893 123.498L72.6226 128.587V71.984L89.9893 66.8958L101.307 63.5885L118.674 58.5Z" fill="#FCDAAF"/>
<path d="M101.307 63.5889V120.191L89.9893 123.499V66.8961L101.307 63.5889Z" fill="#E76485"/>
<path d="M26.5715 58.4976V115.1L43.9386 120.188L55.2565 123.496L72.6232 128.584V71.9812L55.2565 66.893L43.9386 63.5857L26.5715 58.4976Z" fill="#FCDAAF"/>
<path d="M43.9387 63.5854V120.188L55.2566 123.496V66.8927L43.9387 63.5854Z" fill="#E76485"/>
<path d="M131.757 45.4276L112.498 51.0703L80.5641 60.4264L72.6231 62.7486L64.4214 60.3477L33.2044 51.205L13.4888 45.4276L24.6504 42.1631L72.6231 28.1069L120.609 42.1631L131.757 45.4276Z" fill="#FCDAAF"/>
<path opacity="0.15" d="M120.609 42.1631C118.848 46.0669 116.045 49.1855 112.498 51.0703L80.5639 60.4261C77.6691 55.322 75.9087 49.6793 75.4393 43.8008C74.435 43.3297 73.5092 42.8808 72.688 42.4658C71.8013 42.9032 70.7844 43.3857 69.676 43.9019C69.1415 49.7353 67.329 55.2996 64.4212 60.3477L33.2046 51.205C29.4361 49.3766 26.4892 46.1904 24.6506 42.1631L72.6229 28.1069L120.609 42.1631Z" fill="black"/>
<path d="M131.757 45.4272V66.1695L110.972 72.2612L109.459 72.7098L96.4202 76.5129L94.9205 76.9503L72.6228 83.4905V62.7482L80.5768 60.4149L94.9205 56.208L109.459 51.9675L109.655 51.9115L131.757 45.4272Z" fill="#FCDAAF"/>
<path opacity="0.15" d="M118.796 61.0991C118.666 63.2978 117.049 65.2273 114.676 66.0353C112.642 66.7194 110.529 67.2244 108.339 67.5498C108.952 68.9408 109.708 70.3094 110.594 71.6108C110.738 71.8239 110.868 72.037 110.973 72.2613C111.977 74.2916 111.507 76.6813 109.708 78.319C108.443 79.4633 106.722 80.069 104.974 80.069C103.957 80.069 102.927 79.8559 101.975 79.4297C100.032 78.5657 98.1808 77.5897 96.4204 76.513C89.6138 72.396 84.2024 66.8317 80.5774 60.415L94.9207 56.2081L109.46 51.9676L109.655 51.9116C111.194 53.5045 113.085 54.8507 115.288 55.8379C117.557 56.8474 118.94 58.9005 118.796 61.0991Z" fill="black"/>
<path d="M72.6231 62.737V83.4793L50.3254 76.9503L48.3563 76.3781L35.7865 72.6986L33.8304 72.1265L13.4888 66.1695V45.4272L35.2516 51.7992L35.7865 51.9563L50.3254 56.208L64.4214 60.3362L72.6231 62.737Z" fill="#FCDAAF"/>
<path opacity="0.15" d="M64.4211 60.3359C60.7177 66.7527 55.2412 72.2946 48.3565 76.3779C46.5961 77.4323 44.7576 78.3859 42.8145 79.2274C41.8757 79.6313 40.8715 79.8332 39.8676 79.8332C38.1072 79.8332 36.3598 79.2163 35.0952 78.0496C33.3478 76.4455 32.8784 74.1233 33.8302 72.1263C33.9477 71.8572 34.0909 71.5989 34.2735 71.341C35.1733 70.0396 35.9425 68.6822 36.5684 67.2912C34.3907 66.9546 32.2784 66.4388 30.2443 65.7319C27.8709 64.9131 26.2801 62.9723 26.1629 60.7737C26.0588 58.5751 27.454 56.522 29.7228 55.5349C31.8741 54.6037 33.7261 53.3135 35.2514 51.7993L35.7859 51.9564L50.3252 56.2078L64.4211 60.3359Z" fill="black"/>
<path d="M109.46 51.9648V72.7065L94.925 76.9541V56.2121L109.46 51.9648Z" fill="#E76485"/>
<path d="M35.7859 51.9609V72.7026L50.3209 76.9502V56.2082L35.7859 51.9609Z" fill="#E76485"/>
<path d="M112.29 60.8123C100.563 55.584 95.4372 42.9755 100.328 32.1089L81.9577 37.8598C80.7566 52.7501 89.3781 67.4944 104.976 74.4541C102.209 70.3978 100.707 66.2093 100.219 62.2623C104.56 62.5718 108.693 62.0285 112.29 60.8123Z" fill="#8A94E2"/>
<path d="M32.6804 60.532C44.457 55.3868 49.7028 42.8146 44.9162 31.9141L63.2304 37.7946C64.2898 52.6927 55.528 67.3756 39.8637 74.2253C42.6698 70.1888 44.2109 66.0111 44.7375 62.0675C40.3938 62.3461 36.2659 61.7736 32.6804 60.532Z" fill="#8A94E2"/>
<path d="M37.6249 46.8278C26.0865 42.9857 26.1934 20.5415 37.768 16.7809C46.4084 13.9735 72.6415 27.8453 72.6415 27.8453L72.6025 36.0097C72.6028 36.0097 46.238 49.6959 37.6249 46.8278Z" fill="#8A94E2"/>
<path d="M107.477 46.9767C119.052 43.216 119.158 20.7719 107.62 16.9298C99.0069 14.0616 72.6421 27.7479 72.6421 27.7479L72.603 35.9123C72.603 35.9123 98.8365 49.7841 107.477 46.9767Z" fill="#8A94E2"/>
<path d="M82.0485 31.955C82.0863 23.8198 77.8927 17.2104 72.6818 17.1924C67.4709 17.1745 63.2159 23.7548 63.1781 31.89C63.1403 40.0252 67.3339 46.6347 72.5448 46.6526C77.7557 46.6705 82.0106 40.0902 82.0485 31.955Z" fill="#EAF9FD"/>
<path d="M132.52 44.5231C132.468 44.4895 132.403 44.456 132.351 44.4332C132.299 44.4108 132.246 44.3884 132.181 44.366L116.169 39.6769C119.319 31.5461 117.142 18.9923 108.084 15.9843C102.281 14.0548 89.9852 18.5983 81.3007 22.4346C79.3836 18.5644 76.2805 16.0851 72.6946 16.0739C72.6816 16.0739 72.6816 16.0739 72.6686 16.0739C68.6184 16.0739 65.5989 19.1946 64.0365 22.3783C55.3914 18.4857 43.1339 13.8413 37.3052 15.7261C31.5285 17.6108 27.7604 23.904 27.7209 31.7681C27.7079 34.6512 28.1903 37.3324 29.1161 39.6657L13.2731 44.31C13.0775 44.3436 12.8948 44.4112 12.7252 44.5119C12.4775 44.6691 12.2949 44.9046 12.2168 45.1625C12.1908 45.2409 12.1777 45.3308 12.1777 45.4204V66.1627C12.1777 66.6452 12.53 67.0715 13.0645 67.2286L25.2694 70.807V115.096C25.2694 115.579 25.6217 116.005 26.1562 116.162C41.5569 120.67 56.639 125.09 72.0292 129.59C72.2962 129.635 72.4524 129.852 73.2157 129.59C95.371 123.105 81.5764 127.149 119.089 116.162C119.623 116.005 119.975 115.579 119.975 115.108V70.807L132.18 67.2286C132.715 67.0827 133.067 66.6564 133.067 66.1742V45.4319C133.067 45.342 133.054 45.2636 133.028 45.174C132.964 44.9158 132.781 44.6803 132.52 44.5231ZM127.709 45.4319C125.255 46.15 136.595 42.8308 103.716 52.4544C102.789 51.1934 102.006 49.7756 101.375 48.2712C103.912 48.6567 106.209 48.6907 107.941 48.1243C111.018 47.1259 113.535 44.8598 115.204 41.7748L127.709 45.4319ZM73.9336 81.9244V63.549L86.1646 59.9706L86.1934 59.9621C88.155 63.1058 90.6112 66.0151 93.6232 68.6277V76.1585C67.5202 83.8027 101.008 73.9969 73.9336 81.9244ZM51.6228 76.147V68.1648C54.4309 65.7076 56.8374 62.9222 58.7903 59.8756L58.8077 59.8807L71.3125 63.549V81.9132C44.0542 73.9317 78.551 84.0331 51.6228 76.147ZM39.6265 54.2716C38.7485 55.2062 37.8945 55.9554 37.0839 56.5822V53.5311C37.3573 53.6109 39.7788 54.316 39.6265 54.2716ZM46.6824 47.5209C47.0512 47.4083 52.0733 46.4917 61.9298 42.2882C61.1771 53.8966 54.8439 63.7777 45.2466 70.0109C44.5425 70.4707 43.8254 70.9085 43.0819 71.3235C44.6549 68.2884 45.5874 65.1833 45.8982 62.9772H45.9113C46.4674 59.3119 43.7584 62.1716 35.8185 60.2512C41.4583 56.7865 44.8399 52.6709 46.6824 47.5209ZM98.4252 47.7039C100.485 53.4823 103.927 57.2372 109.153 60.5088C101.694 62.3057 98.4086 59.5468 99.0216 63.0665C99.0086 63.0777 99.0216 63.0777 99.0216 63.0777C99.3809 65.6659 100.307 68.6576 101.773 71.5251C90.2511 64.8443 83.7577 53.9848 83.2153 42.3561C87.1519 44.0613 93.0449 46.4432 98.4252 47.7039ZM80.5196 42.6924C80.7922 46.6498 81.9389 52.2413 85.0132 57.9298L84.9777 57.9399L72.6421 61.5523L60.0198 57.8616L59.9958 57.8544C62.5936 53.1755 64.1584 47.9692 64.511 42.4643C66.1062 45.2276 68.943 47.7765 72.551 47.7765H72.5771C76.0872 47.7765 79.0105 45.3206 80.5196 42.6924ZM37.0835 62.8072C39.7488 63.2107 39.1599 63.1228 43.2251 63.2575C43.147 63.6613 43.0555 64.0652 42.9513 64.469C42.9643 64.4802 42.9513 64.4802 42.9513 64.4802C42.3758 66.9561 41.1791 69.8816 39.4435 72.5797L37.0835 71.8956V62.8072ZM49.0148 70.2651V75.3841C48.8779 75.3441 43.3335 73.724 43.4704 73.7641C45.4391 72.724 47.2839 71.5481 49.0148 70.2651ZM96.2313 70.713C97.8599 71.916 99.5249 72.9639 101.284 73.9127C97.7239 74.9494 96.0344 75.4415 96.2313 75.3841V70.713ZM105.359 72.7141C103.425 69.6084 102.21 66.24 101.721 63.4591C103.729 63.5378 106.03 63.3627 108.163 63.0129V71.8949L105.359 72.7141ZM108.163 57.0084C107.292 56.3467 106.404 55.5934 105.28 54.3731C106.813 53.9197 108.107 53.5478 108.163 53.5315V57.0084ZM107.145 18.071C115.262 20.7868 116.752 33.7125 112.713 41.0343C109.759 46.2956 106.009 46.958 100.512 45.8486C100.509 45.8357 100.503 45.8232 100.5 45.8103C100.437 45.812 100.399 45.814 100.341 45.8157C92.314 44.1539 83.0201 39.5704 82.0919 39.4075C83.8243 34.4818 83.7159 28.9729 82.2008 24.5885C91.0285 20.6958 102.477 16.5229 107.145 18.071ZM72.6686 18.3177H72.6816C81.6616 18.3577 83.7372 39.2955 75.4068 44.6467C74.4941 45.23 73.5423 45.533 72.5775 45.533C72.5644 45.533 72.5644 45.533 72.5514 45.533C66.2848 45.533 63.889 35.1602 64.6625 29.2555C65.1875 24.9645 67.8342 18.3177 72.6686 18.3177ZM40.6044 17.51C46.1073 17.51 55.5866 21.1224 63.1237 24.5101C62.5108 26.2153 62.1195 28.0885 61.9763 30.0408C61.7061 32.552 61.9921 36.2285 63.0456 39.2734C59.4136 40.9559 52.4106 43.7019 47.4244 45.006C40.4951 46.9135 35.8469 46.7472 32.5983 41.0122C31.321 38.8516 30.3093 35.4775 30.3294 31.7796C30.3578 25.5624 33.541 17.51 40.6044 17.51ZM30.0947 41.7412C33.4834 47.8983 38.4061 48.859 43.7244 48.0805C43.0917 49.5709 42.2863 50.9887 41.2477 52.3658C40.2521 52.075 36.058 50.8506 36.2106 50.8951H36.1976L17.5249 45.4207L30.0947 41.7412ZM14.7862 65.3662V46.9912L34.4758 52.7574V58.3112C32.0476 59.6791 30.656 59.938 31.594 61.1485C31.8748 61.5221 33.1753 61.9368 34.4758 62.2626V71.1328C16.8922 65.99 22.9375 67.7535 14.7862 65.3662ZM27.8779 71.5698C31.867 72.7409 34.7082 73.5778 38.7008 74.7444H38.7138C38.9074 75.1887 39.7157 75.5362 40.4091 75.2382H40.4221L42.6389 75.8887V118.618L27.8783 114.3L27.8779 71.5698ZM45.2466 76.6519L53.9572 79.2096V121.928L45.2466 119.382V76.6519ZM56.5649 79.9724L71.3125 84.2913V127.021L56.5649 122.702V79.9724ZM73.9336 84.2913L88.6812 79.9724V122.702L73.9336 127.021V84.2913ZM91.2892 121.928V79.2096C91.7701 79.0691 100.561 76.4989 99.9998 76.6631V119.382C99.8677 119.42 90.7074 122.098 91.2892 121.928ZM117.369 114.3L102.608 118.619V75.9003L104.277 75.4065H104.29C104.638 75.7048 105.799 75.6885 106.207 74.8456C106.337 74.8072 109.936 73.8136 110.067 73.7013L117.369 71.5698V114.3ZM130.46 65.3662C130.328 65.4049 110.625 71.1748 110.771 71.1324V62.4716C112.245 62.082 113.515 61.552 113.587 60.8678C113.643 59.9227 112.766 59.863 110.771 58.7371V52.7683L130.46 47.0021V65.3662Z" fill="black"/>
</svg>
