<svg id="Layer_1" enable-background="new 0 0 256 256" viewBox="0 0 256 256" xmlns="http://www.w3.org/2000/svg"><g/><path d="m239.26 66.47v140.61c0 2.2-1.8 4-4 4h-200.96v-148.61h200.96c2.2 0 4 1.8 4 4z" fill="#fedab4"/><path d="m34.298 44.916c-9.694 0-17.553 7.859-17.553 17.553v131.062h35.106v-131.062c0-9.695-7.859-17.553-17.553-17.553z" fill="#fedab4"/><ellipse cx="34.298" cy="193.531" fill="#fece9a" rx="17.553" ry="17.553" transform="matrix(.023 -1 1 .023 -159.962 223.425)"/><g><g><path d="m180.566 111.535c-2.2 0-3.1-1.559-2-3.464l11.182-19.367c1.1-1.905 2.9-1.906 4 0l11.184 19.368c1.1 1.905.2 3.464-2 3.464h-22.366z" fill="#4caf4e"/></g><g><path d="m201.408 111.535c-2.2 0-3.1-1.559-2-3.464l7.334-12.701c1.1-1.905 2.9-1.905 4 0l7.334 12.701c1.1 1.905.2 3.464-2 3.464z" fill="#4caf4e"/></g></g><g><g><path d="m143.086 177.344c-3.439 0-5.303-1.817-6.416-2.904-.227-.221-.568-.554-.699-.626-.002 0-.044-.005-.133-.005-.104 0-.147.011-.148.011-.102.056-.448.395-.679.619-1.113 1.087-2.975 2.905-6.415 2.905-3.439 0-5.303-1.818-6.416-2.905-.227-.221-.567-.553-.698-.625-.005.001-.048-.005-.131-.005-2.209 0-4-1.791-4-4s1.791-4 4-4c3.439 0 5.303 1.818 6.416 2.905.227.221.567.553.698.625.004-.002.048.005.131.005.105 0 .148-.011.148-.011.102-.056.449-.394.679-.619 1.113-1.087 2.975-2.905 6.415-2.905s5.305 1.818 6.418 2.904c.227.222.567.554.698.626.01 0 .052.005.132.005.105 0 .15-.011.15-.011.102-.056.45-.395.681-.62 1.113-1.086 2.978-2.904 6.418-2.904 2.209 0 4 1.791 4 4s-1.791 4-4 4c-.107 0-.15.011-.15.011-.104.057-.451.395-.682.62-1.114 1.086-2.978 2.904-6.417 2.904z" fill="#488fcc"/></g><g><path d="m143.086 192.314c-3.439 0-5.304-1.819-6.417-2.905-.227-.222-.567-.555-.699-.627-.001-.001-.05-.005-.132-.005-.104 0-.147.011-.147.011-.102.056-.449.395-.679.619-1.113 1.088-2.977 2.907-6.417 2.907s-5.304-1.819-6.417-2.906c-.226-.222-.566-.553-.698-.626 0-.003-.045-.005-.13-.005-2.209 0-4-1.791-4-4s1.791-4 4-4c3.44 0 5.304 1.819 6.417 2.906.226.222.566.553.698.626 0-.003.044.005.13.005.104 0 .147-.011.147-.011.102-.056.45-.395.679-.619 1.113-1.088 2.977-2.907 6.416-2.907 3.441 0 5.306 1.819 6.419 2.906.227.221.566.554.698.626.001 0 .046.005.131.005.105 0 .148-.011.148-.011.103-.056.45-.395.681-.62 1.113-1.087 2.978-2.906 6.419-2.906 2.209 0 4 1.791 4 4s-1.791 4-4 4c-.105 0-.149.011-.15.011-.102.057-.45.395-.681.621-1.112 1.086-2.977 2.905-6.416 2.905z" fill="#488fcc"/></g></g><g><g><path d="m202.696 142.726c-.526 0-1.061-.105-1.575-.325-2.03-.871-2.97-3.224-2.099-5.253.41-.956.618-2.068.618-3.306 0-2.209 1.791-4 4-4s4 1.791 4 4c0 2.328-.426 4.502-1.267 6.46-.649 1.516-2.126 2.424-3.677 2.424z" fill="#b25c27"/></g><g><path d="m75.323 159.094c-.131 0-.263-.006-.396-.02-2.199-.216-3.806-2.173-3.59-4.371.511-5.201 3.379-9.501 7.87-11.798 1.968-1.007 4.377-.226 5.383 1.74 1.006 1.967.227 4.377-1.74 5.383-1.448.74-3.24 2.288-3.551 5.456-.202 2.066-1.943 3.61-3.976 3.61zm113.701-9.932h-10.82c-2.209 0-4-1.791-4-4s1.791-4 4-4h10.82c2.209 0 4 1.791 4 4s-1.791 4-4 4zm-27.049 0h-10.82c-2.209 0-4-1.791-4-4s1.791-4 4-4h10.82c2.209 0 4 1.791 4 4s-1.791 4-4 4zm-27.05 0h-10.82c-2.209 0-4-1.791-4-4s1.791-4 4-4h10.82c2.209 0 4 1.791 4 4s-1.791 4-4 4zm-27.051 0h-10.82c-2.209 0-4-1.791-4-4s1.791-4 4-4h10.82c2.209 0 4 1.791 4 4s-1.791 4-4 4z" fill="#b25c27"/></g><g><path d="m75.252 180.328c-2.209 0-4-1.791-4-4v-5c0-2.209 1.791-4 4-4s4 1.791 4 4v5c0 2.209-1.791 4-4 4z" fill="#b25c27"/></g></g></svg>