<svg height="512" viewBox="0 0 64 64" width="512" xmlns="http://www.w3.org/2000/svg"><g id="Rest_Menu" data-name="Rest Menu"><path d="m43.615.212a.993.993 0 0 0 -.857-.182l-32 8a1 1 0 0 0 .242 1.97h32a1 1 0 0 0 1-1v-8a1 1 0 0 0 -.385-.788z" fill="#e0d9b6"/><rect fill="#f2eed6" height="56" rx="1" width="44" x="10" y="8"/><path d="m49 17a4 4 0 0 1 -4-4 1 1 0 0 0 -1-1h-24a1 1 0 0 0 -1 1 4 4 0 0 1 -4 4 1 1 0 0 0 -1 1v36a1 1 0 0 0 1 1 4 4 0 0 1 4 4 1 1 0 0 0 1 1h24a1 1 0 0 0 1-1 4 4 0 0 1 4-4 1 1 0 0 0 1-1v-36a1 1 0 0 0 -1-1z" fill="#e0d9b6"/><g fill="#e89931"><path d="m22 30a1 1 0 0 1 -1-1v-6a1 1 0 0 1 2 0v6a1 1 0 0 1 -1 1z"/><path d="m26 30a1 1 0 0 1 -1-1v-6a1 1 0 0 1 2 0v6a1 1 0 0 1 -1 1z"/><path d="m30 30a1 1 0 0 1 -1-1v-6a1 1 0 0 1 2 0v6a1 1 0 0 1 -1 1z"/><path d="m28.565 33.995a1 1 0 0 0 -.926-.108 1.758 1.758 0 0 1 -.639.113h-2a1.758 1.758 0 0 1 -.639-.113 1 1 0 0 0 -1.361.933v12.18a3 3 0 0 0 6 0v-12.18a1 1 0 0 0 -.435-.825z"/><path d="m39 38h-4a1 1 0 0 0 -1 1v8a3 3 0 0 0 6 0v-8a1 1 0 0 0 -1-1z"/></g><path d="m31 28h-10v4a4 4 0 0 0 4 4h2a4 4 0 0 0 4-4z" fill="#ffb74d"/><path d="m35.352 22.063a1 1 0 0 0 -1.352.937v17h9a1 1 0 0 0 1-1v-4.456a13.393 13.393 0 0 0 -8.648-12.481z" fill="#ffb74d"/></g></svg>