<svg width="315" height="316" viewBox="0 0 315 316" fill="none" xmlns="http://www.w3.org/2000/svg">
<path d="M94.9096 108.763C94.1591 109.733 93.3459 110.457 92.47 110.935C91.5842 111.405 90.6853 111.667 89.7731 111.721C88.8687 111.765 87.9967 111.644 87.1573 111.358C86.3178 111.073 85.5665 110.674 84.9032 110.161L84.5765 109.908C83.8934 109.379 83.3132 108.749 82.836 108.015C82.3587 107.282 82.0289 106.481 81.8466 105.612C81.672 104.733 81.6905 103.83 81.9021 102.902C82.1214 101.964 82.5796 101.044 83.2765 100.143C84.0347 99.1632 84.888 98.4386 85.8363 97.9696C86.7748 97.4929 87.7419 97.2758 88.7377 97.3182C89.7236 97.3529 90.6641 97.6611 91.5592 98.2428L89.6752 100.678C89.2333 100.431 88.7642 100.322 88.2681 100.349C87.7796 100.367 87.2981 100.509 86.8234 100.775C86.3564 101.03 85.9315 101.406 85.5485 101.901C85.1809 102.376 84.9358 102.867 84.813 103.373C84.698 103.87 84.6905 104.37 84.7906 104.875C84.8984 105.37 85.1115 105.851 85.43 106.319C85.7462 106.77 86.1568 107.19 86.6617 107.581C87.1864 107.987 87.7201 108.289 88.263 108.487C88.8035 108.668 89.3394 108.742 89.8707 108.71C90.392 108.67 90.8938 108.513 91.3761 108.237C91.8661 107.951 92.3064 107.556 92.697 107.051C93.2178 106.378 93.531 105.687 93.6368 104.977C93.7425 104.268 93.6519 103.628 93.365 103.058L94.7984 104.642L92.2145 102.643L93.9492 100.4L96.2658 102.192C96.6583 103.24 96.7396 104.331 96.5098 105.467C96.2778 106.585 95.7444 107.684 94.9096 108.763ZM90.4955 105.847L88.7432 104.491L93.3614 98.5214L95.1137 99.8769L90.4955 105.847Z" fill="#F5F3E7"/>
<path d="M104.472 97.6457L99.9223 83.9484L103.914 80.9788L115.861 89.174L113.3 91.079L103.343 84.0482L104.361 83.7818L102.418 85.2274L102.996 84.3059L106.943 95.8079L104.472 97.6457ZM105.201 92.8684L104.43 90.2595L108.738 87.0545L111.03 88.5317L105.201 92.8684Z" fill="#F5F3E7"/>
<path d="M122.491 85.6401L117.342 72.8169L120.2 71.6696L125.349 84.4928L122.491 85.6401ZM130.209 82.541L124.284 78.5673L127.42 77.3081L133.52 81.2118L130.209 82.541ZM122.945 80.7237L122.042 78.4761L125.179 77.2169C125.597 77.049 125.924 76.8231 126.161 76.5392C126.405 76.2391 126.547 75.9054 126.588 75.5381C126.637 75.1545 126.579 74.7595 126.416 74.3529C126.253 73.9464 126.023 73.6271 125.728 73.3951C125.439 73.1468 125.106 73.0043 124.727 72.9676C124.355 72.9146 123.96 72.9721 123.542 73.14L120.405 74.3992L119.433 71.9774L122.343 70.8091C123.4 70.3847 124.383 70.1789 125.291 70.1916C126.196 70.1928 126.983 70.423 127.653 70.8823C128.323 71.3417 128.849 72.0475 129.231 73L129.343 73.2788C129.721 74.2196 129.821 75.0899 129.643 75.8897C129.472 76.6732 129.06 77.378 128.408 78.0041C127.763 78.6139 126.912 79.131 125.855 79.5554L122.945 80.7237Z" fill="#F5F3E7"/>
<path d="M141.508 79.0051L144.258 64.8362L149.193 64.2051L155.587 77.2046L152.421 77.6095L147.19 66.6001L148.208 66.8673L145.806 67.1746L146.762 66.6549L144.562 78.6145L141.508 79.0051ZM144.485 75.1985L145.092 72.5467L150.419 71.8655L151.692 74.2768L144.485 75.1985Z" fill="#F5F3E7"/>
<path d="M164.194 77.4372L166.237 63.8848L171.231 64.6377L174.665 76.4907L175.296 76.5859L174.875 76.8641L176.596 65.4466L179.455 65.8776L177.412 79.4301L172.381 78.6716L168.946 66.8185L168.315 66.7234L168.737 66.4452L167.015 77.8627L164.194 77.4372Z" fill="#F5F3E7"/>
<path d="M188.536 83.2644L193.057 72.8034L195.883 74.025L191.362 84.486L188.536 83.2644ZM189.375 71.621L190.44 69.1566L200.35 73.4397L199.285 75.9041L189.375 71.621Z" fill="#F5F3E7"/>
<path d="M203.96 91.4931L211.794 80.2472L214.32 82.0072L206.486 93.2531L203.96 91.4931Z" fill="#F5F3E7"/>
<path d="M213.383 98.5588L226.527 92.5967L229.899 96.255L223.003 108.995L220.84 106.648L226.787 96.0087L227.159 96.9938L225.517 95.2129L226.494 95.6912L215.47 100.823L213.383 98.5588ZM218.21 98.7819L220.724 97.7416L224.363 101.69L223.135 104.124L218.21 98.7819Z" fill="#F5F3E7"/>
<path d="M233.107 127.029L245.807 121.876L246.964 124.729L234.264 129.882L233.107 127.029Z" fill="#F5F3E7"/>
<path d="M237.433 139.38L250.964 137.197L251.768 142.183L241.525 149.066L241.627 149.696L241.234 149.379L252.633 147.539L253.093 150.394L239.563 152.577L238.752 147.554L248.995 140.672L248.893 140.041L249.287 140.358L237.888 142.198L237.433 139.38Z" fill="#F5F3E7"/>
<path d="M238.47 169.029C238.613 167.798 238.948 166.766 239.473 165.932C240.011 165.1 240.661 164.445 241.422 163.967C242.196 163.49 243.003 163.162 243.843 162.982C244.694 162.817 245.505 162.779 246.276 162.869L246.686 162.917C247.531 163.015 248.348 163.249 249.137 163.618C249.938 163.989 250.642 164.493 251.248 165.13C251.853 165.78 252.304 166.558 252.602 167.462C252.911 168.38 252.996 169.429 252.859 170.611C252.715 171.841 252.359 172.902 251.788 173.794C251.218 174.685 250.49 175.363 249.605 175.826C248.73 176.304 247.74 176.529 246.634 176.501L246.993 173.424C247.55 173.401 248.039 173.256 248.461 172.99C248.882 172.724 249.228 172.355 249.497 171.882C249.765 171.422 249.934 170.887 250.005 170.278C250.076 169.669 250.034 169.116 249.877 168.619C249.721 168.122 249.469 167.689 249.121 167.321C248.772 166.965 248.34 166.669 247.826 166.433C247.323 166.21 246.748 166.062 246.101 165.986C245.467 165.912 244.874 165.925 244.32 166.024C243.778 166.138 243.289 166.333 242.853 166.61C242.429 166.9 242.083 167.276 241.815 167.736C241.559 168.198 241.395 168.739 241.323 169.361C241.213 170.306 241.35 171.128 241.735 171.828C242.118 172.541 242.706 173.013 243.498 173.244L243.142 176.302C242.16 176.074 241.285 175.632 240.518 174.976C239.761 174.333 239.189 173.504 238.804 172.489C238.429 171.487 238.318 170.334 238.47 169.029Z" fill="#F5F3E7"/>
<path d="M233.287 188.716C233.757 187.569 234.364 186.648 235.109 185.952C235.861 185.273 236.675 184.788 237.551 184.498C238.439 184.212 239.322 184.087 240.2 184.122C241.074 184.169 241.864 184.337 242.57 184.626L242.953 184.783C243.74 185.105 244.459 185.562 245.11 186.153C245.767 186.761 246.293 187.476 246.686 188.3C247.079 189.124 247.287 190.034 247.312 191.032C247.347 192.034 247.138 193.091 246.682 194.203C246.227 195.315 245.635 196.215 244.906 196.904C244.189 197.598 243.402 198.1 242.544 198.412C241.686 198.723 240.81 198.865 239.915 198.836C239.032 198.813 238.197 198.64 237.409 198.317L237.027 198.16C236.32 197.871 235.642 197.431 234.991 196.84C234.34 196.249 233.799 195.54 233.366 194.713C232.946 193.892 232.708 192.969 232.654 191.946C232.606 190.939 232.817 189.863 233.287 188.716ZM235.945 189.805C235.698 190.407 235.582 190.988 235.596 191.549C235.605 192.121 235.726 192.65 235.959 193.138C236.188 193.637 236.51 194.073 236.925 194.446C237.34 194.819 237.826 195.12 238.382 195.348C238.973 195.589 239.549 195.717 240.111 195.731C240.681 195.762 241.216 195.677 241.717 195.476C242.226 195.292 242.675 195.003 243.067 194.609C243.458 194.214 243.777 193.716 244.024 193.114C244.271 192.512 244.393 191.933 244.39 191.377C244.388 190.822 244.273 190.294 244.044 189.795C243.823 189.312 243.499 188.882 243.072 188.504C242.657 188.131 242.154 187.823 241.563 187.581C241.007 187.354 240.45 187.227 239.892 187.202C239.335 187.176 238.802 187.255 238.294 187.439C237.781 187.635 237.323 187.928 236.92 188.317C236.517 188.707 236.192 189.202 235.945 189.805Z" fill="#F5F3E7"/>
<path d="M225.975 203.838L236.718 212.348L233.582 216.307L221.59 213.394L221.194 213.894L221.162 213.39L230.213 220.56L228.418 222.826L217.674 214.316L220.834 210.328L232.826 213.241L233.222 212.74L233.254 213.244L224.203 206.075L225.975 203.838Z" fill="#F5F3E7"/>
<path d="M207.952 222.721L209.623 225.057L207.547 226.543C207.027 226.914 206.614 227.326 206.306 227.777C206.005 228.238 205.809 228.717 205.717 229.214C205.633 229.72 205.661 230.231 205.799 230.748C205.945 231.274 206.196 231.787 206.553 232.286C206.925 232.805 207.332 233.214 207.776 233.512C208.22 233.81 208.692 233.996 209.191 234.069C209.69 234.143 210.199 234.102 210.719 233.946C211.245 233.8 211.768 233.542 212.287 233.17L214.364 231.685L216.035 234.021L214.096 235.408C213.088 236.129 212.102 236.611 211.138 236.855C210.173 237.099 209.254 237.148 208.381 237.003C207.508 236.858 206.713 236.542 205.995 236.056C205.274 235.586 204.656 234.99 204.139 234.267L203.898 233.931C203.418 233.259 203.068 232.502 202.849 231.658C202.627 230.831 202.582 229.972 202.712 229.078C202.849 228.195 203.182 227.326 203.71 226.471C204.237 225.617 205.005 224.829 206.013 224.108L207.952 222.721ZM210.151 221.148L218.234 232.448L215.73 234.239L207.647 222.94L210.151 221.148Z" fill="#F5F3E7"/>
<path d="M191.796 232.444L197.225 245.028L194.398 246.248L188.968 233.664L191.796 232.444Z" fill="#F5F3E7"/>
<path d="M173.008 237.934C174.224 237.697 175.309 237.702 176.263 237.95C177.219 238.209 178.04 238.629 178.727 239.209C179.417 239.802 179.975 240.471 180.401 241.216C180.817 241.977 181.099 242.738 181.248 243.5L181.327 243.905C181.49 244.74 181.516 245.59 181.404 246.453C181.294 247.329 181.028 248.153 180.604 248.924C180.169 249.698 179.565 250.364 178.794 250.922C178.014 251.496 177.04 251.896 175.873 252.124C174.656 252.361 173.537 252.344 172.515 252.071C171.492 251.799 170.626 251.311 169.915 250.609C169.194 249.92 168.679 249.045 168.369 247.983L171.41 247.39C171.601 247.914 171.888 248.336 172.269 248.657C172.651 248.978 173.108 249.195 173.64 249.308C174.16 249.423 174.72 249.422 175.322 249.304C175.924 249.187 176.438 248.978 176.864 248.678C177.29 248.378 177.626 248.007 177.871 247.564C178.104 247.123 178.255 246.622 178.324 246.06C178.383 245.513 178.35 244.92 178.225 244.281C178.103 243.654 177.91 243.093 177.648 242.595C177.375 242.113 177.04 241.706 176.644 241.376C176.238 241.06 175.775 240.844 175.256 240.729C174.738 240.626 174.172 240.634 173.558 240.754C172.624 240.936 171.882 241.317 171.332 241.896C170.77 242.478 170.499 243.181 170.52 244.006L167.498 244.595C167.417 243.591 167.572 242.623 167.964 241.692C168.346 240.776 168.963 239.98 169.813 239.304C170.653 238.643 171.718 238.186 173.008 237.934Z" fill="#F5F3E7"/>
<path d="M157.777 239.636L157.459 253.338L154.38 253.266L154.698 239.565L157.777 239.636Z" fill="#F5F3E7"/>
<path d="M139.09 236.93C140.292 237.233 141.289 237.705 142.083 238.344C142.861 238.993 143.456 239.731 143.867 240.558C144.274 241.396 144.523 242.253 144.611 243.128C144.688 243.999 144.633 244.805 144.446 245.545L144.344 245.946C144.136 246.771 143.785 247.547 143.291 248.274C142.782 249.011 142.148 249.631 141.387 250.136C140.627 250.641 139.755 250.976 138.771 251.14C137.784 251.317 136.708 251.258 135.543 250.964C134.378 250.669 133.403 250.21 132.619 249.585C131.831 248.973 131.223 248.264 130.794 247.459C130.365 246.653 130.101 245.805 130.003 244.916C129.902 244.038 129.956 243.187 130.165 242.361L130.266 241.961C130.453 241.221 130.794 240.487 131.287 239.76C131.781 239.032 132.406 238.397 133.164 237.852C133.918 237.32 134.798 236.955 135.803 236.757C136.793 236.568 137.889 236.626 139.09 236.93ZM138.386 239.715C137.755 239.555 137.163 239.522 136.611 239.614C136.046 239.704 135.538 239.898 135.088 240.198C134.626 240.494 134.24 240.874 133.929 241.338C133.618 241.801 133.389 242.324 133.242 242.907C133.085 243.526 133.04 244.114 133.105 244.673C133.155 245.241 133.315 245.759 133.584 246.227C133.837 246.705 134.187 247.109 134.632 247.441C135.078 247.773 135.616 248.019 136.247 248.179C136.878 248.338 137.468 248.378 138.018 248.297C138.568 248.217 139.074 248.028 139.536 247.732C139.983 247.445 140.363 247.063 140.677 246.587C140.988 246.124 141.222 245.582 141.378 244.963C141.525 244.381 141.572 243.812 141.519 243.256C141.466 242.701 141.312 242.184 141.059 241.707C140.793 241.227 140.439 240.814 139.996 240.47C139.554 240.126 139.017 239.874 138.386 239.715Z" fill="#F5F3E7"/>
<path d="M123.105 231.817L116.161 243.633L111.807 241.074L113.035 228.795L112.484 228.471L112.979 228.37L107.129 238.325L104.636 236.86L111.581 225.044L115.967 227.622L114.739 239.901L115.29 240.224L114.795 240.326L120.645 230.371L123.105 231.817Z" fill="#F5F3E7"/>
<path d="M104.677 219.659L91.6483 225.869L88.2076 222.275L94.8619 209.406L97.0691 211.712L91.3241 222.462L90.9338 221.484L92.6086 223.234L91.6227 222.774L102.548 217.435L104.677 219.659ZM99.8468 219.527L97.3532 220.615L93.6399 216.736L94.8222 214.279L99.8468 219.527Z" fill="#F5F3E7"/>
<path d="M90.1366 202.412L78.2745 209.277L76.7321 206.612L88.5943 199.747L90.1366 202.412ZM88.7823 200.072L86.4424 201.426L83.5646 196.454L85.9045 195.1L88.7823 200.072Z" fill="#F5F3E7"/>
<path d="M77.8079 151.81L68.4087 150.893L68.6674 148.24L78.0666 149.156L77.8079 151.81ZM74.0097 154.778L71.5805 154.541L72.4861 145.254L74.9153 145.491L74.0097 154.778Z" fill="#F5F3E7"/>
</svg>
