<svg width="183" height="86" viewBox="0 0 183 86" fill="none" xmlns="http://www.w3.org/2000/svg">
<path d="M50.7732 0.663114H52.2997L54.9539 7.14374H55.0516L57.7057 0.663114H59.2322V9H58.0354V2.96716H57.9581L55.4994 8.98779H54.5061L52.0474 2.96309H51.97V9H50.7732V0.663114Z" fill="#666666"/>
<path d="M64.4969 0.663114V9H63.239V0.663114H64.4969Z" fill="#666666"/>
<path d="M75.2357 0.663114V9H74.0796L69.8419 2.88574H69.7646V9H68.5067V0.663114H69.671L73.9127 6.78552H73.99V0.663114H75.2357Z" fill="#666666"/>
<path d="M80.5064 0.663114V9H79.2486V0.663114H80.5064Z" fill="#666666"/>
<path d="M91.4406 3.37423H90.1706C90.1217 3.10285 90.0308 2.86403 89.8978 2.65778C89.7648 2.45153 89.602 2.27649 89.4093 2.13265C89.2166 1.98882 89.0009 1.88027 88.7621 1.80699C88.526 1.73372 88.2749 1.69708 88.009 1.69708C87.5286 1.69708 87.0985 1.81785 86.7186 2.05938C86.3413 2.30091 86.0428 2.65507 85.823 3.12185C85.6059 3.58862 85.4973 4.15853 85.4973 4.83156C85.4973 5.51002 85.6059 6.08264 85.823 6.54941C86.0428 7.01619 86.3427 7.36899 86.7226 7.60781C87.1026 7.84663 87.53 7.96603 88.0049 7.96603C88.2682 7.96603 88.5178 7.93075 88.7539 7.8602C88.9928 7.78692 89.2085 7.67973 89.4012 7.53861C89.5939 7.39749 89.7567 7.22516 89.8897 7.02162C90.0254 6.81537 90.119 6.57927 90.1706 6.31331L91.4406 6.31738C91.3728 6.72717 91.2412 7.10439 91.0458 7.44905C90.8531 7.79099 90.6048 8.0868 90.3008 8.33647C89.9996 8.58343 89.6549 8.77476 89.2668 8.91045C88.8788 9.04614 88.4554 9.11399 87.9968 9.11399C87.2749 9.11399 86.6317 8.94301 86.0672 8.60107C85.5028 8.25641 85.0577 7.76385 84.732 7.12339C84.4091 6.48293 84.2476 5.71898 84.2476 4.83156C84.2476 3.94142 84.4104 3.17748 84.7361 2.53973C85.0618 1.89926 85.5068 1.40806 86.0713 1.06612C86.6358 0.721462 87.2776 0.549133 87.9968 0.549133C88.4391 0.549133 88.8516 0.612908 89.2343 0.740459C89.6196 0.865295 89.9657 1.04984 90.2723 1.29408C90.579 1.53561 90.8327 1.83142 91.0336 2.1815C91.2344 2.52887 91.3701 2.92645 91.4406 3.37423Z" fill="#666666"/>
<path d="M100.485 0.663114H101.747V6.14641C101.747 6.72988 101.61 7.24687 101.336 7.69737C101.062 8.14515 100.676 8.49795 100.18 8.75576C99.683 9.01086 99.1009 9.13841 98.4333 9.13841C97.7684 9.13841 97.1877 9.01086 96.691 8.75576C96.1944 8.49795 95.809 8.14515 95.5349 7.69737C95.2608 7.24687 95.1238 6.72988 95.1238 6.14641V0.663114H96.3817V6.04464C96.3817 6.42186 96.4644 6.75702 96.63 7.05012C96.7982 7.34321 97.0357 7.57389 97.3424 7.74214C97.649 7.90769 98.0127 7.99046 98.4333 7.99046C98.8567 7.99046 99.2217 7.90769 99.5284 7.74214C99.8377 7.57389 100.074 7.34321 100.237 7.05012C100.402 6.75702 100.485 6.42186 100.485 6.04464V0.663114Z" fill="#666666"/>
<path d="M105.754 9V0.663114H108.725C109.371 0.663114 109.907 0.774381 110.333 0.996915C110.762 1.21945 111.082 1.52747 111.294 1.92098C111.506 2.31177 111.612 2.76362 111.612 3.27653C111.612 3.78673 111.504 4.23587 111.29 4.62395C111.078 5.00932 110.758 5.30919 110.329 5.52359C109.903 5.73798 109.367 5.84518 108.721 5.84518H106.47V4.76236H108.607C109.014 4.76236 109.345 4.70401 109.601 4.58731C109.858 4.47062 110.047 4.30101 110.166 4.07847C110.286 3.85594 110.345 3.58862 110.345 3.27653C110.345 2.96173 110.284 2.68899 110.162 2.45831C110.043 2.22764 109.854 2.05124 109.596 1.92912C109.341 1.80428 109.006 1.74186 108.591 1.74186H107.012V9H105.754ZM109.869 5.23863L111.929 9H110.496L108.477 5.23863H109.869Z" fill="#666666"/>
<path d="M119.867 2.85318C119.824 2.46781 119.645 2.16929 119.33 1.95761C119.015 1.74322 118.619 1.63602 118.141 1.63602C117.799 1.63602 117.503 1.6903 117.254 1.79885C117.004 1.90469 116.81 2.05124 116.672 2.23849C116.536 2.42303 116.468 2.63336 116.468 2.86946C116.468 3.06757 116.514 3.23854 116.606 3.38237C116.701 3.52621 116.825 3.64697 116.977 3.74467C117.132 3.83965 117.297 3.91971 117.474 3.98484C117.65 4.04726 117.82 4.09882 117.982 4.13953L118.797 4.35121C119.062 4.41634 119.335 4.50454 119.615 4.61581C119.894 4.72708 120.153 4.87362 120.392 5.05545C120.631 5.23728 120.824 5.46253 120.97 5.73119C121.12 5.99986 121.194 6.32145 121.194 6.69596C121.194 7.16817 121.072 7.58745 120.828 7.95382C120.586 8.32019 120.235 8.60921 119.774 8.82089C119.315 9.03257 118.76 9.13841 118.109 9.13841C117.484 9.13841 116.944 9.03935 116.488 8.84124C116.033 8.64314 115.676 8.36225 115.418 7.9986C115.16 7.63223 115.018 7.19802 114.99 6.69596H116.252C116.277 6.9972 116.374 7.24823 116.545 7.44905C116.719 7.64716 116.94 7.79506 117.209 7.89276C117.48 7.98775 117.777 8.03524 118.1 8.03524C118.456 8.03524 118.772 7.9796 119.049 7.86834C119.328 7.75436 119.548 7.59695 119.708 7.39613C119.868 7.19259 119.949 6.95513 119.949 6.68375C119.949 6.43679 119.878 6.23461 119.737 6.07721C119.598 5.91981 119.41 5.78954 119.171 5.68642C118.935 5.58329 118.668 5.49238 118.369 5.41368L117.384 5.14501C116.716 4.96318 116.187 4.69587 115.796 4.34307C115.408 3.99027 115.214 3.52349 115.214 2.94273C115.214 2.46238 115.345 2.0431 115.605 1.68487C115.866 1.32665 116.218 1.04848 116.663 0.850369C117.109 0.649545 117.611 0.549133 118.17 0.549133C118.734 0.549133 119.232 0.648188 119.664 0.846298C120.098 1.04441 120.44 1.31715 120.689 1.66452C120.939 2.00917 121.069 2.40539 121.08 2.85318H119.867Z" fill="#666666"/>
<path d="M132.117 4.83156C132.117 5.7217 131.954 6.487 131.629 7.12746C131.303 7.76521 130.857 8.25641 130.289 8.60107C129.725 8.94301 129.083 9.11399 128.364 9.11399C127.642 9.11399 126.998 8.94301 126.43 8.60107C125.866 8.25641 125.421 7.76385 125.095 7.12339C124.77 6.48293 124.607 5.71898 124.607 4.83156C124.607 3.94142 124.77 3.17748 125.095 2.53973C125.421 1.89926 125.866 1.40806 126.43 1.06612C126.998 0.721462 127.642 0.549133 128.364 0.549133C129.083 0.549133 129.725 0.721462 130.289 1.06612C130.857 1.40806 131.303 1.89926 131.629 2.53973C131.954 3.17748 132.117 3.94142 132.117 4.83156ZM130.872 4.83156C130.872 4.1531 130.762 3.58184 130.542 3.11777C130.325 2.651 130.026 2.2982 129.646 2.05938C129.269 1.81785 128.842 1.69708 128.364 1.69708C127.884 1.69708 127.455 1.81785 127.078 2.05938C126.7 2.2982 126.402 2.651 126.182 3.11777C125.965 3.58184 125.856 4.1531 125.856 4.83156C125.856 5.51002 125.965 6.08264 126.182 6.54941C126.402 7.01348 126.7 7.36628 127.078 7.60781C127.455 7.84663 127.884 7.96603 128.364 7.96603C128.842 7.96603 129.269 7.84663 129.646 7.60781C130.026 7.36628 130.325 7.01348 130.542 6.54941C130.762 6.08264 130.872 5.51002 130.872 4.83156Z" fill="#666666"/>
<path d="M24.1519 46.7444C22.5973 46.7444 21.1622 46.4753 19.8468 45.9371C18.5313 45.3791 17.3853 44.6018 16.4086 43.6052C15.452 42.6086 14.7045 41.4327 14.1664 40.0774C13.6283 38.7021 13.3592 37.2073 13.3592 35.5929C13.3592 33.9784 13.6183 32.5035 14.1365 31.1682C14.6746 29.8328 15.4221 28.6768 16.3787 27.7001C17.3554 26.7036 18.5014 25.9462 19.8169 25.428C21.1323 24.8898 22.5773 24.6208 24.1519 24.6208C25.9258 24.6208 27.5203 24.9696 28.9354 25.6672C30.3704 26.3448 31.5364 27.3115 32.4333 28.5671C33.3501 29.8029 33.9082 31.2578 34.1075 32.9321H29.623C29.3639 31.3974 28.7361 30.2414 27.7395 29.464C26.743 28.6668 25.557 28.2682 24.1818 28.2682C22.966 28.2682 21.8897 28.5572 20.9529 29.1352C20.0361 29.7132 19.3186 30.5503 18.8004 31.6465C18.2822 32.7228 18.0231 34.0283 18.0231 35.563C18.0231 37.1176 18.2822 38.463 18.8004 39.599C19.3385 40.7152 20.076 41.5822 21.0127 42.2001C21.9495 42.798 23.0258 43.097 24.2416 43.097C25.5371 43.097 26.6832 42.7083 27.6797 41.931C28.6763 41.1537 29.324 39.9977 29.623 38.463H34.1673C33.9082 40.1372 33.3202 41.6021 32.4034 42.8578C31.4866 44.0935 30.3206 45.0502 28.9055 45.7279C27.4904 46.4055 25.9058 46.7444 24.1519 46.7444Z" fill="#7B4B3A"/>
<path d="M34.4637 46.4454L42.1771 24.9197H46.1234L39.0379 46.4454H34.4637ZM50.2492 46.4454L43.1936 24.9197H47.3193L55.0327 46.4454H50.2492ZM38.5297 38.1042H50.6079V41.6918H38.5297V38.1042Z" fill="#7B4B3A"/>
<path d="M56.7557 46.4454V24.9197H66.3824C67.9371 24.9197 69.2924 25.1888 70.4484 25.7269C71.6044 26.2452 72.5013 26.9826 73.1391 27.9393C73.7769 28.896 74.0958 30.0121 74.0958 31.2877C74.0958 32.5434 73.7769 33.6496 73.1391 34.6063C72.5013 35.543 71.6044 36.2805 70.4484 36.8186C69.2924 37.3368 67.9371 37.596 66.3824 37.596H60.4031V34.2176H66.2628C67.3591 34.2176 68.1962 33.9685 68.7742 33.4702C69.3721 32.952 69.6711 32.2345 69.6711 31.3176C69.6711 30.3809 69.3821 29.6733 68.8041 29.195C68.2261 28.6967 67.379 28.4475 66.2628 28.4475H61.3598V46.4454H56.7557ZM68.8938 46.4454L60.2536 35.264H65.1268L75.1123 46.4454H68.8938Z" fill="#7B4B3A"/>
<path d="M79.6557 46.4454V42.8578H85.0969C86.6515 42.8578 87.9669 42.5488 89.0432 41.931C90.1394 41.2932 90.9666 40.4262 91.5247 39.33C92.1027 38.2337 92.3917 36.9781 92.3917 35.563C92.3917 34.1678 92.1126 32.942 91.5546 31.8857C90.9965 30.8293 90.1693 30.0022 89.0731 29.4042C87.9968 28.8063 86.6714 28.5073 85.0969 28.5073H79.7453V24.9197H85.0969C87.5085 24.9197 89.6113 25.3582 91.4051 26.2352C93.1989 27.0922 94.5841 28.328 95.5607 29.9424C96.5573 31.5369 97.0555 33.4303 97.0555 35.6228C97.0555 37.8152 96.5573 39.7286 95.5607 41.3629C94.5642 42.9774 93.169 44.233 91.3752 45.1299C89.6013 46.0069 87.5185 46.4454 85.1268 46.4454H79.6557ZM76.8454 46.4454V24.9197H81.4495V46.4454H76.8454Z" fill="#7B4B3A"/>
<path d="M97.1768 46.4454L104.89 24.9197H108.836L101.751 46.4454H97.1768ZM112.962 46.4454L105.907 24.9197H110.032L117.746 46.4454H112.962ZM101.243 38.1042H113.321V41.6918H101.243V38.1042ZM108.567 22.7373H104.621L107.581 18.0435H113.5L108.567 22.7373Z" fill="#7B4B3A"/>
<path d="M119.968 46.4454V24.9197H130.193C131.787 24.9197 133.152 25.1988 134.288 25.7568C135.444 26.3149 136.331 27.0922 136.949 28.0888C137.587 29.0853 137.906 30.2513 137.906 31.5867C137.906 32.9221 137.587 34.098 136.949 35.1145C136.311 36.131 135.415 36.9283 134.259 37.5063C133.122 38.0643 131.767 38.3434 130.193 38.3434H123.615V34.8156H129.953C131.01 34.8156 131.827 34.5266 132.405 33.9486C133.003 33.3506 133.302 32.5733 133.302 31.6166C133.302 30.6599 133.003 29.8926 132.405 29.3146C131.827 28.7366 131.01 28.4475 129.953 28.4475H124.572V46.4454H119.968Z" fill="#7B4B3A"/>
<path d="M140.055 46.4454V24.9197H144.659V46.4454H140.055Z" fill="#7B4B3A"/>
<path d="M158.08 46.7444C156.485 46.7444 155.01 46.4753 153.655 45.9371C152.32 45.399 151.154 44.6416 150.157 43.665C149.18 42.6684 148.413 41.4925 147.855 40.1372C147.317 38.7619 147.048 37.2472 147.048 35.5929C147.048 33.4004 147.516 31.4871 148.453 29.8527C149.39 28.1984 150.685 26.9129 152.34 25.996C154.014 25.0792 155.917 24.6208 158.05 24.6208C160.222 24.6208 162.136 25.0792 163.79 25.996C165.444 26.9129 166.74 28.1984 167.677 29.8527C168.633 31.507 169.112 33.4303 169.112 35.6228C169.112 37.2571 168.833 38.7619 168.274 40.1372C167.736 41.4925 166.969 42.6684 165.972 43.665C164.996 44.6416 163.83 45.399 162.475 45.9371C161.139 46.4753 159.674 46.7444 158.08 46.7444ZM158.05 43.097C159.305 43.097 160.412 42.7781 161.368 42.1403C162.325 41.5025 163.072 40.6255 163.611 39.5093C164.169 38.3733 164.448 37.0578 164.448 35.563C164.448 34.0881 164.179 32.8025 163.64 31.7063C163.102 30.6101 162.355 29.763 161.398 29.1651C160.442 28.5671 159.325 28.2682 158.05 28.2682C156.794 28.2682 155.688 28.5671 154.731 29.1651C153.775 29.763 153.027 30.6101 152.489 31.7063C151.971 32.7826 151.712 34.0681 151.712 35.563C151.712 37.0777 151.981 38.4032 152.519 39.5392C153.057 40.6554 153.804 41.5324 154.761 42.1702C155.718 42.788 156.814 43.097 158.05 43.097Z" fill="#7B4B3A"/>
<path d="M11.0947 66.3902C11.024 66.0011 10.9533 65.6298 10.8825 65.2762C10.8118 64.9225 10.635 64.6926 10.3521 64.5865C9.75086 64.4097 9.11429 64.392 8.44236 64.5335C7.77042 64.6749 7.15153 64.9048 6.58569 65.2231C6.01985 65.506 5.54242 65.842 5.1534 66.231C4.76439 66.5847 4.5522 66.903 4.51683 67.1859C4.41073 67.7164 4.5522 68.2291 4.94121 68.7243C5.33023 69.2194 5.89607 69.7145 6.63874 70.2096C7.87651 70.9523 9.16734 71.7126 10.5112 72.4906C11.8551 73.2687 12.9868 74.0644 13.9063 74.8778C14.8258 75.6912 15.4446 76.593 15.7629 77.5832C16.1166 78.5381 16.0459 79.6344 15.5507 80.8722C15.1617 81.827 14.4367 82.6051 13.3758 83.2063C12.3148 83.8075 11.1478 84.2849 9.87464 84.6385C8.6015 84.9568 7.32836 85.1867 6.05521 85.3282C4.78207 85.4343 3.70343 85.4873 2.81931 85.4873C2.60711 85.4873 2.34188 85.4166 2.02359 85.2751C1.74067 85.0983 1.45775 84.9038 1.17483 84.6916C0.927273 84.4794 0.697399 84.2672 0.485209 84.055C0.308383 83.8075 0.219971 83.5953 0.219971 83.4184C0.219971 82.7819 0.502891 82.3398 1.06873 82.0923C1.63457 81.8447 2.2181 81.7209 2.81931 81.7209C3.66807 81.7209 4.56988 81.6856 5.52474 81.6148C6.51496 81.5087 7.45213 81.3673 8.33626 81.1905C9.22039 80.9783 10.0161 80.713 10.7234 80.3947C11.4307 80.0765 11.9258 79.6697 12.2087 79.1746C12.4563 78.7503 12.2972 78.2551 11.7313 77.6893C11.2008 77.0881 10.4758 76.4692 9.55636 75.8326C8.67223 75.1961 7.69969 74.5772 6.63874 73.976C5.61315 73.3748 4.72902 72.8266 3.98635 72.3315C3.24369 71.8364 2.60711 71.2529 2.07664 70.5809C1.54616 69.8736 1.21019 69.0072 1.06873 67.9816C1.03337 67.0621 1.22788 66.178 1.65226 65.3292C2.07664 64.4804 2.6248 63.7378 3.29673 63.1012C4.00404 62.4293 4.79975 61.8988 5.68388 61.5098C6.56801 61.1208 7.45213 60.9263 8.33626 60.9263C9.85696 60.997 11.1124 61.4214 12.1026 62.1994C13.0929 62.9421 13.6764 64.0561 13.8532 65.5414C13.8532 66.0365 13.7648 66.4432 13.588 66.7615C13.4465 67.0798 13.1813 67.2743 12.7923 67.345C12.2972 67.4157 11.8905 67.3627 11.5722 67.1859C11.2892 66.9737 11.1301 66.7084 11.0947 66.3902Z" fill="#7B4B3A"/>
<path d="M31.9885 69.7852C30.6092 70.5986 29.1239 71.2352 27.5325 71.6949C25.941 72.1193 24.2258 72.3315 22.3868 72.3315C22.4576 73.5693 22.8112 74.5595 23.4478 75.3022C24.0844 76.0095 24.8801 76.4338 25.8349 76.5753C26.4008 76.646 26.9666 76.6284 27.5325 76.5223C28.1337 76.4162 28.6818 76.257 29.1769 76.0448C29.7074 75.7973 30.1848 75.532 30.6092 75.2491C31.0336 74.9662 31.4049 74.6833 31.7232 74.4004C32.0415 74.1174 32.3775 73.9406 32.7311 73.8699C33.0848 73.7638 33.35 73.7461 33.5268 73.8168C34.022 73.9937 34.1988 74.5241 34.0573 75.4083C33.4915 76.5399 32.6781 77.5125 31.6171 78.3259C30.5562 79.1039 29.3714 79.599 28.0629 79.8112C26.9313 80.0234 25.7642 79.9704 24.5618 79.6521C23.3594 79.3338 22.2807 78.7149 21.3259 77.7954C20.5125 76.982 19.8936 76.0271 19.4692 74.9308C19.0448 73.8345 18.7796 72.7028 18.6735 71.5358C18.5674 70.4395 18.6558 69.3962 18.9387 68.406C19.257 67.4157 19.7345 66.5493 20.371 65.8066C21.0076 65.0286 21.8033 64.392 22.7582 63.8969C23.713 63.4018 24.827 63.1189 26.1002 63.0482C27.6209 62.9421 29.0001 63.225 30.2379 63.8969C31.4757 64.5689 32.3421 65.506 32.8372 66.7084C33.1201 67.3804 33.1909 67.9639 33.0494 68.459C32.9433 68.9541 32.5897 69.3962 31.9885 69.7852ZM25.888 66.178C25.5343 66.2487 25.1453 66.3725 24.7209 66.5493C24.3319 66.7261 23.9606 66.956 23.6069 67.2389C23.2887 67.4865 22.988 67.7871 22.7051 68.1407C22.4576 68.459 22.3161 68.8303 22.2807 69.2547C22.882 69.2547 23.5362 69.2017 24.2435 69.0956C24.9862 68.9895 25.6935 68.8657 26.3654 68.7243C27.0727 68.5474 27.7093 68.3529 28.2751 68.1407C28.8763 67.9285 29.3714 67.6987 29.7605 67.4511C29.4775 66.7792 28.9471 66.3725 28.169 66.231C27.4264 66.0542 26.666 66.0365 25.888 66.178Z" fill="#7B4B3A"/>
<path d="M40.9316 65.117C40.9669 65.6829 41.02 66.3902 41.0907 67.2389C41.1968 68.0523 41.3029 68.9188 41.409 69.8382C41.5151 70.7224 41.6212 71.6065 41.7273 72.4906C41.8687 73.3748 41.9925 74.1882 42.0986 74.9308C42.4876 74.1528 42.965 73.1979 43.5309 72.0663C44.0967 70.9346 44.6803 69.8559 45.2815 68.8303C45.918 67.7694 46.5546 66.8853 47.1912 66.178C47.8631 65.4353 48.4643 65.064 48.9948 65.064C49.5606 65.064 50.0734 65.3469 50.5332 65.9127C51.0283 66.4432 51.4527 67.0975 51.8063 67.8755C52.16 68.6535 52.4606 69.4846 52.7081 70.3687C52.9911 71.2529 53.2209 72.0309 53.3978 72.7028C53.5392 72.2431 53.716 71.7303 53.9282 71.1644C54.1758 70.5632 54.4233 69.962 54.6709 69.3608C54.9538 68.7243 55.2544 68.1054 55.5727 67.5042C55.9264 66.903 56.2977 66.3725 56.6867 65.9127C57.1465 65.4176 57.6416 65.064 58.172 64.8518C58.7025 64.6042 59.0915 64.4804 59.3391 64.4804C59.6574 64.4804 60.0287 64.5865 60.4531 64.7987C60.9128 64.9756 61.3726 65.2231 61.8323 65.5414C62.2921 65.8597 62.7165 66.2487 63.1055 66.7084C63.5299 67.1328 63.8658 67.5749 64.1134 68.0346C64.6085 68.9895 64.9975 70.0328 65.2804 71.1644C65.5987 72.2961 65.8286 73.3748 65.97 74.4004C66.1115 75.4259 66.1999 76.3454 66.2353 77.1588C66.306 77.9369 66.3591 78.485 66.3944 78.8033C66.3944 79.2631 66.3414 79.6167 66.2353 79.8643C66.1292 80.0764 65.9347 80.2533 65.6518 80.3947C65.2627 80.5716 64.9268 80.6423 64.6439 80.6069C64.3609 80.5362 64.1311 80.4124 63.9542 80.2356C63.7774 80.0588 63.6359 79.8643 63.5299 79.6521C63.4238 79.4045 63.353 79.1923 63.3177 79.0155C63.2116 78.2021 63.0878 77.371 62.9463 76.5223C62.8402 75.6735 62.7165 74.8601 62.575 74.0821C62.4335 73.2687 62.2567 72.526 62.0445 71.8541C61.8677 71.1468 61.6732 70.5279 61.461 69.9974C61.3903 69.8559 61.2665 69.6791 61.0897 69.4669C60.9482 69.2194 60.7714 68.9895 60.5592 68.7773C60.3824 68.5651 60.2055 68.3883 60.0287 68.2468C59.8519 68.1054 59.7281 68.0169 59.6574 67.9816C59.3037 67.9816 58.9324 68.3176 58.5434 68.9895C58.1544 69.6261 57.783 70.4041 57.4294 71.3236C57.0757 72.2431 56.7398 73.2156 56.4215 74.2412C56.1385 75.2314 55.9264 76.0802 55.7849 76.7875C55.7849 77.707 55.6081 78.3966 55.2544 78.8564C54.9008 79.2807 54.5294 79.4929 54.1404 79.4929C53.7514 79.4929 53.327 79.3515 52.8673 79.0685C52.4429 78.7503 52.16 78.3966 52.0185 78.0076C51.8063 77.4417 51.5765 76.8052 51.3289 76.0979C51.0813 75.3906 50.8161 74.6656 50.5332 73.9229C50.2856 73.1803 50.0204 72.4553 49.7375 71.748C49.4899 71.0407 49.2424 70.4041 48.9948 69.8382C48.4997 70.5102 48.0046 71.2529 47.5095 72.0663C47.0497 72.8797 46.59 73.7107 46.1302 74.5595C45.7058 75.4083 45.2815 76.257 44.8571 77.1058C44.4681 77.9192 44.0967 78.6442 43.7431 79.2807C43.4955 79.6697 43.2303 80.0234 42.9474 80.3417C42.6644 80.6246 42.3285 80.7661 41.9395 80.7661C41.6565 80.7661 41.3559 80.6423 41.0377 80.3947C40.7194 80.1118 40.4188 79.7758 40.1358 79.3868C39.8529 78.9978 39.5877 78.5557 39.3401 78.0606C39.1279 77.5655 38.9688 77.0704 38.8627 76.5753C38.5798 75.0546 38.3322 73.3924 38.12 71.5888C37.9432 69.7498 37.7664 67.9639 37.5896 66.231C37.5542 65.6298 37.6249 65.0816 37.8017 64.5865C38.0139 64.0561 38.403 63.7024 38.9688 63.5256C39.57 63.4195 40.0297 63.5079 40.348 63.7908C40.6663 64.0737 40.8608 64.5158 40.9316 65.117Z" fill="#7B4B3A"/>
<path d="M84.9425 55.3562C84.8364 54.7197 84.8718 54.1361 85.0486 53.6057C85.2608 53.0752 85.6675 52.7746 86.2687 52.7038C86.7992 52.6331 87.259 52.7746 87.648 53.1282C88.0724 53.4819 88.3376 53.9416 88.4437 54.5075C89.151 58.5744 89.8052 62.6238 90.4064 66.6554C91.043 70.6516 91.6089 74.5772 92.104 78.432C92.2454 79.4575 92.1747 80.1648 91.8918 80.5539C91.6089 80.9075 91.2729 81.1727 90.8839 81.3496C90.4595 81.5264 90.0528 81.5264 89.6638 81.3496C89.3101 81.1727 89.0803 80.8545 88.9742 80.3947L88.9211 80.0764L88.7089 80.1295C87.5419 80.5539 86.3218 80.8014 85.0486 80.8721C83.7755 80.9075 82.5554 80.7484 81.3883 80.3947C80.2213 80.0411 79.178 79.4752 78.2585 78.6972C77.3744 77.8838 76.7378 76.8582 76.3488 75.6204C75.5001 72.8973 76.0305 70.4218 77.9402 68.1938C78.7536 67.2743 79.7616 66.4432 80.964 65.7005C82.1664 64.9578 83.6163 64.3743 85.3139 63.9499L86.2687 63.7378L84.9425 55.3562ZM79.5847 74.2942C79.7969 75.143 80.1859 75.7973 80.7518 76.257C81.3176 76.7167 81.9896 77.035 82.7676 77.2119C83.5456 77.3533 84.3767 77.371 85.2608 77.2649C86.145 77.1588 87.0114 76.9643 87.8602 76.6814L88.3376 76.5222L86.8523 67.1859L85.7913 67.4511C85.0486 67.6633 84.2529 67.9992 83.4042 68.459C82.5908 68.8834 81.8658 69.3962 81.2292 69.9974C80.5926 70.5986 80.0975 71.2705 79.7439 72.0132C79.4256 72.7559 79.3725 73.5162 79.5847 74.2942Z" fill="#7B4B3A"/>
<path d="M110.799 63.9499C110.163 64.3036 109.491 64.6749 108.783 65.0639C108.111 65.453 107.422 65.9127 106.714 66.4432C106.043 66.9383 105.388 67.5395 104.752 68.2468C104.15 68.9187 103.602 69.7321 103.107 70.687C102.4 72.0309 101.922 73.4101 101.675 74.8247C101.427 76.204 101.268 77.5655 101.197 78.9094C101.197 79.546 101.038 80.2002 100.72 80.8721C100.437 81.5087 100.03 81.827 99.5 81.827C98.828 81.827 98.2799 81.491 97.8555 80.8191C97.4665 80.1118 97.2012 79.4399 97.0598 78.8033C96.4586 76.2924 95.9635 73.8168 95.5744 71.3766C95.1854 68.9011 94.8495 66.4432 94.5665 64.003C94.5665 63.5079 94.708 63.1896 94.9909 63.0481C95.3092 62.9067 95.6629 62.8536 96.0519 62.889C96.4763 62.9244 96.883 63.0305 97.272 63.2073C97.661 63.3841 97.8909 63.667 97.9616 64.056C98.1031 65.3646 98.2799 66.7438 98.4921 68.1938C98.7043 69.6084 98.9164 70.8285 99.1286 71.854C99.2701 70.6516 99.6591 69.4846 100.296 68.3529C100.932 67.2212 101.71 66.1956 102.63 65.2761C103.585 64.3566 104.646 63.5786 105.813 62.942C107.015 62.3055 108.235 61.8811 109.473 61.6689C110.003 61.5982 110.445 61.5982 110.799 61.6689C111.153 61.7396 111.4 61.8634 111.542 62.0402C111.683 62.2171 111.701 62.5 111.595 62.889C111.524 63.278 111.259 63.6317 110.799 63.9499Z" fill="#7B4B3A"/>
<path d="M127.264 62.6238C127.405 63.614 127.511 64.6749 127.582 65.8066C127.688 66.9029 127.759 68.0169 127.794 69.1486C127.865 70.2803 127.9 71.3766 127.9 72.4376C127.9 73.4985 127.883 74.4534 127.847 75.3021C128.979 76.0802 129.651 76.7698 129.863 77.371C130.111 77.9722 130.146 78.5027 129.969 78.9624C129.757 79.599 129.368 79.935 128.802 79.9703C128.272 79.9703 127.653 79.7758 126.945 79.3868C126.45 79.7405 125.885 80.1295 125.248 80.5539C124.611 80.9429 123.939 81.3319 123.232 81.7209C122.525 82.0746 121.818 82.3928 121.11 82.6758C120.403 82.9587 119.749 83.1532 119.147 83.2593C118.016 83.4361 116.99 83.2239 116.071 82.6227C115.187 82.0215 114.585 81.1197 114.267 79.9173C114.055 79.1039 114.002 78.2728 114.108 77.424C114.214 76.5399 114.479 75.7088 114.904 74.9308C115.328 74.1174 115.894 73.3924 116.601 72.7559C117.344 72.1193 118.21 71.6242 119.201 71.2705C119.448 71.1644 119.784 71.076 120.208 71.0053C120.668 70.9345 121.128 70.9169 121.588 70.9522C122.083 70.9522 122.578 71.0406 123.073 71.2175C123.568 71.3943 124.028 71.6949 124.452 72.1193C124.452 71.5181 124.435 70.8638 124.399 70.1565C124.399 69.4139 124.382 68.6712 124.346 67.9285C124.311 67.1859 124.258 66.4962 124.187 65.8597C124.152 65.1877 124.099 64.6219 124.028 64.1621C123.957 63.6317 123.745 63.3134 123.391 63.2073C123.073 63.0658 122.666 63.0835 122.171 63.2603C121.322 63.5432 120.332 64.0914 119.201 64.9048C118.069 65.7182 116.99 66.5846 115.965 67.5041C115.646 67.8224 115.275 67.9639 114.851 67.9285C114.462 67.8932 114.126 67.734 113.843 67.4511C113.56 67.1682 113.401 66.8499 113.365 66.4962C113.33 66.1072 113.471 65.7005 113.79 65.2761C114.391 64.6396 115.063 63.9853 115.805 63.3134C116.548 62.6414 117.326 62.0402 118.14 61.5098C118.953 60.9439 119.784 60.4842 120.633 60.1305C121.482 59.7769 122.33 59.5824 123.179 59.547C124.417 59.5116 125.372 59.7945 126.044 60.3958C126.716 60.9616 127.122 61.7043 127.264 62.6238ZM121.11 74.029C120.651 74.1351 120.155 74.365 119.625 74.7186C119.13 75.0369 118.67 75.4436 118.246 75.9387C117.857 76.3985 117.556 76.9289 117.344 77.5301C117.167 78.096 117.167 78.6618 117.344 79.2277C117.415 79.4399 117.556 79.599 117.768 79.7051C118.016 79.8112 118.281 79.8289 118.564 79.7581C119.413 79.5813 120.368 79.2453 121.429 78.7502C122.525 78.2198 123.391 77.6539 124.028 77.0527C124.028 76.8405 123.922 76.5753 123.71 76.257C123.497 75.9034 123.25 75.5674 122.967 75.2491C122.684 74.8954 122.366 74.5948 122.012 74.3473C121.694 74.0997 121.393 73.9936 121.11 74.029Z" fill="#7B4B3A"/>
<path d="M136.249 65.117C136.284 65.6828 136.337 66.3901 136.408 67.2389C136.514 68.0523 136.62 68.9187 136.726 69.8382C136.832 70.7224 136.938 71.6065 137.044 72.4906C137.186 73.3747 137.31 74.1881 137.416 74.9308C137.805 74.1528 138.282 73.1979 138.848 72.0662C139.414 70.9346 139.997 69.8559 140.599 68.8303C141.235 67.7694 141.872 66.8853 142.508 66.1779C143.18 65.4353 143.781 65.0639 144.312 65.0639C144.878 65.0639 145.391 65.3469 145.85 65.9127C146.345 66.4432 146.77 67.0974 147.123 67.8755C147.477 68.6535 147.778 69.4846 148.025 70.3687C148.308 71.2528 148.538 72.0309 148.715 72.7028C148.856 72.2431 149.033 71.7303 149.245 71.1644C149.493 70.5632 149.741 69.962 149.988 69.3608C150.271 68.7242 150.572 68.1053 150.89 67.5041C151.244 66.9029 151.615 66.3725 152.004 65.9127C152.464 65.4176 152.959 65.0639 153.489 64.8518C154.02 64.6042 154.409 64.4804 154.656 64.4804C154.975 64.4804 155.346 64.5865 155.77 64.7987C156.23 64.9755 156.69 65.2231 157.15 65.5414C157.609 65.8597 158.034 66.2487 158.423 66.7084C158.847 67.1328 159.183 67.5749 159.431 68.0346C159.926 68.9895 160.315 70.0327 160.598 71.1644C160.916 72.2961 161.146 73.3747 161.287 74.4003C161.429 75.4259 161.517 76.3454 161.552 77.1588C161.623 77.9368 161.676 78.485 161.712 78.8033C161.712 79.263 161.659 79.6167 161.552 79.8642C161.446 80.0764 161.252 80.2533 160.969 80.3947C160.58 80.5715 160.244 80.6423 159.961 80.6069C159.678 80.5362 159.448 80.4124 159.271 80.2356C159.095 80.0587 158.953 79.8642 158.847 79.652C158.741 79.4045 158.67 79.1923 158.635 79.0155C158.529 78.2021 158.405 77.371 158.264 76.5222C158.157 75.6735 158.034 74.8601 157.892 74.082C157.751 73.2686 157.574 72.526 157.362 71.854C157.185 71.1467 156.99 70.5279 156.778 69.9974C156.707 69.8559 156.584 69.6791 156.407 69.4669C156.265 69.2193 156.089 68.9895 155.876 68.7773C155.7 68.5651 155.523 68.3883 155.346 68.2468C155.169 68.1053 155.045 68.0169 154.975 67.9816C154.621 67.9816 154.25 68.3175 153.861 68.9895C153.472 69.626 153.1 70.4041 152.747 71.3236C152.393 72.2431 152.057 73.2156 151.739 74.2412C151.456 75.2314 151.244 76.0802 151.102 76.7875C151.102 77.707 150.925 78.3966 150.572 78.8563C150.218 79.2807 149.847 79.4929 149.458 79.4929C149.069 79.4929 148.644 79.3514 148.184 79.0685C147.76 78.7502 147.477 78.3966 147.336 78.0076C147.124 77.4417 146.894 76.8052 146.646 76.0979C146.399 75.3906 146.133 74.6656 145.85 73.9229C145.603 73.1802 145.338 72.4553 145.055 71.7479C144.807 71.0406 144.56 70.4041 144.312 69.8382C143.817 70.5102 143.322 71.2528 142.827 72.0662C142.367 72.8796 141.907 73.7107 141.447 74.5595C141.023 75.4082 140.599 76.257 140.174 77.1058C139.785 77.9192 139.414 78.6441 139.06 79.2807C138.813 79.6697 138.547 80.0234 138.265 80.3417C137.982 80.6246 137.646 80.7661 137.257 80.7661C136.974 80.7661 136.673 80.6423 136.355 80.3947C136.037 80.1118 135.736 79.7758 135.453 79.3868C135.17 78.9978 134.905 78.5557 134.657 78.0606C134.445 77.5655 134.286 77.0704 134.18 76.5753C133.897 75.0546 133.649 73.3924 133.437 71.5888C133.26 69.7498 133.084 67.9639 132.907 66.231C132.871 65.6298 132.942 65.0816 133.119 64.5865C133.331 64.056 133.72 63.7024 134.286 63.5256C134.887 63.4195 135.347 63.5079 135.665 63.7908C135.983 64.0737 136.178 64.5158 136.249 65.117Z" fill="#7B4B3A"/>
<path d="M179.275 62.6238C179.417 63.614 179.523 64.6749 179.594 65.8066C179.7 66.9029 179.77 68.0169 179.806 69.1486C179.877 70.2803 179.912 71.3766 179.912 72.4376C179.912 73.4985 179.894 74.4534 179.859 75.3021C180.991 76.0802 181.662 76.7698 181.875 77.371C182.122 77.9722 182.158 78.5027 181.981 78.9624C181.769 79.599 181.38 79.935 180.814 79.9703C180.283 79.9703 179.664 79.7758 178.957 79.3868C178.462 79.7405 177.896 80.1295 177.26 80.5539C176.623 80.9429 175.951 81.3319 175.244 81.7209C174.536 82.0746 173.829 82.3928 173.122 82.6758C172.415 82.9587 171.76 83.1532 171.159 83.2593C170.027 83.4361 169.002 83.2239 168.082 82.6227C167.198 82.0215 166.597 81.1197 166.279 79.9173C166.066 79.1039 166.013 78.2728 166.12 77.424C166.226 76.5399 166.491 75.7088 166.915 74.9308C167.34 74.1174 167.905 73.3924 168.613 72.7559C169.355 72.1193 170.222 71.6242 171.212 71.2705C171.46 71.1644 171.796 71.076 172.22 71.0053C172.68 70.9345 173.139 70.9169 173.599 70.9522C174.094 70.9522 174.589 71.0406 175.085 71.2175C175.58 71.3943 176.039 71.6949 176.464 72.1193C176.464 71.5181 176.446 70.8638 176.411 70.1565C176.411 69.4139 176.393 68.6712 176.358 67.9285C176.322 67.1859 176.269 66.4962 176.199 65.8597C176.163 65.1877 176.11 64.6219 176.039 64.1621C175.969 63.6317 175.757 63.3134 175.403 63.2073C175.085 63.0658 174.678 63.0835 174.183 63.2603C173.334 63.5432 172.344 64.0914 171.212 64.9048C170.08 65.7182 169.002 66.5846 167.976 67.5041C167.658 67.8224 167.287 67.9639 166.862 67.9285C166.473 67.8932 166.137 67.734 165.854 67.4511C165.571 67.1682 165.412 66.8499 165.377 66.4962C165.341 66.1072 165.483 65.7005 165.801 65.2761C166.402 64.6396 167.074 63.9853 167.817 63.3134C168.56 62.6414 169.338 62.0402 170.151 61.5098C170.965 60.9439 171.796 60.4842 172.644 60.1305C173.493 59.7769 174.342 59.5824 175.191 59.547C176.428 59.5116 177.383 59.7945 178.055 60.3958C178.727 60.9616 179.134 61.7043 179.275 62.6238ZM173.122 74.029C172.662 74.1351 172.167 74.365 171.636 74.7186C171.141 75.0369 170.682 75.4436 170.257 75.9387C169.868 76.3985 169.568 76.9289 169.355 77.5301C169.179 78.096 169.179 78.6618 169.355 79.2277C169.426 79.4399 169.568 79.599 169.78 79.7051C170.027 79.8112 170.293 79.8289 170.576 79.7581C171.424 79.5813 172.379 79.2453 173.44 78.7502C174.536 78.2198 175.403 77.6539 176.039 77.0527C176.039 76.8405 175.933 76.5753 175.721 76.257C175.509 75.9034 175.261 75.5674 174.978 75.2491C174.696 74.8954 174.377 74.5948 174.024 74.3473C173.705 74.0997 173.405 73.9936 173.122 74.029Z" fill="#7B4B3A"/>
</svg>
