<svg width="101" height="65" viewBox="0 0 101 65" fill="none" xmlns="http://www.w3.org/2000/svg">
<path d="M18.6434 29.2775C19.1716 29.8143 19.6244 30.3934 20.0017 31.0147C20.0862 31.1656 20.2339 31.4298 20.4451 31.8071C20.6755 32.1836 20.8972 32.5798 21.1101 32.9958C21.323 33.4118 21.5056 33.8001 21.6578 34.1609C21.8101 34.5216 21.87 34.7705 21.8377 34.9075C21.8044 35.0252 21.8011 35.1608 21.8276 35.3145C21.8725 35.4479 21.9178 35.591 21.9637 35.7437C22.0279 35.8762 22.0829 36.0188 22.1287 36.1716C22.1745 36.3243 22.2006 36.4683 22.2069 36.6035C22.1943 37.1655 22.1329 37.72 22.0228 38.2672C21.9312 38.7941 21.8092 39.2934 21.6569 39.7651C21.5832 39.8459 21.5178 39.8974 21.4608 39.9194C21.366 39.9625 21.3305 40.0319 21.3543 40.1276C21.3781 40.2233 21.3633 40.3208 21.3098 40.42C21.0048 40.9375 20.7094 41.4546 20.4236 41.9711C20.137 42.4684 19.7998 42.9196 19.4121 43.3248C18.9517 43.8302 18.4636 44.3658 17.9478 44.9318C17.4312 45.4785 16.9285 45.9084 16.4397 46.2214C16.2273 46.2313 16.0929 46.2569 16.0368 46.2982C15.9797 46.3202 15.9069 46.4204 15.8184 46.5988C15.5498 46.6499 15.3027 46.7485 15.0772 46.8945C14.871 47.0396 14.6653 47.1944 14.46 47.3588C14.2749 47.5416 14.0792 47.7055 13.873 47.8506C13.6677 48.015 13.4404 48.1224 13.1911 48.1727C13.0577 48.2176 12.9624 48.2511 12.9054 48.2731C12.8483 48.2951 12.8032 48.3649 12.7699 48.4826C12.7524 48.5221 12.6581 48.5749 12.4869 48.641C12.3351 48.7061 12.1639 48.7721 11.9735 48.839C11.783 48.906 11.5921 48.9632 11.4007 49.0108C11.2286 49.0575 11.1136 49.0822 11.0557 49.0849C10.9214 49.1105 10.7884 49.1651 10.6568 49.2487C10.5252 49.3322 10.4032 49.4153 10.2909 49.4979C10.0267 49.6457 9.77696 49.6864 9.54157 49.6199C9.3264 49.5718 9.06518 49.5743 8.75791 49.6272C8.75252 49.5113 8.77746 49.4231 8.83272 49.3624C8.90819 49.3202 8.99332 49.2775 9.08811 49.2344C9.20311 49.2097 9.308 49.1758 9.40279 49.1327C9.51779 49.108 9.60202 49.046 9.65548 48.9467C9.73006 48.8852 9.79811 48.8917 9.85965 48.9663C9.94051 49.04 10.0086 49.0465 10.0638 48.9858C10.1532 48.8268 10.2941 48.7332 10.4863 48.7049C10.6988 48.695 10.8037 48.6611 10.801 48.6031C10.8922 48.4827 10.9079 48.4046 10.8482 48.3686C10.7884 48.3327 10.7015 48.3367 10.5874 48.3808C10.4347 48.4266 10.3105 48.4614 10.2148 48.4852C10.1384 48.5081 10.0643 48.5793 9.99241 48.6988C9.89314 48.6453 9.75747 48.6419 9.58542 48.6886C9.41426 48.7547 9.28129 48.8092 9.1865 48.8524C9.18202 48.7558 9.28332 48.6446 9.49042 48.5188C9.69841 48.4124 9.8507 48.3569 9.94728 48.3524C10.3529 48.3336 10.7325 48.1708 11.0861 47.864C11.4396 47.5572 11.7766 47.3092 12.0969 47.1201L12.613 46.98C12.684 46.8412 12.7945 46.7199 12.9446 46.6161C13.0955 46.5317 13.2464 46.4472 13.3974 46.3628C13.5483 46.2783 13.6997 46.2036 13.8516 46.1384C14.0025 46.054 14.1332 45.9511 14.2437 45.8298C14.4989 45.4889 14.8064 45.2326 15.1663 45.061C15.5445 44.8692 15.8718 44.6217 16.1481 44.3185C16.2936 44.1182 16.4594 43.9363 16.6454 43.7728C16.8498 43.589 17.0766 43.472 17.326 43.4217C17.3489 43.4981 17.3331 43.5763 17.2788 43.6562C17.2437 43.7353 17.2658 43.7923 17.3448 43.8274C17.48 43.8211 17.5243 43.7319 17.4776 43.5599C17.4502 43.3869 17.4347 43.2618 17.4311 43.1845C17.4625 43.0282 17.5542 42.9175 17.706 42.8524C17.857 42.7679 17.978 42.6655 18.0692 42.5451C18.4525 42.0434 18.7966 41.5337 19.1016 41.0163C19.4103 40.576 19.7373 40.1156 20.0828 39.635C20.4274 39.135 20.6165 38.6229 20.6502 38.0987C20.6597 37.8853 20.6595 37.6723 20.6496 37.4599C20.6397 37.2474 20.6487 37.0243 20.6766 36.7908C20.7175 36.4211 20.6793 36.0163 20.5621 35.5765C20.4633 35.1165 20.3295 34.7356 20.1606 34.4337L19.4861 33.0422C19.3797 32.8342 19.2314 32.5604 19.0414 32.2208C18.8708 31.8802 18.6711 31.5411 18.4425 31.2033C18.2322 30.8452 18.0142 30.5263 17.7882 30.2464C17.5816 29.9656 17.3887 29.7713 17.2094 29.6635C16.9916 29.5575 16.8018 29.4308 16.6401 29.2834C16.4977 29.1352 16.3263 28.9883 16.126 28.8427C16.0258 28.7699 15.9357 28.7064 15.8558 28.652C15.7758 28.5976 15.6779 28.5732 15.562 28.5785C15.4636 28.5444 15.4227 28.4979 15.4394 28.4391C15.4753 28.3793 15.4358 28.3618 15.3208 28.3865C15.1671 28.413 14.9731 28.4026 14.7386 28.3555C14.5225 28.2881 14.3873 28.2943 14.3329 28.3743C14.3329 28.3743 14.354 28.412 14.3963 28.4875C14.3999 28.5648 14.3143 28.5978 14.1395 28.5866C13.9841 28.5744 13.859 28.5899 13.7642 28.633C13.7597 28.5364 13.7768 28.4873 13.8154 28.4855C13.8734 28.4828 13.9199 28.4419 13.9549 28.3628C14.0066 28.2249 13.9841 28.1582 13.8875 28.1627C13.8094 28.147 13.7391 28.0922 13.6766 27.9983C13.7696 27.9165 13.8346 27.8554 13.8714 27.815C13.9275 27.7737 13.9882 27.8289 14.0533 27.9808C14.1158 28.0747 14.1571 28.1308 14.1773 28.1492C14.2159 28.1474 14.244 28.1268 14.2615 28.0873C14.2975 28.0275 14.3233 27.9586 14.339 27.8804C14.3547 27.8022 14.3613 27.7342 14.3586 27.6762L14.0715 27.7476C14.0643 27.5931 14.098 27.4851 14.1726 27.4235C14.2656 27.3418 14.3696 27.2885 14.4846 27.2638C14.6189 27.2382 14.7537 27.2223 14.8889 27.216C15.0434 27.2088 15.169 27.203 15.2656 27.1985C15.4385 27.1711 15.684 27.2468 16.0021 27.4256C16.3385 27.5842 16.6772 27.7911 17.0182 28.0463C17.3775 28.2813 17.7079 28.5176 18.0093 28.7552C18.3107 28.9929 18.5221 29.1669 18.6434 29.2775ZM13.3505 28.478C13.4682 28.5113 13.5012 28.5968 13.4495 28.7348C13.397 28.8533 13.3154 28.9733 13.2049 29.0946C13.0935 29.1965 12.9711 29.27 12.8377 29.3149C12.7236 29.3589 12.644 29.3142 12.5991 29.1808C12.636 29.1404 12.6838 29.1285 12.7427 29.1451C12.8015 29.1617 12.8107 29.1516 12.7703 29.1148C12.7096 29.0595 12.7451 28.9901 12.8768 28.9066C13.0084 28.823 13.0632 28.7527 13.0412 28.6957C13.0174 28.6 12.9976 28.5912 12.9819 28.6694C12.9653 28.7282 12.9266 28.73 12.866 28.6748C12.8633 28.6168 12.9006 28.586 12.9779 28.5824C13.0735 28.5586 13.1513 28.5647 13.211 28.6007C13.1953 28.6788 13.1782 28.728 13.1598 28.7482C13.1607 28.7675 13.1896 28.7662 13.2467 28.7442C13.3222 28.702 13.3489 28.6523 13.3269 28.5953C13.3049 28.5382 13.3127 28.4991 13.3505 28.478ZM12.1234 30.1902C12.1611 30.169 12.1997 30.1673 12.2393 30.1848C12.2779 30.183 12.2981 30.2014 12.2999 30.24C12.2824 30.2796 12.2745 30.3186 12.2763 30.3573C12.2965 30.3757 12.2878 30.3955 12.25 30.4166C12.1939 30.4579 12.1644 30.4496 12.1618 30.3916C12.1582 30.3144 12.1454 30.2472 12.1234 30.1902ZM13.9796 33.269C13.7864 33.278 13.6389 33.2267 13.5369 33.1153C13.4533 32.9837 13.4075 32.831 13.3995 32.6571C13.3842 32.3287 13.4976 32.0621 13.7398 31.8573C13.9442 31.6736 14.1162 31.6269 14.2559 31.7172C14.4141 31.7873 14.5928 31.8854 14.7923 32.0117C14.9136 32.1222 14.9576 32.2363 14.9243 32.354C14.9104 32.4708 14.868 32.5986 14.797 32.7374C14.7444 32.856 14.6923 32.9842 14.6406 33.1221C14.589 33.26 14.5957 33.4049 14.6608 33.5567C14.7233 33.6506 14.6918 33.807 14.5665 34.0257C14.4595 34.2243 14.3784 34.3539 14.3232 34.4145C14.311 34.5699 14.298 34.706 14.2841 34.8228C14.2895 34.9387 14.2571 35.0758 14.187 35.2339C13.9979 35.746 13.8184 36.2576 13.6486 36.7688C13.498 37.2791 13.3089 37.7912 13.0811 38.3051C12.8866 38.7013 12.6433 39.0901 12.3513 39.4715C12.0777 39.8326 11.9126 40.2372 11.856 40.685C11.8384 40.7246 11.8034 40.8036 11.7508 40.9222C11.7176 41.0399 11.6655 41.1681 11.5945 41.307C11.5428 41.4449 11.4907 41.5731 11.4381 41.6917C11.404 41.7901 11.3773 41.8397 11.3579 41.8406C11.2456 41.9233 11.1452 42.0538 11.0567 42.2321C10.9673 42.3911 10.8788 42.5694 10.7912 42.7671C10.722 42.9445 10.6432 43.1224 10.5547 43.3008C10.4855 43.4782 10.4145 43.617 10.3417 43.7172C10.1944 43.8789 10.0571 44.0498 9.92998 44.2299C9.80194 44.3908 9.73365 44.5875 9.7251 44.8202C9.69724 45.0538 9.61884 45.2413 9.48991 45.3828C9.36098 45.5243 9.26281 45.7031 9.19542 45.9192C9.14734 46.1344 9.09881 46.3399 9.04984 46.5357C9.01928 46.7114 8.90001 46.8524 8.69201 46.9589C8.55949 47.0231 8.41507 47.0395 8.25874 47.008C8.12173 46.9757 7.99303 46.9139 7.87264 46.8227C7.75226 46.7315 7.66916 46.6096 7.62335 46.4568C7.57754 46.3041 7.58001 46.1491 7.63078 45.9919C7.68604 45.9312 7.75096 45.8701 7.82553 45.8086C7.89921 45.7278 7.92414 45.6395 7.90034 45.5438C7.87654 45.4481 7.86284 45.3616 7.85925 45.2844C7.85476 45.1878 7.88936 45.0991 7.96303 45.0182C8.06906 44.8003 8.18564 44.6013 8.31278 44.4212C8.43902 44.2218 8.5455 44.0136 8.63221 43.7966C8.75755 43.5778 8.84337 43.3415 8.88965 43.0877C8.93503 42.8146 9.04982 42.577 9.23401 42.3748C9.38136 42.2131 9.49008 42.0532 9.56017 41.8951C9.63026 41.737 9.69024 41.5696 9.74011 41.3931C9.8093 41.2157 9.86883 41.0387 9.9187 40.8621C9.98789 40.6847 10.0861 40.5059 10.2132 40.3258L10.8628 39.3083C11.0582 38.9315 11.2353 38.5748 11.3938 38.2383C11.5709 37.8817 11.7281 37.5162 11.8656 37.142C11.8988 37.0243 11.9909 36.9233 12.1419 36.8388C12.2367 36.7957 12.2726 36.736 12.2497 36.6596C12.2268 36.5832 12.2135 36.5064 12.21 36.4291C12.2333 36.099 12.3423 35.7358 12.5368 35.3396C12.7304 34.9241 12.9782 34.6319 13.2801 34.463C13.4319 34.3978 13.5741 34.3332 13.7066 34.2689C13.8392 34.2047 13.951 34.1124 14.0422 33.992C14.1694 33.8119 14.2022 33.6845 14.1406 33.6099C14.0791 33.5354 14.0254 33.4217 13.9796 33.269ZM8.53829 48.6502C8.63577 48.665 8.71349 48.6711 8.77144 48.6684C8.8496 48.6841 8.92821 48.7095 9.00727 48.7445C8.98975 48.7841 8.9336 48.8254 8.83881 48.8685C8.74492 48.931 8.65013 48.9741 8.55445 48.9979C8.47808 49.0208 8.41047 49.0239 8.35162 49.0073C8.29367 49.01 8.28222 48.9718 8.31726 48.8927C8.35231 48.8137 8.38914 48.7733 8.42778 48.7715C8.46731 48.789 8.50415 48.7486 8.53829 48.6502Z" fill="#591C01"/>
<path d="M34.8348 39.6767C34.6852 40.2064 34.5439 40.7066 34.4109 41.1773C34.2779 41.6481 34.0566 42.0939 33.7471 42.5148C33.6927 42.5948 33.6366 42.6361 33.5786 42.6388C33.5198 42.6222 33.4609 42.6056 33.4021 42.5889C33.3423 42.553 33.2932 42.5359 33.2545 42.5377C33.215 42.5202 33.1874 42.5505 33.1716 42.6287C33.1559 42.7069 33.1683 42.7644 33.2087 42.8012C33.2482 42.8187 33.2781 42.8367 33.2983 42.8551C33.3369 42.8533 33.3572 42.8717 33.359 42.9104C33.3598 42.9297 33.3235 42.9798 33.2498 43.0606C33.1577 43.1617 33.0651 43.2531 32.9722 43.3349C32.8783 43.3973 32.7853 43.479 32.6932 43.5801C32.6563 43.6205 32.6112 43.6904 32.5577 43.7897C32.5034 43.8696 32.4402 43.9693 32.3684 44.0888C32.2956 44.189 32.2233 44.2988 32.1514 44.4183C32.0786 44.5185 32.0141 44.5892 31.958 44.6306C31.8097 44.773 31.5943 44.9282 31.3117 45.0962C31.0283 45.2448 30.8502 45.3693 30.7774 45.4694C30.7073 45.6276 30.5595 45.7796 30.334 45.9256C30.1287 46.09 29.9032 46.236 29.6574 46.3635C29.4126 46.5104 29.1664 46.6283 28.9189 46.7173C28.6916 46.8246 28.5301 46.8902 28.4344 46.914C28.0508 46.9899 27.7154 47.0635 27.4284 47.135C27.1606 47.2055 26.8134 47.2313 26.3866 47.2124C26.1917 47.1827 25.9493 47.1746 25.6596 47.1881C25.3891 47.2007 25.1647 47.1627 24.9864 47.0742C24.8072 46.9664 24.6459 46.8287 24.5026 46.6611C24.3786 46.4926 24.2643 46.3237 24.1597 46.1544C24.055 45.985 23.9775 45.7757 23.9272 45.5263C23.8963 45.2761 23.8745 45.0158 23.8619 44.7454C23.8467 44.417 23.8498 44.0684 23.8714 43.6996C23.9123 43.3299 23.973 42.9689 24.0534 42.6168C24.132 42.2259 24.2751 41.7644 24.4827 41.2321C24.6903 40.6998 24.9616 40.2903 25.2967 40.0037C25.445 39.8613 25.5476 39.7791 25.6047 39.7571C25.6802 39.7149 25.7626 39.6143 25.852 39.4553C25.9055 39.356 25.9612 39.305 26.0191 39.3023C26.0964 39.2987 26.1649 39.3149 26.2246 39.3508C26.3037 39.3859 26.3731 39.4214 26.4328 39.4573C26.511 39.473 26.5777 39.4506 26.633 39.3899C26.7067 39.3091 26.7228 39.2406 26.6815 39.1844C26.6586 39.108 26.6164 39.0326 26.5548 38.958C26.4933 38.8834 26.4414 38.8084 26.3992 38.7329C26.357 38.6575 26.3626 38.5701 26.4161 38.4708C26.5634 38.3091 26.695 38.2256 26.8109 38.2202C26.9259 38.1955 27.0681 38.1308 27.2375 38.0261C27.3884 37.9417 27.5385 37.8379 27.6876 37.7148C27.8552 37.5716 28.0144 37.4577 28.1654 37.3732C28.3347 37.2686 28.4962 37.203 28.6499 37.1765C28.8035 37.15 28.9506 37.1916 29.0912 37.3012C29.2529 37.4485 29.325 37.542 29.3075 37.5815C29.2891 37.6017 29.3686 37.6464 29.546 37.7156C29.6637 37.7489 29.7551 37.8414 29.8203 37.9933C29.8854 38.1451 29.9317 38.3075 29.959 38.4804C29.9864 38.6534 29.9849 38.8277 29.9543 39.0033C29.9431 39.1781 29.9103 39.3054 29.8559 39.3854C29.8209 39.4644 29.7748 39.515 29.7178 39.537C29.68 39.5581 29.6722 39.5972 29.6942 39.6542C29.7382 39.7683 29.7141 39.8759 29.6221 39.977C29.5493 40.0772 29.4623 40.0812 29.3613 39.9891C29.24 39.8786 29.1113 39.8168 28.9752 39.8038C28.8584 39.7899 28.7937 39.6477 28.7811 39.3772C28.7793 39.3386 28.767 39.2811 28.7441 39.2047C28.7396 39.1082 28.7259 39.0217 28.703 38.9453C28.6801 38.8689 28.6484 38.8123 28.608 38.7755C28.5667 38.7193 28.5083 38.7124 28.4328 38.7546C28.3196 38.8179 28.1981 38.9107 28.0683 39.0329C27.9577 39.1542 27.8468 39.2658 27.7354 39.3678C27.6433 39.4688 27.5503 39.5506 27.4564 39.613C27.3625 39.6754 27.2852 39.679 27.2246 39.6238L26.9504 39.3461C26.8003 39.4499 26.7165 39.5216 26.699 39.5611C26.7008 39.5997 26.7224 39.6471 26.7637 39.7033C26.8234 39.7392 26.8836 39.7848 26.9443 39.8401C27.0233 39.8751 27.0651 39.9409 27.0696 40.0375C27.0741 40.1341 27.0496 40.232 26.9961 40.3313C26.9427 40.4306 26.8791 40.5206 26.8054 40.6015C26.659 40.7825 26.5107 40.9249 26.3607 41.0287C26.2299 41.1315 26.1313 41.3007 26.0648 41.536C25.9696 41.9857 25.8146 42.3994 25.5998 42.7772C25.3851 43.155 25.2406 43.5876 25.1665 44.075C25.1413 44.3665 25.1359 44.6668 25.1503 44.9759C25.1839 45.2841 25.3589 45.5082 25.6751 45.6484C25.9343 45.8106 26.2667 45.8822 26.6724 45.8634C27.0974 45.8437 27.5367 45.7168 27.9904 45.4828C28.1984 45.3763 28.4073 45.2892 28.6171 45.2213C28.8269 45.1535 29.0248 45.0379 29.2108 44.8744C29.4704 44.63 29.7595 44.3939 30.078 44.1662C30.3956 43.9192 30.6834 43.6541 30.9412 43.3711C30.9781 43.3307 31.0333 43.2701 31.107 43.1892C31.1991 43.0881 31.2921 43.0064 31.386 42.944C31.479 42.8622 31.5637 42.8099 31.64 42.787C31.7164 42.7641 31.7564 42.7912 31.76 42.8685C31.7627 42.9265 31.7263 42.9765 31.6508 43.0188C31.5744 43.0417 31.5758 43.0706 31.6548 43.1057C31.7927 43.1574 31.9271 43.1318 32.0578 43.0289C32.2069 42.9058 32.3451 42.7542 32.4722 42.5741C32.5993 42.3939 32.7072 42.2147 32.7957 42.0364C32.9026 41.8378 32.992 41.6788 33.0639 41.5593C33.1717 41.3801 33.2699 41.2013 33.3584 41.023C33.4653 40.8244 33.5437 40.6369 33.5936 40.4603C33.6425 40.2645 33.6437 40.0805 33.597 39.9085C33.5687 39.7162 33.4728 39.5271 33.3093 39.3411C33.188 39.2306 33.1357 39.1459 33.1523 39.087C33.1689 39.0282 33.1956 38.9786 33.2325 38.9381C33.2886 38.8968 33.3351 38.8559 33.372 38.8155C33.4079 38.7558 33.3942 38.6693 33.3309 38.5561C33.2675 38.4429 33.2078 38.4069 33.1516 38.4483C33.0946 38.4703 33.0389 38.5213 32.9845 38.6012C32.9293 38.6619 32.8547 38.7234 32.7608 38.7858C32.6669 38.8483 32.551 38.8536 32.4131 38.802C32.2568 38.7705 32.2058 38.7148 32.2602 38.6349C32.3145 38.5549 32.3105 38.468 32.248 38.3741C32.2058 38.2986 32.1277 38.2829 32.0136 38.3269C31.8986 38.3516 31.8231 38.3938 31.7871 38.4536C31.7503 38.494 31.7521 38.5326 31.7925 38.5695C31.8514 38.5861 31.8523 38.6054 31.7952 38.6274C31.7382 38.6494 31.6991 38.6416 31.678 38.6038C31.6569 38.5661 31.6358 38.5284 31.6146 38.4906C31.5926 38.4336 31.5715 38.3958 31.5513 38.3774C31.5302 38.3397 31.5012 38.341 31.4644 38.3815C31.3723 38.4825 31.3184 38.5721 31.3026 38.6503C31.3053 38.7083 31.3085 38.7759 31.3121 38.8531C31.3148 38.9111 31.299 38.9892 31.2649 39.0876C31.2307 39.186 31.1492 39.3059 31.0203 39.4474C30.9098 39.5687 30.808 39.6702 30.715 39.752C30.6404 39.8135 30.5526 39.7983 30.4515 39.7062C30.3918 39.6702 30.4006 39.6504 30.4778 39.6469C30.5542 39.624 30.5814 39.584 30.5594 39.5269C30.4475 39.203 30.3894 38.9928 30.3849 38.8962C30.3804 38.7996 30.4325 38.6714 30.5412 38.5115C30.6859 38.2918 30.8631 38.1481 31.0729 38.0802C31.1493 38.0573 31.2072 38.0546 31.2468 38.0722C31.2863 38.0897 31.3166 38.1173 31.3377 38.155C31.3781 38.1919 31.4085 38.2195 31.4287 38.2379C31.4489 38.2564 31.4866 38.2352 31.5419 38.1746C31.5971 38.114 31.5852 38.0661 31.5062 38.0311C31.4455 37.9758 31.453 37.9271 31.5284 37.8849C31.5662 37.8637 31.6066 37.9006 31.6497 37.9954C31.7112 38.0699 31.7701 38.0866 31.8262 38.0452C31.9403 38.0012 32.0039 37.9112 32.017 37.775C32.0484 37.6187 32.1308 37.5181 32.2643 37.4732C32.3406 37.4503 32.4565 37.4449 32.612 37.457C32.7674 37.4692 32.9329 37.4905 33.1086 37.5211C33.2842 37.5516 33.4506 37.5923 33.6079 37.6431C33.7651 37.6938 33.8837 37.7464 33.9636 37.8008C34.0822 37.8533 34.1626 37.9173 34.2049 37.9928C34.2655 38.0481 34.3077 38.1235 34.3315 38.2192C34.3738 38.2947 34.4068 38.3803 34.4306 38.476C34.4728 38.5514 34.5348 38.6357 34.6165 38.7286C34.7203 38.8787 34.7951 39.0301 34.8409 39.1828C34.8858 39.3162 34.8838 39.4809 34.8348 39.6767Z" fill="#591C01"/>
<path d="M54.1991 38.4008C54.28 38.4745 54.3345 38.6075 54.3628 38.7998C54.3902 38.9727 54.3895 39.1663 54.3608 39.3806C54.332 39.5949 54.2747 39.8202 54.1889 40.0564C54.1224 40.2918 54.0256 40.4996 53.8985 40.6797C53.8064 40.7808 53.752 40.8607 53.7354 40.9196C53.7372 40.9582 53.703 41.0566 53.6329 41.2147C53.5988 41.3131 53.5826 41.3816 53.5844 41.4202C53.6055 41.458 53.5687 41.4984 53.4739 41.5415C53.3984 41.5837 53.3629 41.6531 53.3674 41.7497C53.371 41.827 53.3751 41.9139 53.3795 42.0105C53.4024 42.0869 53.4258 42.1729 53.4496 42.2686C53.4725 42.345 53.4563 42.4135 53.4011 42.4741C53.3642 42.5145 53.2721 42.6156 53.1248 42.7773C52.9968 42.9381 52.9635 43.0558 53.025 43.1304C53.0655 43.1672 53.0944 43.1659 53.112 43.1264C53.1479 43.0666 53.1769 43.0653 53.1989 43.1223C53.242 43.2171 53.2175 43.315 53.1254 43.4161C53.0518 43.497 52.9978 43.5866 52.9637 43.6849C52.9637 43.6849 52.9848 43.7227 53.027 43.7982C53.0877 43.8534 53.1488 43.9183 53.2103 43.9929C53.2718 44.0675 53.3334 44.142 53.3949 44.2166C53.4749 44.271 53.525 44.3074 53.5452 44.3258C53.6858 44.4354 53.7749 44.4797 53.8127 44.4585C53.8697 44.4365 53.9032 44.5318 53.9131 44.7443C53.922 44.9374 53.9072 45.0349 53.8686 45.0367C53.8502 45.0569 53.7756 45.1184 53.6449 45.2213C53.5703 45.2829 53.4935 45.2961 53.4144 45.2611C53.3547 45.2251 53.2848 45.18 53.2049 45.1256C53.1442 45.0703 53.0739 45.0155 52.994 44.9612C52.9342 44.9252 52.8763 44.9279 52.8201 44.9693C52.7833 45.0097 52.7671 45.0782 52.7716 45.1748C52.777 45.2907 52.7599 45.3399 52.7204 45.3223C52.6615 45.3057 52.5521 45.243 52.3922 45.1343C52.2332 45.0449 52.144 45.0007 52.1247 45.0016C52.1036 44.9638 52.0913 44.9063 52.0877 44.8291C52.0841 44.7518 52.0809 44.6842 52.0782 44.6262C52.0746 44.549 52.0623 44.4915 52.0412 44.4537C52.0192 44.3967 51.9796 44.3792 51.9226 44.4012C51.8655 44.4232 51.8388 44.4728 51.8424 44.5501C51.8644 44.6071 51.8543 44.5979 51.8121 44.5225C51.769 44.4277 51.7425 44.274 51.7326 44.0616C51.7227 43.8491 51.7216 43.6168 51.7293 43.3648C51.7553 43.0926 51.7814 42.8204 51.8075 42.5481C51.852 42.2557 51.8982 42.0019 51.9463 41.7867C51.9787 41.6497 52.0216 41.5316 52.075 41.4323C52.1276 41.3137 52.1705 41.1956 52.2038 41.0779C52.2563 40.9593 52.3282 40.8398 52.4194 40.7194C52.5097 40.5797 52.5811 40.4505 52.6337 40.332C52.7047 40.1932 52.7471 40.0654 52.7611 39.9486C52.7943 39.8309 52.7701 39.7255 52.6883 39.6325C52.647 39.5764 52.5684 39.551 52.4525 39.5564C52.3559 39.5609 52.28 39.5934 52.2247 39.6541C52.1326 39.7551 52.0484 39.8171 51.972 39.84C51.8957 39.8629 51.8004 39.8964 51.6863 39.9404C51.3063 40.0936 50.957 40.284 50.6385 40.5118C50.32 40.7395 49.9826 40.9778 49.6264 41.2266C49.4202 41.3717 49.1762 41.5379 48.8946 41.7252C48.6129 41.9125 48.4273 42.0857 48.3379 42.2447C48.1529 42.4276 47.9664 42.5814 47.7786 42.7063C47.6102 42.8303 47.433 42.974 47.247 43.1375C47.154 43.2193 47.061 43.301 46.968 43.3828C46.8943 43.4636 46.7903 43.5168 46.656 43.5424C46.5621 43.6049 46.4352 43.5817 46.2753 43.473C46.1145 43.345 45.9876 43.3218 45.8946 43.4036C45.8577 43.444 45.8499 43.4831 45.871 43.5208C45.8912 43.5393 45.9202 43.5379 45.9579 43.5168C45.9404 43.5563 45.9132 43.5963 45.8764 43.6367C45.8589 43.6763 45.8299 43.6776 45.7894 43.6408C45.6102 43.533 45.4853 43.3452 45.4148 43.0774C45.3636 42.8088 45.3133 42.5595 45.2639 42.3295C45.2585 42.2136 45.2509 42.0494 45.241 41.8369C45.2312 41.6244 45.2204 41.3926 45.2087 41.1415C45.2164 40.8895 45.2434 40.6366 45.2896 40.3828C45.335 40.1097 45.4208 39.8734 45.5471 39.6739C45.3539 39.6829 45.1533 39.7406 44.9453 39.8471C44.5855 40.0187 44.2243 40.1613 43.8618 40.2749C43.4993 40.3885 43.1302 40.5702 42.7547 40.82C42.5669 40.9448 42.3225 41.1014 42.0215 41.2896C41.7205 41.4778 41.4007 41.6766 41.062 41.8859C40.7223 42.0759 40.3731 42.2663 40.0141 42.4572C39.6736 42.6279 39.3796 42.7577 39.1321 42.8467C38.9232 42.9338 38.6963 43.0508 38.4515 43.1977C38.2057 43.3252 37.9573 43.3949 37.7062 43.4065C37.4165 43.42 37.1683 43.2863 36.9617 43.0056C36.8323 42.7212 36.7609 42.4341 36.7474 42.1444C36.7331 41.8353 36.7973 41.5517 36.9402 41.2934C37.0821 41.0158 37.2122 40.6903 37.3304 40.317C37.4485 39.9437 37.6062 39.5879 37.8035 39.2497C37.9122 39.0898 38.0213 38.9395 38.131 38.7989C38.2406 38.6583 38.3599 38.5173 38.4888 38.3758C38.5809 38.2747 38.6858 38.2408 38.8035 38.274C38.9203 38.288 39.0151 38.2448 39.0878 38.1447C39.1606 38.0445 39.1873 37.9949 39.168 37.9958C39.1671 37.9764 39.2334 37.9443 39.3668 37.8994C39.4809 37.8554 39.5458 37.7943 39.5616 37.7161C39.5957 37.6178 39.6197 37.5102 39.6337 37.3934C39.6292 37.2968 39.598 37.2499 39.54 37.2525C39.5005 37.235 39.4425 37.2377 39.3662 37.2606C39.2889 37.2642 39.2121 37.2775 39.1357 37.3004C39.0585 37.304 38.9895 37.2781 38.9289 37.2229C38.8471 37.1299 38.8637 37.071 38.9787 37.0463C39.1131 37.0207 39.1683 36.9601 39.1445 36.8644C39.1418 36.8065 39.1575 36.7283 39.1917 36.6299C39.2258 36.5315 39.2696 36.4327 39.3231 36.3334C39.3757 36.2148 39.4291 36.1156 39.4835 36.0356C39.5563 35.9354 39.6207 35.8647 39.6769 35.8234C39.7524 35.7811 39.8397 35.7868 39.939 35.8402C40.0383 35.8937 40.0699 35.9503 40.034 36.01C39.9999 36.1084 39.9437 36.1497 39.8655 36.134C39.7874 36.1183 39.7699 36.1578 39.813 36.2526C39.8552 36.3281 39.9145 36.3544 39.9909 36.3314C40.0672 36.3085 40.1339 36.2861 40.191 36.2641C40.2665 36.2219 40.324 36.2095 40.3635 36.227C40.4021 36.2252 40.4145 36.2827 40.4005 36.3995C40.37 36.5752 40.3302 36.7609 40.2812 36.9568C40.2507 37.1324 40.2109 37.3182 40.162 37.514C40.1121 37.6906 40.0631 37.8864 40.015 38.1016C39.9854 38.2966 39.9364 38.4924 39.8681 38.6892C39.7998 38.8859 39.7113 39.0643 39.6026 39.2242C39.5123 39.3639 39.382 39.4764 39.2117 39.5617C39.117 39.6049 39.0249 39.7059 38.9355 39.865C38.8654 40.0231 38.7957 40.1909 38.7265 40.3683C38.6574 40.5457 38.5978 40.7227 38.548 40.8993C38.5165 41.0556 38.4929 41.1728 38.4772 41.251C38.4457 41.4073 38.3936 41.5356 38.3208 41.6357C38.2481 41.7359 38.2245 41.8532 38.2501 41.9875C38.2537 42.0647 38.3309 42.0612 38.4819 41.9767C38.9082 41.5697 39.397 41.2567 39.9482 41.0375C40.4994 40.8183 41.029 40.5517 41.5371 40.2377C42.0268 39.944 42.516 39.6405 43.0047 39.3274C43.5128 39.0135 44.0214 38.7092 44.5303 38.4145C44.7383 38.308 44.9564 38.2108 45.1846 38.1228C45.4322 38.0338 45.6815 37.9835 45.9326 37.9719C46.2223 37.9584 46.4766 38.0143 46.6954 38.1397C46.9334 38.2641 47.09 38.5085 47.165 38.8728C47.1897 38.9878 47.1969 39.1424 47.1865 39.3364C47.1762 39.5305 47.1566 39.7347 47.1279 39.9489C47.0991 40.1632 47.0506 40.3687 46.9823 40.5655C46.9131 40.7429 46.8417 40.8721 46.768 40.9529C46.7127 41.0136 46.6685 41.1027 46.6352 41.2204C46.6011 41.3188 46.5863 41.4163 46.5907 41.5129C46.5952 41.6094 46.6181 41.6858 46.6595 41.742C46.6999 41.7788 46.7767 41.7656 46.8899 41.7022C47.1909 41.514 47.4616 41.2982 47.7019 41.0547C47.9414 40.7919 48.201 40.5476 48.4809 40.3216C48.7608 40.0957 49.0411 39.8794 49.3219 39.6728C49.6026 39.4662 49.8935 39.2687 50.1945 39.0805C50.5894 38.8299 51.0638 38.6239 51.6177 38.4627C52.1716 38.3015 52.6803 38.2101 53.1439 38.1885C53.6848 38.1634 54.0365 38.2342 54.1991 38.4008Z" fill="#591C01"/>
<path d="M65.9376 42.3264C66.0499 42.2437 66.1396 42.2976 66.2065 42.4881C66.2734 42.6786 66.2709 42.8335 66.199 42.953C66.1604 42.9548 66.1103 42.9184 66.0488 42.8439C66.0066 42.7684 65.9574 42.7513 65.9012 42.7927C65.8644 42.8331 65.8763 42.8809 65.9369 42.9362C65.9976 42.9914 66.0095 43.0393 65.9726 43.0797C65.9367 43.1395 65.8783 43.1325 65.7974 43.0588C65.735 42.9649 65.6757 42.9386 65.6196 42.98C65.4897 43.1021 65.4551 43.1909 65.5158 43.2461C65.5764 43.3014 65.54 43.3515 65.4066 43.3964C65.3109 43.4202 65.2442 43.4426 65.2065 43.4637C65.188 43.484 65.1692 43.4945 65.1499 43.4954C65.1305 43.4963 65.1016 43.4977 65.0629 43.4995C65.0436 43.5004 64.9944 43.4833 64.9154 43.4482C64.8749 43.4114 64.8464 43.4224 64.8298 43.4812C64.8132 43.5401 64.7754 43.5612 64.7166 43.5446C64.6577 43.528 64.6072 43.4819 64.565 43.4064C64.5219 43.3117 64.4722 43.2849 64.4161 43.3262C64.3213 43.3694 64.2375 43.441 64.1647 43.5412C64.1113 43.6405 64.0367 43.702 63.941 43.7258C63.7883 43.7716 63.7036 43.8239 63.687 43.8828C63.6897 43.9407 63.6229 43.9632 63.4868 43.9502C63.3314 43.938 63.2532 43.9223 63.2523 43.903C63.2514 43.8837 63.2036 43.8956 63.1088 43.9387C62.9579 44.0231 62.806 44.0883 62.6533 44.1341C62.4997 44.1606 62.346 44.1871 62.1924 44.2136C61.7508 44.2922 61.2555 44.2571 60.7066 44.1084C60.1577 43.9596 59.5591 43.7842 58.9109 43.582C58.6544 43.4778 58.3979 43.3735 58.1414 43.2693C57.8849 43.1651 57.6547 43.0016 57.4507 42.7787C57.2459 42.5366 57.0467 42.2071 56.8531 41.7902C56.6586 41.354 56.6117 40.969 56.7123 40.6352C56.7797 40.4192 56.866 40.1925 56.9711 39.9554C57.0762 39.7182 57.1529 39.492 57.2009 39.2768C57.2342 39.1591 57.2578 39.0419 57.2717 38.9251C57.3049 38.8074 57.3483 38.6989 57.4018 38.5996C57.4921 38.4599 57.5864 38.4072 57.6848 38.4413C57.7823 38.4561 57.8876 38.4319 58.0008 38.3686C58.1518 38.2841 58.2438 38.183 58.2771 38.0653C58.3288 37.9274 58.4296 37.8066 58.5797 37.7028C58.6727 37.6211 58.7762 37.5582 58.8903 37.5142C59.0035 37.4508 59.0671 37.3608 59.081 37.244C59.0783 37.186 59.037 37.1299 58.957 37.0755C58.8955 37.001 58.8248 36.9365 58.7448 36.8821C58.6639 36.8084 58.6024 36.7339 58.5602 36.6584C58.518 36.5829 58.5236 36.4956 58.577 36.3963C58.6489 36.2768 58.7327 36.2052 58.8284 36.1813C58.9425 36.1373 59.0663 36.0929 59.1997 36.0479C59.3515 35.9828 59.4697 36.0257 59.5541 36.1767C59.657 36.3074 59.7497 36.4289 59.8324 36.5412C60.0381 36.8027 60.0862 37.0037 59.9765 37.1443C59.8853 37.2647 59.7683 37.454 59.6254 37.7123C59.536 37.8713 59.4581 38.0685 59.3916 38.3039C59.3444 38.5384 59.2467 38.7269 59.0985 38.8693C58.987 38.9712 58.8945 39.0626 58.8208 39.1435C58.7665 39.2235 58.7236 39.3416 58.6921 39.4979C58.6274 39.7719 58.6254 39.9366 58.686 39.9918C58.7467 40.0471 58.9003 40.0206 59.1469 39.9124C59.7884 39.5535 60.3666 39.0814 60.8814 38.4961C61.4156 37.9099 61.8403 37.261 62.1557 36.5494C62.1917 36.4897 62.2539 36.3706 62.3424 36.1923C62.43 35.9947 62.5084 35.8071 62.5776 35.6297C62.6459 35.4329 62.6958 35.2564 62.7272 35.1001C62.7587 34.9437 62.7353 34.8577 62.6572 34.842C62.4236 34.8141 62.1826 34.835 61.9341 34.9046C61.705 34.9733 61.5274 35.1074 61.4011 35.3069C61.3283 35.407 61.2666 35.5357 61.2158 35.6929C61.1843 35.8493 61.1093 35.9012 60.9907 35.8486C60.8528 35.7969 60.7167 35.7839 60.5824 35.8095C60.4674 35.8342 60.3427 35.8593 60.2084 35.8849C60.0934 35.9096 59.9683 35.9251 59.8331 35.9314C59.697 35.9184 59.5393 35.8579 59.3601 35.7501C59.3003 35.7142 59.288 35.6567 59.323 35.5776C59.3765 35.4783 59.4493 35.3782 59.5413 35.2771C59.6528 35.1751 59.7646 35.0828 59.8769 35.0002C59.9892 34.9175 60.0836 34.8648 60.1599 34.8418L61.1795 33.662C61.2936 33.618 61.3972 33.5551 61.4902 33.4734C61.6025 33.3907 61.7253 33.3269 61.8587 33.282C61.9922 33.2371 62.1085 33.2414 62.2078 33.2948C62.3264 33.3474 62.4427 33.3517 62.5568 33.3077C62.7473 33.2407 62.8526 33.2165 62.8729 33.2349C62.9115 33.2331 63.0117 33.3059 63.1734 33.4532L63.8984 34.0584C63.959 34.1136 63.9824 34.1997 63.9684 34.3165C63.9738 34.4324 63.97 34.5584 63.957 34.6945C63.943 34.8113 63.9291 34.9281 63.9152 35.0449C63.9197 35.1414 63.9513 35.1981 64.0102 35.2147C64.1086 35.2488 64.1609 35.3335 64.1672 35.4687C64.1726 35.5846 64.1503 35.7308 64.1004 35.9074C64.069 36.0637 64.0182 36.2209 63.9481 36.379C63.8965 36.517 63.8527 36.6158 63.8167 36.6755C63.6222 37.0717 63.3982 37.4596 63.1448 37.8392C62.8915 38.2188 62.6192 38.6089 62.3281 39.0096C62.2553 39.1098 62.2032 39.238 62.1718 39.3943C62.1403 39.5507 62.0666 39.6315 61.9507 39.6369C61.8541 39.6414 61.7124 39.7157 61.5255 39.8599C61.3571 39.9839 61.1706 40.1377 60.9662 40.3215C60.7618 40.5052 60.5574 40.6889 60.353 40.8726C60.1679 41.0554 60.0197 41.1978 59.9083 41.2998C59.8162 41.4009 59.703 41.4642 59.5686 41.4898C59.4334 41.4961 59.3092 41.5309 59.196 41.5942C59.0451 41.6787 58.9227 41.7521 58.8288 41.8146C58.7533 41.8568 58.8254 41.9502 59.0451 42.0949L59.824 42.6104C60.1025 42.7717 60.4266 42.8728 60.7963 42.9137C61.1844 42.9344 61.5427 42.9371 61.871 42.9218L62.7706 42.9091C62.9445 42.901 63.1179 42.8832 63.2908 42.8559C63.4638 42.8285 63.6262 42.7822 63.778 42.7171C63.9298 42.6519 64.1594 42.5929 64.4667 42.5399C64.773 42.4676 65.0131 42.4274 65.187 42.4193C65.3415 42.4121 65.4385 42.4173 65.4781 42.4348C65.5176 42.4523 65.598 42.5164 65.7193 42.6269C65.7799 42.6821 65.808 42.6615 65.8035 42.5649C65.8184 42.4674 65.8631 42.3879 65.9376 42.3264ZM62.4502 37.2617C62.4133 37.3021 62.3576 37.3531 62.283 37.4146C62.2269 37.456 62.2195 37.5047 62.2608 37.5609C62.3426 37.6538 62.3931 37.6999 62.4124 37.699C62.451 37.6972 62.4787 37.6669 62.4953 37.608C62.5312 37.5483 62.5571 37.4793 62.5728 37.4012C62.6078 37.3221 62.6626 37.2518 62.7372 37.1903C62.8127 37.1481 62.8877 37.0962 62.9623 37.0346C63.0562 36.9722 63.14 36.9005 63.2136 36.8197C63.3601 36.6387 63.5061 36.448 63.6516 36.2476C63.8165 36.0464 63.8471 35.8708 63.7433 35.7207C63.6818 35.6461 63.6137 35.6396 63.5391 35.7012C63.4637 35.7434 63.39 35.8242 63.3181 35.9437C63.2462 36.0632 63.1748 36.1924 63.1038 36.3312C63.0328 36.47 62.9798 36.5789 62.9448 36.658C62.9079 36.6984 62.8531 36.7687 62.7804 36.8689C62.7269 36.9681 62.6799 36.9994 62.6395 36.9625C62.5789 36.9073 62.5324 36.9481 62.5 37.0851L62.4502 37.2617ZM66.4619 42.3601C66.7175 42.445 66.8751 42.5054 66.9349 42.5414C67.0139 42.5764 66.9223 42.6871 66.6599 42.8736C66.5396 42.7824 66.4495 42.7188 66.3898 42.6828C66.3484 42.6267 66.3725 42.5191 66.4619 42.3601Z" fill="#591C01"/>
<path d="M74.5756 41.4325C74.6529 41.4289 74.7328 41.4833 74.8155 41.5956C74.9175 41.707 74.9619 41.8307 74.9489 41.9668C74.9516 42.0248 74.9037 42.0367 74.8054 42.0026C74.707 41.9684 74.66 41.9996 74.6645 42.0962C74.6084 42.1375 74.5426 42.1793 74.4671 42.2215C74.4294 42.2426 74.3916 42.2638 74.3539 42.2849C74.3346 42.2858 74.3157 42.2963 74.2973 42.3165C74.2595 42.3376 74.2411 42.3579 74.242 42.3772C74.2236 42.3974 74.1288 42.4405 73.9577 42.5065C73.8058 42.5717 73.6255 42.6478 73.4166 42.7349C73.2077 42.8221 73.008 42.8991 72.8175 42.966C72.6464 43.0321 72.5318 43.0664 72.4739 43.0691C72.3395 43.0947 72.2746 43.1558 72.2791 43.2524C72.2836 43.349 72.2191 43.4197 72.0857 43.4646C71.9909 43.5077 71.8865 43.5513 71.7724 43.5953C71.6776 43.6384 71.5727 43.6724 71.4577 43.6971C71.3935 43.5645 71.3153 43.5488 71.2232 43.6499C71.2627 43.6674 71.283 43.6858 71.2838 43.7051C71.3041 43.7236 71.3243 43.742 71.3445 43.7604C71.1522 43.7887 70.999 43.8248 70.8849 43.8689C70.791 43.9313 70.637 43.9481 70.4227 43.9194C70.2268 43.8704 70.0245 43.8895 69.8156 43.9766C69.6269 44.0822 69.4333 44.0815 69.2347 43.9746C69.0564 43.8861 68.9075 43.8059 68.788 43.734C68.6878 43.6612 68.5881 43.5981 68.4888 43.5446C68.3886 43.4718 68.288 43.3894 68.187 43.2973C68.0859 43.2052 67.9738 43.0846 67.8507 42.9354C67.6275 42.7135 67.4916 42.4972 67.4431 42.2865C67.4184 42.1715 67.4056 42.1044 67.4047 42.085C67.4029 42.0464 67.3515 41.9811 67.2504 41.889C67.1898 41.8337 67.1866 41.7661 67.241 41.6861C67.3138 41.586 67.3299 41.5175 67.2895 41.4806C67.228 41.406 67.1586 41.3706 67.0813 41.3741C67.0225 41.3575 66.9733 41.3404 66.9337 41.3229C66.8942 41.3054 66.8735 41.2773 66.8717 41.2387C66.8691 41.1807 66.8931 41.0732 66.9439 40.9159C66.9798 40.8562 67.0092 40.8645 67.0321 40.9409C67.0541 40.9979 67.0858 41.0545 67.1271 41.1107C67.1676 41.1475 67.2159 41.1453 67.272 41.1039C67.3273 41.0433 67.3637 40.9932 67.3812 40.9537C67.4364 40.893 67.4443 40.854 67.4048 40.8364C67.3643 40.7996 67.305 40.7733 67.2269 40.7576C67.168 40.741 67.1092 40.7243 67.0503 40.7077C66.9915 40.6911 66.9612 40.6635 66.9594 40.6248C66.9917 40.4878 67.014 40.3416 67.0261 40.1862C67.0576 40.0299 67.0803 39.8933 67.0942 39.7765C67.0897 39.6799 67.1207 39.5139 67.1872 39.2785C67.2537 39.0432 67.3391 38.7972 67.4433 38.5407C67.5466 38.2649 67.6509 38.0084 67.756 37.7712C67.8795 37.5138 67.9966 37.3245 68.1071 37.2032C68.143 37.1435 68.1992 37.1021 68.2756 37.0792C68.3519 37.0563 68.4076 37.0053 68.4427 36.9263C68.36 36.814 68.3546 36.6981 68.4265 36.5786C68.573 36.3975 68.7852 36.1747 69.0633 35.9102C69.3405 35.6263 69.6107 35.4008 69.874 35.2337C69.9494 35.1915 70.0916 35.1268 70.3005 35.0396C70.5278 34.9323 70.7749 34.8337 71.0417 34.7439C71.3077 34.6347 71.5842 34.5444 71.8712 34.473C72.1583 34.4016 72.4081 34.361 72.6205 34.3511C72.7953 34.3624 72.9235 34.4145 73.0053 34.5075C73.087 34.6005 73.2245 34.6425 73.4177 34.6335C73.5336 34.6281 73.6214 34.6434 73.6811 34.6793C73.7593 34.6951 73.8393 34.7494 73.921 34.8424C73.9623 34.8986 73.9747 34.9561 73.9581 35.0149C73.9405 35.0544 73.9529 35.1119 73.9951 35.1874C74.1128 35.2207 74.1919 35.2557 74.2323 35.2925C74.3149 35.4048 74.3208 35.5304 74.2498 35.6692C74.1779 35.7887 74.164 35.9055 74.208 36.0196C74.3171 36.2855 74.3362 36.4879 74.2652 36.6267C74.2127 36.7453 74.0631 36.8587 73.8165 36.967C73.7603 37.0083 73.6954 37.0694 73.6217 37.1503C73.5664 37.2109 73.5595 37.2693 73.6008 37.3254C73.643 37.4009 73.6839 37.4474 73.7234 37.4649C73.7823 37.4816 73.8315 37.4986 73.871 37.5162C73.9096 37.5144 73.9294 37.5231 73.9303 37.5424C73.9312 37.5618 73.904 37.6017 73.8488 37.6624C73.776 37.7625 73.7414 37.8513 73.745 37.9285C73.7486 38.0058 73.6713 38.0094 73.5132 37.9393C73.4534 37.9034 73.3845 37.8775 73.3063 37.8618C73.2282 37.8461 73.1974 37.8088 73.214 37.7499C73.2113 37.692 73.2288 37.6525 73.2666 37.6313C73.3236 37.6093 73.371 37.5878 73.4088 37.5667C73.4658 37.5447 73.5035 37.5235 73.522 37.5033C73.5588 37.4629 73.5667 37.4238 73.5455 37.3861C73.3996 37.1606 73.3441 37.0083 73.3791 36.9292C73.4133 36.8308 73.5054 36.7298 73.6554 36.626C73.7116 36.5847 73.7954 36.513 73.9068 36.4111C74.0182 36.3091 74.0633 36.2393 74.0422 36.2015C73.9991 36.1067 73.9683 36.0694 73.9499 36.0897C73.9306 36.0906 73.9126 36.1204 73.896 36.1793C73.8785 36.2188 73.8513 36.2588 73.8145 36.2992C73.7776 36.3396 73.7298 36.3515 73.6709 36.3349C73.5726 36.3008 73.5124 36.2552 73.4904 36.1981C73.4683 36.1411 73.4463 36.084 73.4243 36.027C73.4216 35.969 73.3909 35.9317 73.332 35.9151C73.2925 35.8976 73.1959 35.9021 73.0423 35.9286C72.9852 35.9506 72.9729 35.8931 73.0052 35.7561C73.0367 35.5997 73.0506 35.4829 73.047 35.4057C72.8363 35.4542 72.6265 35.522 72.4177 35.6091C72.2088 35.6963 72.0003 35.7931 71.7923 35.8995C71.5843 36.006 71.426 36.1392 71.3173 36.2991C71.2085 36.459 71.0594 36.5821 70.8698 36.6683C70.775 36.7114 70.6508 36.7462 70.4972 36.7727C70.3426 36.7799 70.2723 36.7251 70.2863 36.6083C70.2827 36.5311 70.3164 36.423 70.3874 36.2842C70.4768 36.1252 70.4727 36.0383 70.3753 36.0234C70.3164 36.0068 70.24 36.0297 70.1462 36.0922C70.0707 36.1344 70.0145 36.1757 69.9777 36.2161C69.9233 36.2961 69.9467 36.3821 70.0478 36.4742C70.1479 36.547 70.1713 36.633 70.1178 36.7323C70.0091 36.8922 69.9653 36.991 69.9864 37.0288C70.0268 37.0656 69.9821 37.1451 69.8523 37.2673C69.7961 37.3086 69.747 37.2916 69.7047 37.2161C69.6625 37.1406 69.6133 37.1235 69.5572 37.1649C69.501 37.2062 69.5129 37.254 69.5929 37.3084C69.6719 37.3434 69.7032 37.3904 69.6865 37.4492C69.6533 37.5669 69.5915 37.6956 69.5012 37.8353C69.4109 37.975 69.3211 38.1244 69.2317 38.2834C69.1414 38.4231 69.0511 38.5628 68.9608 38.7025C68.8898 38.8413 68.8469 38.9595 68.832 39.0569C68.8006 39.2133 68.7613 39.4087 68.7141 39.6432C68.6853 39.8574 68.6478 40.0915 68.6015 40.3453C68.5736 40.5789 68.555 40.8024 68.5456 41.0157C68.5554 41.2282 68.5916 41.3814 68.654 41.4753C68.9505 42.0229 69.2959 42.3747 69.6903 42.5306C70.0847 42.6865 70.569 42.693 71.1431 42.5502C71.3924 42.4999 71.6316 42.4404 71.8607 42.3717C72.1082 42.2827 72.3558 42.1938 72.6033 42.1049L73.6356 41.8246C73.7506 41.7999 73.8647 41.7559 73.9779 41.6925C74.0911 41.6292 74.1969 41.6146 74.2953 41.6488L74.4166 41.7593C74.4525 41.6995 74.4687 41.631 74.4651 41.5538C74.4808 41.4756 74.5177 41.4352 74.5756 41.4325ZM76.1928 41.2412C76.0576 41.2475 75.979 41.2221 75.957 41.165C75.9341 41.0887 75.93 41.0018 75.9449 40.9043C76.0994 40.8971 76.1872 40.9124 76.2083 40.9501C76.2285 40.9685 76.2234 41.0656 76.1928 41.2412ZM75.3155 41.1077C75.4894 41.0997 75.5864 41.1048 75.6066 41.1232C75.6461 41.1408 75.6511 41.247 75.6214 41.442C75.5248 41.4465 75.4559 41.4206 75.4145 41.3645C75.3723 41.289 75.3393 41.2034 75.3155 41.1077ZM74.9867 41.5295C75.006 41.5286 75.0235 41.4891 75.0392 41.4109C75.0549 41.3328 75.0716 41.2739 75.0891 41.2344C75.1057 41.1756 75.1347 41.1742 75.176 41.2304C75.2164 41.2672 75.2715 41.4098 75.3411 41.6583C75.2656 41.7005 75.2481 41.74 75.2885 41.7768C75.328 41.7944 75.2903 41.8155 75.1753 41.8402C75.1156 41.8042 75.076 41.7867 75.0567 41.7876C75.0374 41.7885 75.0181 41.7894 74.9988 41.7903C74.9988 41.7903 74.9983 41.7806 74.9974 41.7613C74.9956 41.7227 74.992 41.6454 74.9867 41.5295Z" fill="#591C01"/>
<path d="M86.0731 46.4165C86.0821 46.6096 86.0699 46.765 86.0367 46.8827C86.0228 46.9995 85.9992 47.1168 85.9659 47.2345C85.952 47.3513 85.9385 47.4777 85.9255 47.6138C85.9318 47.7491 85.9684 47.9119 86.0353 48.1024C86.1691 48.4833 86.1934 49.0049 86.108 49.667C86.0428 50.3476 85.9311 51.069 85.773 51.8313C85.6148 52.5936 85.4456 53.3274 85.2655 54.0327C85.0862 54.7573 84.9485 55.3347 84.8523 55.7651C84.8218 55.9407 84.7359 56.177 84.5949 56.4739C84.474 56.7893 84.3237 57.0963 84.144 57.395C83.9845 57.7122 83.8048 58.0109 83.6049 58.2912C83.405 58.5715 83.2309 58.7829 83.0827 58.9253C82.9722 59.0465 82.8599 59.1292 82.7457 59.1732C82.651 59.2163 82.5589 59.3174 82.4695 59.4764C82.3801 59.6354 82.27 59.7664 82.1393 59.8692C82.0094 59.9914 81.8594 60.0952 81.6891 60.1805C81.5382 60.265 81.3872 60.3494 81.2363 60.4339C81.0863 60.5376 80.956 60.6501 80.8455 60.7714C80.8086 60.8119 80.7889 60.8031 80.7862 60.7451C80.8037 60.7056 80.7936 60.6964 80.7559 60.7175C80.7559 60.7175 80.7181 60.7386 80.6426 60.7808C80.5672 60.8231 80.482 60.8657 80.3873 60.9089C80.2934 60.9713 80.2087 61.0236 80.1332 61.0659C80.0577 61.1081 80.0104 61.1296 79.991 61.1305C79.8383 61.1763 79.6851 61.2125 79.5315 61.239C79.3981 61.2839 79.2628 61.2902 79.1258 61.2578C79.146 61.2763 79.1571 61.3048 79.1588 61.3434C79.1238 61.4225 79.0452 61.3971 78.923 61.2673C78.8008 61.1374 78.6822 61.0849 78.5672 61.1096C78.4136 61.1361 78.2508 61.1727 78.0787 61.2194C77.9067 61.2661 77.764 61.3211 77.6508 61.3844C77.556 61.4276 77.4696 61.4413 77.3914 61.4255C77.2939 61.4107 77.2061 61.3954 77.1279 61.3797C77.0102 61.3464 76.8737 61.3238 76.7182 61.3116C76.5628 61.2995 76.5311 61.2429 76.6232 61.1418C76.6601 61.1014 76.7369 61.0881 76.8537 61.1021C76.9705 61.116 77.0487 61.1317 77.0882 61.1492C77.1875 61.2027 77.2744 61.1987 77.349 61.1371C77.4051 61.0958 77.4516 61.0549 77.4884 61.0145C77.5069 60.9943 77.477 60.9763 77.3988 60.9606C77.3022 60.9651 77.1956 60.9604 77.0788 60.9464C76.9435 60.9527 76.8175 60.9489 76.7007 60.9349C76.5848 60.9403 76.4975 60.9347 76.4386 60.9181L75.7837 60.571C75.6651 60.5185 75.6339 60.4715 75.69 60.4302C75.7471 60.4082 75.7347 60.3507 75.653 60.2577C75.4306 60.0551 75.2644 59.8112 75.1544 59.5259C75.0259 59.2608 75.0354 59.0475 75.1827 58.8858C75.238 58.8251 75.233 58.7189 75.1679 58.567C75.1037 58.4345 75.1102 58.3665 75.1875 58.3629C75.2261 58.3611 75.284 58.3584 75.3613 58.3548C75.4386 58.3512 75.4666 58.3305 75.4455 58.2928C75.3804 58.141 75.289 58.0484 75.1713 58.0152C75.0536 57.9819 75.0303 57.8959 75.1012 57.7571C75.1354 57.6587 75.1313 57.5718 75.0891 57.4963C75.0469 57.4208 75.053 57.3431 75.1073 57.2632C75.1442 57.2227 75.2246 57.2868 75.3485 57.4552C75.4532 57.6246 75.5266 57.747 75.5689 57.8225C75.5918 57.8988 75.6037 57.9467 75.6046 57.966C75.6055 57.9853 75.6064 58.0046 75.6073 58.024C75.6082 58.0433 75.6192 58.0718 75.6403 58.1095C75.6421 58.1482 75.6737 58.2048 75.7353 58.2793C75.817 58.3723 75.8703 58.4763 75.895 58.5913C75.9206 58.7256 75.9554 58.8499 75.9994 58.964C76.0232 59.0596 76.0167 59.1277 75.9798 59.1681C75.9439 59.2279 75.9167 59.2679 75.8983 59.2881C75.8615 59.3285 75.8531 59.3579 75.8734 59.3763C75.8945 59.4141 75.9643 59.4592 76.0829 59.5118C76.2401 59.5626 76.3996 59.6616 76.5613 59.809C76.7046 59.9765 76.8425 60.0282 76.975 59.964C77.0891 59.92 77.2147 59.9141 77.3517 59.9465C77.4896 59.9981 77.6073 60.0314 77.7048 60.0462C78.0359 60.0889 78.3629 60.0447 78.6859 59.9135C79.0089 59.7824 79.3236 59.6806 79.6299 59.6083C79.9749 59.5342 80.3063 59.3737 80.6239 59.1266C80.9415 58.8795 81.2375 58.5851 81.512 58.2433C81.8067 57.9198 82.0716 57.5784 82.3065 57.2191C82.5424 56.879 82.7308 56.5605 82.8719 56.2636C83.2057 55.5319 83.4719 54.8032 83.6705 54.0778C83.8893 53.3707 84.0571 52.6079 84.174 51.7895C84.2535 51.418 84.2949 51.0579 84.298 50.7093C84.3012 50.3607 84.3241 50.0209 84.3668 49.6898C84.4261 49.2999 84.4486 48.9504 84.4342 48.6414C84.4392 48.3314 84.4349 48.0315 84.4215 47.7418C84.408 47.452 84.3941 47.1526 84.3798 46.8436C84.3847 46.5336 84.3971 46.1749 84.4169 45.7675C84.4236 45.4961 84.3868 45.1204 84.3064 44.6401C84.2463 44.1783 84.2002 43.8127 84.1683 43.5431C84.1585 43.3307 84.1652 43.0593 84.1886 42.7292C84.2111 42.3797 84.2336 42.0302 84.256 41.6807C84.2785 41.3312 84.2821 40.9923 84.2669 40.6639C84.27 40.3153 84.2377 40.0361 84.1699 39.8263C84.1223 39.6349 84.1133 39.4418 84.143 39.2468C84.1717 39.0325 84.1816 38.8288 84.1726 38.6357C84.1147 38.6383 84.0208 38.7008 83.891 38.823C83.7796 38.9249 83.6589 39.037 83.5291 39.1592C83.4186 39.2805 83.3076 39.3921 83.1962 39.4941C83.1041 39.5951 83.0581 39.6457 83.0581 39.6457C83.0792 39.6834 83.017 39.8024 82.8714 40.0028C82.7452 40.2022 82.5807 40.4131 82.3781 40.6355C82.1948 40.8569 82.0111 41.0687 81.8269 41.2709C81.6427 41.473 81.5028 41.586 81.4071 41.6098C81.2544 41.6556 81.0275 41.7726 80.7265 41.9608C80.4255 42.149 80.1043 42.3188 79.7629 42.4702C79.4215 42.6216 79.0972 42.7237 78.7899 42.7767C78.5019 42.8288 78.2854 42.7518 78.1403 42.5456C77.9759 42.3403 77.8506 42.1428 77.7644 41.9533C77.6781 41.7637 77.6867 41.531 77.79 41.2552C78.0843 40.5059 78.4102 39.8132 78.7678 39.1771C78.8572 39.0181 78.9734 38.8095 79.1162 38.5512C79.2582 38.2736 79.4103 38.0052 79.5725 37.746C79.7337 37.4675 79.8867 37.2184 80.0314 36.9987C80.1945 36.7588 80.3414 36.5875 80.4721 36.4846C80.5651 36.4028 80.6686 36.34 80.7827 36.2959C80.8968 36.2519 80.9999 36.1794 81.092 36.0783C81.2017 35.9377 81.32 35.7773 81.4472 35.5972C81.5927 35.3969 81.7493 35.2251 81.9169 35.0818C82.1028 34.9183 82.2911 34.803 82.4815 34.7361C82.672 34.6692 82.8665 34.6892 83.0651 34.7961C83.2811 34.8635 83.4516 34.9911 83.5765 35.1789C83.7207 35.3658 83.9105 35.4925 84.1459 35.559C84.224 35.5747 84.3202 35.5605 84.4343 35.5165C84.5484 35.4725 84.6634 35.4478 84.7793 35.4424C84.8943 35.4177 84.9917 35.4325 85.0717 35.4869C85.1517 35.5413 85.1961 35.665 85.2051 35.8582C85.2114 35.9934 85.2637 36.0781 85.3621 36.1122C85.4596 36.1271 85.5013 36.1929 85.4874 36.3097C85.4393 36.5248 85.411 36.7488 85.4025 36.9815C85.393 37.1948 85.3932 37.4078 85.4031 37.6203C85.4103 37.7748 85.4175 37.9293 85.4246 38.0839C85.4318 38.2384 85.4487 38.3925 85.4752 38.5461C85.5326 38.95 85.5686 39.3064 85.5829 39.6155C85.6166 39.9236 85.6406 40.2323 85.655 40.5413L85.7027 42.1942C85.7171 42.5033 85.7296 42.7737 85.7404 43.0055C85.7512 43.2373 85.7712 43.459 85.8004 43.6706C85.8304 43.9015 85.8605 44.1324 85.8906 44.3633C85.9409 44.6126 86.0031 44.9098 86.0772 45.2548L86.0731 46.4165ZM83.1808 37.2879C83.2815 36.9542 83.2431 36.7527 83.0656 36.6835C82.8882 36.6143 82.6643 36.586 82.3938 36.5986C82.2393 36.6058 82.1156 36.6502 82.0226 36.732C81.9296 36.8137 81.8476 36.924 81.7766 37.0628C81.7047 37.1823 81.6333 37.3114 81.5623 37.4503C81.5106 37.5882 81.4489 37.7169 81.377 37.8363C81.0526 38.3547 80.6984 38.8551 80.3143 39.3376C79.9486 39.7998 79.7028 40.3436 79.577 40.9689C79.8088 40.9581 80.0867 40.8968 80.4105 40.785C80.7538 40.6722 80.988 40.5065 81.1134 40.2877C81.1502 40.2473 81.2221 40.1278 81.329 39.9293C81.4553 39.7298 81.5907 39.5203 81.7354 39.3006C81.8791 39.0616 82.0146 38.8521 82.1417 38.6719C82.2873 38.4716 82.3881 38.3508 82.4443 38.3094C82.5373 38.2277 82.6658 38.0765 82.8297 37.856C83.013 37.6345 83.1301 37.4452 83.1808 37.2879ZM75.5939 56.4856C75.7098 56.4802 75.7796 56.5254 75.8034 56.6211C75.8079 56.7176 75.7839 56.8252 75.7313 56.9438C75.6787 57.0624 75.6055 57.1529 75.5116 57.2154C75.4186 57.2971 75.3322 57.3108 75.2522 57.2564C75.1704 57.1635 75.183 57.0177 75.29 56.8191C75.3776 56.6215 75.4789 56.5103 75.5939 56.4856ZM79.58 61.0335C79.6159 60.9737 79.6532 60.943 79.6919 60.9412C79.7314 60.9587 79.7498 60.9385 79.7471 60.8805C79.7462 60.8612 79.6975 60.8538 79.6009 60.8583C79.5236 60.8619 79.4367 60.8659 79.3401 60.8704C79.2444 60.8942 79.1483 60.9083 79.0517 60.9128C78.956 60.9366 78.9087 60.9582 78.9095 60.9775C78.8736 61.0373 78.8851 61.0754 78.9439 61.0921C79.0037 61.128 79.0722 61.1442 79.1494 61.1406C79.2469 61.1554 79.3338 61.1514 79.4102 61.1285C79.5059 61.1047 79.5625 61.073 79.58 61.0335ZM75.5292 56.3434C75.4739 56.4041 75.4191 56.4744 75.3648 56.5543C75.3104 56.6343 75.2774 56.5487 75.2657 56.2976C75.2981 56.1606 75.3731 56.1087 75.4908 56.1419C75.5901 56.1954 75.6029 56.2626 75.5292 56.3434ZM75.5589 55.7323C75.5607 55.7709 75.5533 55.8196 75.5366 55.8785C75.5209 55.9566 75.4937 55.9966 75.4551 55.9984C75.3962 55.9818 75.3738 55.9151 75.3877 55.7983C75.4016 55.6815 75.427 55.6029 75.4639 55.5624C75.5218 55.5598 75.5535 55.6164 75.5589 55.7323ZM78.1009 61.0732C77.9806 60.982 77.8817 60.9382 77.8045 60.9417C77.7088 60.9655 77.6618 60.9968 77.6636 61.0354C77.6654 61.074 77.744 61.0994 77.8995 61.1116C78.0549 61.1237 78.1221 61.1109 78.1009 61.0732Z" fill="#591C01"/>
<path d="M1.37067 27.4883C1.31266 27.4883 1.28365 27.4303 1.28365 27.3142C1.28365 27.1982 1.31266 27.1402 1.37067 27.1402C2.18283 27.1402 2.70494 27.0145 2.93699 26.7631C3.16904 26.5117 3.28506 25.9703 3.28506 25.1388V18.6125C3.28506 18.1484 3.23672 17.81 3.14003 17.5973C3.04334 17.3845 2.84997 17.2492 2.55991 17.1912C2.26985 17.1138 1.83476 17.0751 1.25464 17.0751C1.19663 17.0751 1.16763 17.0075 1.16763 16.8721C1.16763 16.7367 1.19663 16.6691 1.25464 16.6691C2.02814 16.6691 2.55024 16.5724 2.82096 16.379C3.09169 16.1856 3.23672 15.8472 3.25605 15.3638C3.35274 12.1538 3.94253 9.86233 5.02542 8.48938C6.12764 7.11643 7.70363 6.42996 9.75339 6.42996C10.7976 6.42996 11.6194 6.58466 12.2189 6.89405C12.8377 7.18411 13.1471 7.56119 13.1471 8.02529C13.1471 8.37336 13.0214 8.64408 12.77 8.83745C12.538 9.01149 12.2769 9.09851 11.9868 9.09851C11.6581 9.09851 11.4067 9.02116 11.2327 8.86646C11.0587 8.69242 10.875 8.47004 10.6816 8.19932C10.4495 7.83191 10.1885 7.54185 9.89842 7.32914C9.60836 7.09709 9.21194 6.98107 8.70917 6.98107C7.72297 6.98107 6.90114 7.5902 6.24367 8.80844C5.60554 10.0267 5.28647 12.0088 5.28647 14.7547V25.1388C5.28647 25.6996 5.34448 26.125 5.46051 26.4151C5.59587 26.7051 5.85692 26.8985 6.24367 26.9952C6.64975 27.0919 7.25888 27.1402 8.07104 27.1402C8.12905 27.1402 8.15806 27.1982 8.15806 27.3142C8.15806 27.4303 8.12905 27.4883 8.07104 27.4883C7.41357 27.4883 6.77544 27.4786 6.15665 27.4593C5.53786 27.4399 4.90939 27.4303 4.27126 27.4303C3.72982 27.4303 3.20771 27.4399 2.70494 27.4593C2.22151 27.4786 1.77675 27.4883 1.37067 27.4883ZM8.76719 17.7133C8.01303 17.5392 7.28788 17.4232 6.59174 17.3652C5.91493 17.3072 5.18978 17.2782 4.41629 17.2782V16.611C5.15111 16.611 5.87626 16.582 6.59174 16.524C7.30722 16.466 8.06137 16.3983 8.8542 16.321C8.91222 16.321 8.96056 16.3887 8.99923 16.524C9.03791 16.6594 9.05725 16.8141 9.05725 16.9881C9.05725 17.1428 9.01857 17.3072 8.94122 17.4812C8.88321 17.6553 8.8252 17.7326 8.76719 17.7133Z" fill="#591C01"/>
<path d="M16.3596 27.8364C15.1607 27.8364 14.1552 27.5753 13.343 27.0532C12.5309 26.5117 11.9121 25.8156 11.4866 24.9648C11.0806 24.1139 10.8775 23.2051 10.8775 22.2382C10.8775 21.078 11.1482 20.0338 11.6897 19.1056C12.2505 18.158 13.0046 17.4135 13.9521 16.8721C14.8997 16.3113 15.9536 16.0309 17.1138 16.0309C18.2354 16.0309 19.0959 16.3113 19.6953 16.8721C20.3141 17.4329 20.6235 18.2547 20.6235 19.3376C20.6235 19.589 20.5945 19.792 20.5365 19.9467C20.4978 20.0821 20.4108 20.1498 20.2754 20.1498H18.274C18.3514 18.9895 18.1967 18.1097 17.8099 17.5102C17.4425 16.9108 16.8817 16.611 16.1276 16.611C15.1801 16.611 14.4356 17.0171 13.8941 17.8293C13.372 18.6415 13.111 19.734 13.111 21.107C13.111 22.2092 13.285 23.1857 13.6331 24.0366C13.9812 24.8681 14.4936 25.5159 15.1704 25.98C15.8472 26.4441 16.669 26.6761 17.6359 26.6761C18.274 26.6761 18.7961 26.5891 19.2022 26.4151C19.6276 26.241 20.0627 26.0283 20.5075 25.7769C20.5462 25.7383 20.5945 25.7673 20.6525 25.8639C20.7299 25.9413 20.7492 26.009 20.7105 26.067C20.0144 26.7051 19.3086 27.1595 18.5931 27.4303C17.8776 27.701 17.1331 27.8364 16.3596 27.8364ZM12.4438 20.1788L12.4148 19.7437L18.9122 19.6277V20.1498L12.4438 20.1788Z" fill="#591C01"/>
<path d="M26.2643 19.6277L26.0902 19.3086C26.8251 18.4191 27.4342 17.7423 27.9176 17.2782C28.401 16.8141 28.8168 16.495 29.1649 16.321C29.5129 16.1276 29.8417 16.0309 30.1511 16.0309C30.5572 16.0309 30.9632 16.1566 31.3693 16.408C31.7754 16.6594 31.9784 16.9785 31.9784 17.3652C31.9784 17.6553 31.8818 17.9066 31.6884 18.1194C31.495 18.3127 31.234 18.4094 30.9052 18.4094C30.5958 18.4094 30.3444 18.3224 30.1511 18.1484C29.977 17.9743 29.7933 17.81 29.6 17.6553C29.4259 17.4812 29.1842 17.3942 28.8748 17.3942C28.7201 17.3942 28.5461 17.4426 28.3527 17.5392C28.1593 17.6359 27.8983 17.8486 27.5695 18.1774C27.2601 18.4868 26.8251 18.9702 26.2643 19.6277ZM23.1896 27.4883C23.1316 27.4883 23.1026 27.4303 23.1026 27.3142C23.1026 27.1982 23.1316 27.1402 23.1896 27.1402C23.8858 27.1402 24.3402 27.0145 24.5529 26.7631C24.785 26.4924 24.901 25.951 24.901 25.1388V19.4826C24.901 18.8638 24.8236 18.4094 24.6689 18.1194C24.5336 17.8293 24.2919 17.6843 23.9438 17.6843C23.7504 17.6843 23.528 17.7229 23.2767 17.8003C23.0253 17.8583 22.7352 17.955 22.4065 18.0904C22.3291 18.129 22.2711 18.1 22.2324 18.0033C22.1938 17.8873 22.2034 17.81 22.2614 17.7713L25.8292 16.0599C25.9065 16.0406 25.9645 16.0309 26.0032 16.0309C26.1773 16.0309 26.3706 16.2436 26.5833 16.6691C26.796 17.0945 26.9024 17.7036 26.9024 18.4964V25.1388C26.9024 25.6802 26.9701 26.096 27.1054 26.3861C27.2601 26.6761 27.5309 26.8792 27.9176 26.9952C28.3237 27.0919 28.9038 27.1402 29.658 27.1402C29.716 27.1402 29.745 27.1982 29.745 27.3142C29.745 27.4303 29.716 27.4883 29.658 27.4883C29.1552 27.4883 28.5847 27.4786 27.9466 27.4593C27.3085 27.4399 26.6317 27.4303 25.9162 27.4303C25.3941 27.4303 24.8913 27.4399 24.4079 27.4593C23.9438 27.4786 23.5377 27.4883 23.1896 27.4883Z" fill="#591C01"/>
<path d="M40.6627 27.4883C40.6046 27.4883 40.5756 27.4303 40.5756 27.3142C40.5756 27.1982 40.6046 27.1402 40.6627 27.1402C41.3588 27.1402 41.8132 27.0145 42.0259 26.7631C42.258 26.4924 42.374 25.951 42.374 25.1388V20.5849C42.374 19.4826 42.171 18.6705 41.7649 18.1484C41.3588 17.6069 40.711 17.3362 39.8215 17.3362C39.1447 17.3362 38.4582 17.5392 37.7621 17.9453C37.0852 18.3321 36.5051 18.8735 36.0217 19.5697L35.9057 19.2216C36.6985 18.1387 37.5107 17.3169 38.3422 16.7561C39.193 16.1953 40.0825 15.9149 41.0107 15.9149C42.0743 15.9149 42.8961 16.2243 43.4762 16.8431C44.0757 17.4619 44.3754 18.3417 44.3754 19.4826V25.1388C44.3754 25.951 44.4818 26.4924 44.6945 26.7631C44.9265 27.0145 45.4003 27.1402 46.1158 27.1402C46.1738 27.1402 46.2028 27.1982 46.2028 27.3142C46.2028 27.4303 46.1738 27.4883 46.1158 27.4883C45.7484 27.4883 45.3326 27.4786 44.8685 27.4593C44.4044 27.4399 43.9113 27.4303 43.3892 27.4303C42.8671 27.4303 42.3643 27.4399 41.8809 27.4593C41.4168 27.4786 41.0107 27.4883 40.6627 27.4883ZM32.86 27.4883C32.802 27.4883 32.773 27.4303 32.773 27.3142C32.773 27.1982 32.802 27.1402 32.86 27.1402C33.5562 27.1402 34.0106 27.0145 34.2233 26.7631C34.4554 26.4924 34.5714 25.951 34.5714 25.1388V19.4826C34.5714 18.8638 34.4941 18.4094 34.3394 18.1194C34.204 17.8293 33.9623 17.6843 33.6142 17.6843C33.4208 17.6843 33.1985 17.7229 32.9471 17.8003C32.6957 17.8583 32.4056 17.955 32.0769 18.0904C31.9995 18.129 31.9415 18.1 31.9029 18.0033C31.8642 17.8873 31.8738 17.81 31.9319 17.7713L35.4996 16.0599C35.5769 16.0406 35.635 16.0309 35.6736 16.0309C35.8477 16.0309 36.041 16.2436 36.2537 16.6691C36.4665 17.0945 36.5728 17.7036 36.5728 18.4964V25.1388C36.5728 25.951 36.6792 26.4924 36.8919 26.7631C37.1239 27.0145 37.5977 27.1402 38.3132 27.1402C38.3712 27.1402 38.4002 27.1982 38.4002 27.3142C38.4002 27.4303 38.3712 27.4883 38.3132 27.4883C37.9458 27.4883 37.53 27.4786 37.0659 27.4593C36.6018 27.4399 36.1087 27.4303 35.5866 27.4303C35.0645 27.4303 34.5617 27.4399 34.0783 27.4593C33.6142 27.4786 33.2081 27.4883 32.86 27.4883Z" fill="#591C01"/>
<path d="M55.5792 27.6623C55.5019 27.701 55.4148 27.7203 55.3182 27.7203C55.0281 27.7203 54.7477 27.5076 54.477 27.0822C54.2256 26.6374 54.0999 26.009 54.0999 25.1968V19.8887C54.0999 18.6898 53.9452 17.839 53.6358 17.3362C53.3458 16.8141 52.9397 16.553 52.4176 16.553C51.9341 16.553 51.5474 16.6884 51.2573 16.9591C50.9673 17.2105 50.7546 17.5102 50.6192 17.8583C50.5032 18.187 50.4162 18.4964 50.3581 18.7865C50.3195 19.1539 50.2034 19.4633 50.0101 19.7147C49.836 19.9661 49.5363 20.0918 49.1109 20.0918C48.7241 20.0918 48.4437 19.9951 48.2697 19.8017C48.0957 19.6083 48.0087 19.3956 48.0087 19.1636C48.0087 18.7575 48.1924 18.3707 48.5598 18.0033C48.9465 17.6359 49.4299 17.2975 50.0101 16.9881C50.5902 16.6787 51.1896 16.437 51.8084 16.263C52.4466 16.0889 53.017 16.0019 53.5198 16.0019C54.3126 16.0019 54.9314 16.263 55.3762 16.7851C55.8403 17.2879 56.0723 18.0323 56.0723 19.0185V24.3556C56.0723 24.9938 56.1593 25.4675 56.3334 25.7769C56.5074 26.0863 56.7878 26.241 57.1745 26.241C57.5033 26.241 57.9287 26.1347 58.4508 25.922C58.5282 25.8833 58.5862 25.922 58.6248 26.038C58.6828 26.1347 58.6635 26.2024 58.5668 26.241L55.5792 27.6623ZM50.2421 27.6913C49.4686 27.6913 48.8788 27.4979 48.4728 27.1112C48.086 26.7245 47.8926 26.241 47.8926 25.6609C47.8926 25.1968 48.0183 24.8101 48.2697 24.5007C48.5211 24.1719 48.8788 23.8819 49.3429 23.6305C49.8264 23.3791 50.4065 23.1277 51.0833 22.8763L54.39 21.6581L54.477 22.0352L51.8374 23.1084C51.5474 23.2244 51.2767 23.3598 51.0253 23.5145C50.7932 23.6692 50.5999 23.8625 50.4452 24.0946C50.2905 24.3073 50.2131 24.5683 50.2131 24.8777C50.2131 25.3418 50.3678 25.7286 50.6772 26.038C50.9866 26.328 51.3637 26.4731 51.8084 26.4731C51.9825 26.4731 52.1662 26.4441 52.3596 26.3861C52.5529 26.328 52.785 26.2217 53.0557 26.067L54.767 24.9938L54.8251 25.3999L52.7076 26.7921C52.2629 27.1209 51.8471 27.3529 51.4604 27.4883C51.093 27.6236 50.6869 27.6913 50.2421 27.6913Z" fill="#591C01"/>
<path d="M67.2437 27.4883C67.1857 27.4883 67.1567 27.4303 67.1567 27.3142C67.1567 27.1982 67.1857 27.1402 67.2437 27.1402C67.9398 27.1402 68.3943 27.0145 68.607 26.7631C68.839 26.4924 68.9551 25.951 68.9551 25.1388V20.5849C68.9551 19.4826 68.752 18.6705 68.3459 18.1484C67.9398 17.6069 67.292 17.3362 66.4025 17.3362C65.7257 17.3362 65.0393 17.5392 64.3431 17.9453C63.6663 18.3321 63.0862 18.8735 62.6028 19.5697L62.4867 19.2216C63.2796 18.1387 64.0917 17.3169 64.9232 16.7561C65.7741 16.1953 66.6636 15.9149 67.5918 15.9149C68.6553 15.9149 69.4772 16.2243 70.0573 16.8431C70.6567 17.4619 70.9565 18.3417 70.9565 19.4826V25.1388C70.9565 25.951 71.0628 26.4924 71.2755 26.7631C71.5076 27.0145 71.9813 27.1402 72.6968 27.1402C72.7548 27.1402 72.7838 27.1982 72.7838 27.3142C72.7838 27.4303 72.7548 27.4883 72.6968 27.4883C72.3294 27.4883 71.9137 27.4786 71.4496 27.4593C70.9855 27.4399 70.4924 27.4303 69.9703 27.4303C69.4482 27.4303 68.9454 27.4399 68.462 27.4593C67.9979 27.4786 67.5918 27.4883 67.2437 27.4883ZM59.4411 27.4883C59.3831 27.4883 59.3541 27.4303 59.3541 27.3142C59.3541 27.1982 59.3831 27.1402 59.4411 27.1402C60.1372 27.1402 60.5917 27.0145 60.8044 26.7631C61.0364 26.4924 61.1525 25.951 61.1525 25.1388V19.4826C61.1525 18.8638 61.0751 18.4094 60.9204 18.1194C60.785 17.8293 60.5433 17.6843 60.1953 17.6843C60.0019 17.6843 59.7795 17.7229 59.5281 17.8003C59.2767 17.8583 58.9867 17.955 58.6579 18.0904C58.5806 18.129 58.5226 18.1 58.4839 18.0033C58.4452 17.8873 58.4549 17.81 58.5129 17.7713L62.0806 16.0599C62.158 16.0406 62.216 16.0309 62.2547 16.0309C62.4287 16.0309 62.6221 16.2436 62.8348 16.6691C63.0475 17.0945 63.1539 17.7036 63.1539 18.4964V25.1388C63.1539 25.951 63.2602 26.4924 63.4729 26.7631C63.705 27.0145 64.1787 27.1402 64.8942 27.1402C64.9522 27.1402 64.9812 27.1982 64.9812 27.3142C64.9812 27.4303 64.9522 27.4883 64.8942 27.4883C64.5268 27.4883 64.1111 27.4786 63.647 27.4593C63.1829 27.4399 62.6898 27.4303 62.1677 27.4303C61.6456 27.4303 61.1428 27.4399 60.6594 27.4593C60.1953 27.4786 59.7892 27.4883 59.4411 27.4883Z" fill="#591C01"/>
<path d="M78.5345 27.8654C77.7224 27.8654 76.9682 27.643 76.2721 27.1982C75.5953 26.7341 75.0441 26.0863 74.6187 25.2548C74.2126 24.4233 74.0096 23.4371 74.0096 22.2962C74.0096 21.1553 74.2126 20.1884 74.6187 19.3956C75.0441 18.5835 75.5856 17.926 76.2431 17.4232C76.9199 16.9204 77.645 16.5434 78.4185 16.292C79.192 16.0406 79.9268 15.9149 80.623 15.9149C81.3191 15.9149 81.9572 16.0213 82.5373 16.234C83.1368 16.4467 83.6879 16.7271 84.1907 17.0751L83.7266 19.1636C83.2818 18.3707 82.7694 17.7423 82.1893 17.2782C81.6092 16.7948 80.8647 16.553 79.9558 16.553C78.8343 16.553 77.9254 16.9495 77.2293 17.7423C76.5524 18.5351 76.214 19.7534 76.214 21.397C76.214 22.4993 76.3687 23.4468 76.6781 24.2396C77.0069 25.0324 77.442 25.6416 77.9834 26.067C78.5249 26.4924 79.134 26.7051 79.8108 26.7051C80.6616 26.7051 81.4061 26.4731 82.0442 26.009C82.6824 25.5449 83.2915 24.9841 83.8716 24.3266L84.1327 24.5587C83.7266 25.0228 83.2528 25.5159 82.7114 26.038C82.1699 26.5408 81.5511 26.9758 80.855 27.3433C80.1782 27.6913 79.4047 27.8654 78.5345 27.8654ZM85.2059 6.74902V24.2396C85.2059 24.9164 85.2832 25.4095 85.4379 25.7189C85.5926 26.009 85.844 26.154 86.1921 26.154C86.3661 26.154 86.5692 26.1347 86.8012 26.096C87.0526 26.038 87.3233 25.9316 87.6134 25.7769C87.6907 25.7383 87.7487 25.7769 87.7874 25.893C87.8454 25.9896 87.8454 26.0573 87.7874 26.096L84.3357 27.7493C84.2584 27.788 84.1907 27.8073 84.1327 27.8073C83.9006 27.8073 83.6879 27.5753 83.4945 27.1112C83.3205 26.6471 83.2335 25.9896 83.2335 25.1388V10.2587C83.2335 9.5626 83.1658 9.05983 83.0304 8.75043C82.9144 8.44104 82.6824 8.28634 82.3343 8.28634C82.1603 8.28634 81.9766 8.32501 81.7832 8.40236C81.5898 8.46037 81.3481 8.55706 81.058 8.69242C80.9807 8.71176 80.913 8.66342 80.855 8.54739C80.8163 8.43137 80.826 8.36369 80.884 8.34435L84.7418 6.48797C84.7805 6.46863 84.8288 6.45896 84.8868 6.45896C84.9448 6.45896 85.0125 6.48797 85.0899 6.54598C85.1672 6.60399 85.2059 6.67167 85.2059 6.74902Z" fill="#591C01"/>
<path d="M96.6615 27.6623C96.5841 27.701 96.4971 27.7203 96.4004 27.7203C96.1104 27.7203 95.83 27.5076 95.5593 27.0822C95.3079 26.6374 95.1822 26.009 95.1822 25.1968V19.8887C95.1822 18.6898 95.0275 17.839 94.7181 17.3362C94.428 16.8141 94.0219 16.553 93.4998 16.553C93.0164 16.553 92.6297 16.6884 92.3396 16.9591C92.0495 17.2105 91.8368 17.5102 91.7015 17.8583C91.5854 18.187 91.4984 18.4964 91.4404 18.7865C91.4017 19.1539 91.2857 19.4633 91.0923 19.7147C90.9183 19.9661 90.6186 20.0918 90.1932 20.0918C89.8064 20.0918 89.526 19.9951 89.352 19.8017C89.178 19.6083 89.0909 19.3956 89.0909 19.1636C89.0909 18.7575 89.2746 18.3707 89.642 18.0033C90.0288 17.6359 90.5122 17.2975 91.0923 16.9881C91.6725 16.6787 92.2719 16.437 92.8907 16.263C93.5288 16.0889 94.0993 16.0019 94.6021 16.0019C95.3949 16.0019 96.0137 16.263 96.4584 16.7851C96.9225 17.2879 97.1546 18.0323 97.1546 19.0185V24.3556C97.1546 24.9938 97.2416 25.4675 97.4156 25.7769C97.5897 26.0863 97.8701 26.241 98.2568 26.241C98.5855 26.241 99.011 26.1347 99.5331 25.922C99.6104 25.8833 99.6684 25.922 99.7071 26.038C99.7651 26.1347 99.7458 26.2024 99.6491 26.241L96.6615 27.6623ZM91.3244 27.6913C90.5509 27.6913 89.9611 27.4979 89.555 27.1112C89.1683 26.7245 88.9749 26.241 88.9749 25.6609C88.9749 25.1968 89.1006 24.8101 89.352 24.5007C89.6034 24.1719 89.9611 23.8819 90.4252 23.6305C90.9086 23.3791 91.4888 23.1277 92.1656 22.8763L95.4722 21.6581L95.5593 22.0352L92.9197 23.1084C92.6297 23.2244 92.3589 23.3598 92.1076 23.5145C91.8755 23.6692 91.6821 23.8625 91.5274 24.0946C91.3727 24.3073 91.2954 24.5683 91.2954 24.8777C91.2954 25.3418 91.4501 25.7286 91.7595 26.038C92.0689 26.328 92.446 26.4731 92.8907 26.4731C93.0647 26.4731 93.2485 26.4441 93.4418 26.3861C93.6352 26.328 93.8672 26.2217 94.138 26.067L95.8493 24.9938L95.9073 25.3999L93.7899 26.7921C93.3451 27.1209 92.9294 27.3529 92.5426 27.4883C92.1752 27.6236 91.7691 27.6913 91.3244 27.6913Z" fill="#591C01"/>
</svg>
