<svg id="Layer_1" enable-background="new 0 0 508 508" height="512" viewBox="0 0 508 508" width="512" xmlns="http://www.w3.org/2000/svg"><g clip-rule="evenodd" fill-rule="evenodd"><g><g><path d="m317.612 406.128v-73.643c0-26.902-14.589-50.559-36.244-63.459h-54.738c-21.655 12.9-36.243 36.557-36.243 63.459v73.643z" fill="#00d7bd"/><g fill="#cfd1d6"><path d="m189.024 432.333h129.951c7.207 0 13.103-5.896 13.103-13.103 0-7.207-5.896-13.102-13.103-13.102h-129.951c-7.206 0-13.103 5.896-13.103 13.102.001 7.207 5.897 13.103 13.103 13.103z"/><path d="m306.948 152-7.819-51.44c16.254-2.524 28.695-16.58 28.695-33.541 0-18.748-15.198-33.946-33.946-33.946-2.217 0-4.383.215-6.482.621-2.877-15.833-16.734-27.839-33.396-27.839-16.663 0-30.52 12.005-33.397 27.837-2.099-.406-4.265-.62-6.481-.62-18.748 0-33.946 15.198-33.946 33.946 0 16.961 12.44 31.017 28.695 33.541l-7.82 51.441c7.031-2.862 14.707-4.444 22.735-4.444h60.427c8.029-.001 15.704 1.582 22.735 4.444z"/><path d="m226.63 308.548h54.74v30.687c0 15.053-12.316 27.37-27.37 27.37-15.053 0-27.37-12.316-27.37-27.37z"/></g><path d="m223.786 147.555h60.427c33.404 0 60.735 27.331 60.735 60.735 0 33.404-27.331 60.735-60.735 60.735h-60.427c-33.404 0-60.735-27.331-60.735-60.735 0-33.404 27.331-60.735 60.735-60.735z" fill="#7b849b"/><path d="m333.53 172.953c7.178 9.973 11.418 22.183 11.418 35.338 0 7.427-1.354 14.552-3.822 21.145-25.523 6.076-55.308 9.569-87.126 9.569-31.819 0-61.603-3.492-87.126-9.568-2.469-6.593-3.823-13.719-3.823-21.146 0-13.154 4.24-25.365 11.419-35.338 23.761 5.02 50.818 7.862 79.53 7.862s55.768-2.843 79.53-7.862z" fill="#00d7bd"/><path d="m286.76 197.813c5.786 0 10.477 4.691 10.477 10.477s-4.691 10.477-10.477 10.477-10.477-4.691-10.477-10.477 4.691-10.477 10.477-10.477zm-65.521 0c5.786 0 10.477 4.691 10.477 10.477s-4.691 10.477-10.477 10.477-10.477-4.691-10.477-10.477 4.691-10.477 10.477-10.477z" fill="#fff8c6"/><g><g><path d="m188.775 291.106h14.394c-8.058 11.821-12.782 26.074-12.782 41.379v21.303h-1.612c-17.237 0-31.34-14.103-31.34-31.341v-.001c0-17.237 14.103-31.34 31.34-31.34z" fill="#7b849b"/><ellipse cx="122.596" cy="419.135" fill="#7b849b" rx="36.078" ry="36.078" transform="matrix(.868 -.496 .496 .868 -191.784 116.036)"/><path d="m149.624 395.23 25.692-44.5c-7.96-3.817-14.085-10.901-16.614-19.486l-30.191 52.293c8.164 1.363 15.639 5.513 21.113 11.693z" fill="#cfd1d6"/></g><g><path d="m319.225 291.106h-14.395c8.058 11.821 12.782 26.074 12.782 41.379v21.303h1.612c17.237 0 31.34-14.103 31.34-31.341v-.001c.001-17.237-14.102-31.34-31.339-31.34z" fill="#7b849b"/><ellipse cx="385.404" cy="419.135" fill="#7b849b" rx="36.078" ry="36.078" transform="matrix(.514 -.858 .858 .514 -172.213 534.349)"/><path d="m358.376 395.23-25.692-44.5c7.96-3.817 14.085-10.901 16.614-19.486l30.191 52.293c-8.164 1.363-15.639 5.513-21.113 11.693z" fill="#cfd1d6"/></g></g><path d="m285.628 432.333v41.894c0 17.395-14.232 31.628-31.628 31.628-17.395 0-31.628-14.232-31.628-31.628v-41.894z" fill="#7b849b"/></g><g><path d="m317.612 406.128v-73.643c0-26.902-14.589-50.559-36.244-63.459h-30.008c24.76 56.375 24.76 102.075 0 137.102z" fill="#00c5a3"/><path d="m251.36 432.333h67.615c7.207 0 13.103-5.896 13.103-13.103 0-7.207-5.896-13.102-13.103-13.102h-67.615c3.519 8.735 3.519 17.47 0 26.205z" fill="#b6b8bd"/><path d="m306.948 152-7.819-51.44c16.254-2.524 28.695-16.58 28.695-33.541 0-18.748-15.198-33.946-33.946-33.946-2.217 0-4.383.215-6.482.621-2.877-15.833-16.734-27.839-33.396-27.839 11.748 61.596 11.748 108.829 0 141.7h30.214c8.028 0 15.703 1.583 22.734 4.445z" fill="#b6b8bd"/><path d="m265.099 308.548h16.271v30.687c0 9.626-5.037 18.133-12.606 23.016 2.357-16.358 1.134-34.259-3.665-53.703z" fill="#cfd1d6"/><path d="m254 147.555h30.214c33.404 0 60.735 27.331 60.735 60.735 0 33.404-27.331 60.735-60.735 60.735h-32.854c18.343-26.215 19.223-66.705 2.64-121.47z" fill="#5d6a85"/><path d="m333.53 172.953c7.178 9.973 11.418 22.183 11.418 35.338 0 7.427-1.354 14.552-3.822 21.145-22.907 5.454-49.247 8.825-77.408 9.459 3.214-16.356 2.721-35.744-1.477-58.158 25.648-.49 49.814-3.248 71.289-7.784z" fill="#00c5a3"/><ellipse cx="286.76" cy="208.29" fill="#fff8c6" rx="10.477" ry="10.477" transform="matrix(.707 -.707 .707 .707 -63.293 263.777)"/><g><path d="m319.225 291.106h-14.395c8.058 11.821 12.782 26.074 12.782 41.379v21.303h1.612c17.237 0 31.34-14.103 31.34-31.341v-.001c.001-17.237-14.102-31.34-31.339-31.34z" fill="#5d6a85"/><ellipse cx="385.404" cy="419.135" fill="#5d6a85" rx="36.078" ry="36.078" transform="matrix(.514 -.858 .858 .514 -172.213 534.349)"/><path d="m358.376 395.23-25.692-44.5c7.96-3.817 14.085-10.901 16.614-19.486l30.191 52.293c-8.164 1.363-15.639 5.513-21.113 11.693z" fill="#b6b8bd"/></g><path d="m285.628 432.333v41.894c0 17.395-14.232 31.628-31.628 31.628 10.318-18.556 9.438-43.064-2.639-73.522z" fill="#5d6a85"/></g></g><path d="m289.628 434.478v37.894c0 9.802-4.007 18.71-10.462 25.165-6.456 6.456-15.364 10.463-25.166 10.463s-18.71-4.007-25.166-10.462c-6.455-6.456-10.462-15.364-10.462-25.165v-37.894h-29.347c-4.707 0-8.984-1.923-12.082-5.021s-5.021-7.375-5.021-12.082c0-4.708 1.923-8.984 5.021-12.082 2.508-2.508 5.789-4.246 9.445-4.817v-44.625c-3.265-.22-6.412-.889-9.378-1.944l-22.55 39.058c3.081 4.033 5.442 8.721 6.839 13.925l.006.021c2.862 10.682 1.12 21.521-4.01 30.407-5.125 8.876-13.634 15.799-24.313 18.664l-.016.004c-10.683 2.862-21.521 1.12-30.407-4.01l.004-.007c-8.882-5.132-15.806-13.639-18.668-24.306l-.005-.016c-2.862-10.682-1.12-21.521 4.01-30.407 5.124-8.875 13.631-15.796 24.308-18.663l.021-.006c4.754-1.274 9.538-1.635 14.168-1.192l28.019-48.531c-.64-2.651-.98-5.416-.98-8.257 0-9.724 3.975-18.56 10.378-24.963 6.404-6.403 15.24-10.378 24.962-10.378h12.328c3.953-5.471 8.596-10.412 13.8-14.693-14.271-1.979-27.092-8.654-36.839-18.4-11.731-11.731-19.013-27.916-19.013-45.722 0-17.807 7.282-33.992 19.013-45.723 5.557-5.557 12.115-10.115 19.37-13.374l6.919-45.517c-7.538-2.003-14.151-6.264-19.068-12.01-5.679-6.638-9.109-15.248-9.109-24.648 0-10.478 4.248-19.965 11.114-26.831 6.867-6.867 16.353-11.114 26.832-11.114 1.076 0 2.225.057 3.441.169 2.133-7.368 6.436-13.811 12.17-18.591 6.587-5.493 15.048-8.797 24.266-8.797s17.679 3.304 24.267 8.795c5.735 4.78 10.037 11.223 12.171 18.59 1.216-.111 2.365-.169 3.441-.169 10.478 0 19.965 4.248 26.831 11.114 6.867 6.867 11.114 16.354 11.114 26.831 0 9.4-3.43 18.01-9.109 24.648-4.917 5.747-11.53 10.007-19.068 12.01l6.919 45.517c7.256 3.259 13.813 7.817 19.37 13.374 11.731 11.731 19.013 27.916 19.013 45.723 0 17.806-7.282 33.991-19.013 45.722-9.747 9.747-22.568 16.421-36.839 18.401 5.204 4.281 9.847 9.222 13.8 14.693h12.328c9.723 0 18.559 3.975 24.963 10.378 6.403 6.403 10.378 15.239 10.378 24.962 0 2.91-.324 5.694-.937 8.332l27.976 48.457c4.63-.443 9.414-.081 14.168 1.192l.021.006c10.676 2.867 19.184 9.789 24.307 18.663 5.131 8.886 6.873 19.725 4.011 30.407l-.005.017c-2.863 10.667-9.786 19.174-18.668 24.306l.004.007c-8.886 5.13-19.724 6.873-30.407 4.01l-.017-.005c-10.679-2.866-19.189-9.788-24.313-18.664-5.13-8.886-6.873-19.725-4.01-30.407l.006-.021c1.397-5.204 3.758-9.892 6.839-13.925l-22.655-39.239c-2.935 1.022-6.045 1.705-9.274 2.015v44.735c3.656.571 6.937 2.309 9.445 4.816 3.098 3.097 5.021 7.374 5.021 12.082s-1.923 8.985-5.021 12.083-7.374 5.021-12.082 5.021h-29.347zm-63.256 0v37.894c0 7.593 3.11 14.5 8.119 19.509s11.916 8.119 19.509 8.119c7.594 0 14.5-3.109 19.509-8.119 5.009-5.009 8.119-11.916 8.119-19.509v-37.894zm147.002-55.422-23.492-40.69c-1.616 2.763-3.606 5.258-5.906 7.446-1.782 1.694-3.747 3.201-5.864 4.499l21.137 36.61c1.902-1.636 3.951-3.088 6.117-4.338 2.527-1.46 5.213-2.644 8.008-3.527zm39.821 22.186c-4.106-7.111-10.925-12.657-19.484-14.95-8.564-2.295-17.241-.904-24.346 3.198-7.111 4.106-12.657 10.926-14.95 19.485-2.294 8.563-.904 17.24 3.198 24.345 4.106 7.111 10.925 12.657 19.484 14.95 8.565 2.295 17.241.905 24.346-3.197l.004.007.012-.007c7.099-4.099 12.639-10.918 14.934-19.484 2.294-8.566.904-17.242-3.198-24.347zm-91.583-53.545c6.591-.783 12.474-3.491 16.864-7.667 4.999-4.754 8.089-11.466 8.089-19.439 0-7.515-3.077-14.35-8.034-19.307s-11.792-8.034-19.306-8.034h-7.254c6.14 11.118 9.642 23.865 9.642 37.379v17.068zm-163.424-9.452-23.562 40.811c2.795.883 5.481 2.068 8.009 3.527 2.165 1.25 4.214 2.703 6.117 4.338l21.087-36.524c-2.182-1.393-4.202-3.02-6.026-4.843-2.176-2.175-4.071-4.632-5.625-7.309zm-43.899 48.046c-8.559 2.293-15.379 7.839-19.484 14.95-4.102 7.105-5.492 15.782-3.198 24.344 2.296 8.568 7.835 15.387 14.935 19.486l.012.007.004-.007c7.105 4.102 15.781 5.492 24.344 3.198 8.561-2.294 15.38-7.84 19.486-14.951 4.102-7.105 5.492-15.782 3.198-24.345-2.294-8.56-7.839-15.38-14.951-19.485-7.106-4.101-15.782-5.491-24.346-3.197zm81.74-93.04h-7.254c-7.514 0-14.349 3.077-19.306 8.034s-8.034 11.792-8.034 19.306c0 7.516 3.077 14.35 8.034 19.307 4.426 4.427 10.35 7.354 16.918 7.93v-17.199c0-13.513 3.502-26.26 9.642-37.378zm90.731-101.293c-3.997 0-7.617 1.621-10.236 4.241-2.62 2.62-4.241 6.239-4.241 10.237s1.621 7.617 4.241 10.236c2.62 2.62 6.239 4.241 10.236 4.241 3.998 0 7.617-1.621 10.236-4.241 2.62-2.62 4.241-6.239 4.241-10.236 0-3.998-1.621-7.617-4.241-10.237-2.619-2.62-6.238-4.241-10.236-4.241zm4.581 9.897c-1.172-1.172-2.791-1.897-4.58-1.897s-3.408.725-4.58 1.897c-1.172 1.171-1.897 2.791-1.897 4.58s.725 3.409 1.897 4.58c1.172 1.172 2.792 1.897 4.58 1.897 1.789 0 3.409-.725 4.58-1.897 1.172-1.172 1.897-2.791 1.897-4.58-.001-1.789-.726-3.409-1.897-4.58zm-70.102-9.897c-3.997 0-7.617 1.621-10.236 4.241-2.62 2.62-4.241 6.239-4.241 10.237 0 3.997 1.621 7.617 4.241 10.236 2.619 2.62 6.239 4.241 10.236 4.241s7.616-1.621 10.236-4.24c2.62-2.62 4.24-6.24 4.24-10.237s-1.621-7.617-4.24-10.237-6.239-4.241-10.236-4.241zm4.581 9.897c-1.172-1.172-2.792-1.897-4.58-1.897-1.789 0-3.409.725-4.58 1.897-1.172 1.171-1.897 2.791-1.897 4.58s.725 3.409 1.897 4.58c1.171 1.172 2.791 1.897 4.58 1.897s3.408-.725 4.58-1.897 1.897-2.792 1.897-4.58c-.001-1.789-.726-3.409-1.897-4.58zm-44.106-33.374c10.058 1.91 20.652 3.434 31.663 4.522 12.933 1.278 26.536 1.957 40.623 1.957 14.086 0 27.69-.678 40.622-1.957 11.011-1.089 21.606-2.612 31.664-4.522-.651-.721-1.32-1.425-2.007-2.112-10.285-10.285-24.468-16.669-40.066-16.669h-60.427c-15.598 0-29.781 6.384-40.066 16.669-.686.686-1.355 1.391-2.006 2.112zm150.019 7.062c-11.432 2.316-23.6 4.138-36.33 5.397-13.345 1.319-27.215 2.019-41.404 2.019-14.188 0-28.059-.7-41.404-2.019-12.73-1.259-24.898-3.081-36.33-5.397-5.822 8.905-9.215 19.522-9.215 30.892 0 6.192 1.007 12.161 2.864 17.751 12.255 2.822 25.438 5.046 39.299 6.568 14.215 1.561 29.229 2.395 44.786 2.395 15.556 0 30.57-.834 44.785-2.395 13.861-1.522 27.044-3.746 39.299-6.568 1.857-5.59 2.864-11.559 2.864-17.751.002-11.369-3.391-21.987-9.214-30.892zm2.438 57.693c-10.862 2.286-22.427 4.126-34.542 5.456-14.585 1.602-29.887 2.457-45.629 2.457-15.743 0-31.045-.856-45.629-2.457-12.115-1.33-23.68-3.17-34.542-5.456 2.645 4.893 5.986 9.361 9.891 13.265 10.285 10.285 24.468 16.669 40.066 16.669h60.427c15.598 0 29.781-6.384 40.066-16.669 3.905-3.905 7.247-8.372 9.892-13.265zm-110.385-91.536h60.427c6.163 0 12.131.873 17.788 2.5l-6.825-44.902c-.328-2.183 1.176-4.219 3.359-4.547.093-.014.186-.024.278-.032 7.094-1.175 13.352-4.851 17.839-10.095 4.471-5.226 7.171-12.023 7.171-19.461 0-8.27-3.352-15.756-8.771-21.175s-12.906-8.771-21.175-8.771c-1.065 0-2.024.042-2.881.124-.916.088-1.868.228-2.851.418-2.166.414-4.258-1.006-4.672-3.172-.017-.091-.031-.182-.042-.273-1.317-6.943-5.036-13.04-10.26-17.394-5.182-4.32-11.865-6.92-19.171-6.92s-13.99 2.6-19.173 6.92c-5.281 4.402-9.023 10.584-10.302 17.62-.388 2.166-2.459 3.607-4.625 3.219l-.045-.009-.002.009c-.982-.19-1.935-.331-2.85-.418-.856-.082-1.816-.124-2.882-.124-8.27 0-15.757 3.352-21.175 8.771-5.419 5.418-8.771 12.906-8.771 21.175 0 7.438 2.701 14.235 7.171 19.461 4.548 5.316 10.918 9.022 18.133 10.143 2.169.336 3.656 2.361 3.331 4.529l.013.002-6.826 44.902c5.658-1.628 11.627-2.5 17.789-2.5zm56.488 129.47h-52.548c-10.014 6.183-18.37 14.815-24.211 25.042-5.804 10.163-9.127 21.915-9.127 34.417v69.643h119.225v-69.643c0-12.503-3.323-24.254-9.127-34.417-5.841-10.226-14.198-18.859-24.212-25.042zm-53.644 31.523c-2.209 0-4 1.791-4 4v30.687c0 8.631 3.528 16.475 9.212 22.158 5.684 5.684 13.527 9.212 22.158 9.212s16.474-3.528 22.158-9.212 9.212-13.527 9.212-22.158v-30.687c0-2.209-1.791-4-4-4zm50.74 8h-46.74v26.687c0 6.423 2.631 12.265 6.868 16.502 4.238 4.238 10.079 6.868 16.502 6.868 6.422 0 12.264-2.63 16.502-6.868 4.238-4.237 6.868-10.079 6.868-16.502zm-88.346 115.785h129.951c2.499 0 4.774-1.026 6.426-2.677 1.651-1.651 2.677-3.927 2.677-6.426s-1.026-4.774-2.677-6.426c-1.651-1.651-3.927-2.677-6.426-2.677h-129.951c-2.499 0-4.774 1.026-6.426 2.677s-2.677 3.926-2.677 6.425c0 2.5 1.026 4.775 2.677 6.426 1.652 1.653 3.928 2.678 6.426 2.678z"/></g></svg>