<svg width="83" height="83" viewBox="0 0 83 83" fill="none" xmlns="http://www.w3.org/2000/svg">
<path d="M77.3066 41.5001C77.3066 46.0132 71.6392 49.3851 70.0052 53.3146C68.3192 57.3868 69.8885 63.7545 66.8149 66.828C63.7413 69.9016 57.3736 68.3324 53.3014 70.0184C49.3719 71.6524 46.013 77.3198 41.4999 77.3198C36.9867 77.3198 33.6149 71.6524 29.6853 70.0184C25.6131 68.3324 19.2455 69.9016 16.1719 66.828C13.0983 63.7545 14.6675 57.3868 12.9816 53.3146C11.3475 49.3851 5.68018 46.0262 5.68018 41.513C5.68018 36.9999 11.3475 33.628 12.9816 29.6985C14.6675 25.6263 13.0983 19.2587 16.1719 16.1851C19.2455 13.1115 25.6131 14.6807 29.6853 12.9948C33.6149 11.3607 36.9738 5.69336 41.4999 5.69336C46.013 5.69336 49.3849 11.3607 53.3144 12.9948C57.3866 14.6807 63.7542 13.1115 66.8278 16.1851C69.9014 19.2587 68.3322 25.6263 70.0181 29.6985C71.6392 33.6151 77.3066 36.987 77.3066 41.5001Z" fill="#FFEC80"/>
<path d="M44.8717 59.1893C44.8717 57.3218 43.3544 55.8174 41.4999 55.8174C39.6324 55.8174 38.128 57.3347 38.128 59.1893C38.128 61.0568 39.6453 62.5611 41.4999 62.5611C43.3674 62.5741 44.8717 61.0568 44.8717 59.1893Z" fill="#FF3030"/>
<path d="M41.4999 50.5779C40.3846 50.5779 39.4638 49.7089 39.399 48.5936L38.0632 24.0568C37.9595 22.0855 39.5287 20.4385 41.487 20.4385C43.4582 20.4385 45.0274 22.0855 44.9107 24.0568L43.5749 48.5936C43.536 49.696 42.6152 50.5779 41.4999 50.5779Z" fill="#FF3030"/>
<path d="M41.4999 63.8707C38.9191 63.8707 36.8311 61.7698 36.8311 59.202C36.8311 56.6212 38.9321 54.5332 41.4999 54.5332C44.0806 54.5332 46.1686 56.6341 46.1686 59.202C46.1686 61.7698 44.0806 63.8707 41.4999 63.8707ZM41.4999 57.114C40.3586 57.114 39.4249 58.0477 39.4249 59.189C39.4249 60.3302 40.3586 61.264 41.4999 61.264C42.6411 61.264 43.5749 60.3302 43.5749 59.189C43.5749 58.0477 42.6411 57.114 41.4999 57.114Z" fill="black"/>
<path d="M41.4999 51.875C39.6973 51.875 38.2059 50.4614 38.1021 48.6588L36.7793 24.1219C36.7144 22.812 37.1684 21.567 38.0632 20.6073C38.971 19.6477 40.1901 19.1289 41.4999 19.1289C42.7968 19.1289 44.0418 19.6736 44.9366 20.6073C45.8444 21.5541 46.2984 22.812 46.2205 24.1219L44.8848 48.6588C44.794 50.4614 43.3026 51.875 41.4999 51.875ZM41.4999 21.7227C40.9034 21.7227 40.3587 21.9561 39.9437 22.3841C39.5416 22.812 39.3341 23.3827 39.3601 23.9662L40.6959 48.5031C40.7218 48.9441 41.0719 49.2812 41.4999 49.2812C41.9279 49.2812 42.278 48.9441 42.304 48.5161L43.6398 23.9792C43.6657 23.3827 43.4712 22.825 43.0562 22.397C42.6412 21.9691 42.0965 21.7227 41.4999 21.7227Z" fill="black"/>
<path d="M41.4998 78.6034C38.3225 78.6034 35.8325 76.4117 33.4333 74.2978C31.9678 73.0009 30.5801 71.7818 29.1925 71.2112C27.7141 70.6017 25.7947 70.459 23.7845 70.3293C20.6461 70.1089 17.4169 69.8884 15.2641 67.7356C13.1112 65.5828 12.8908 62.3535 12.6833 59.2151C12.5406 57.192 12.4109 55.2856 11.8014 53.8071C11.2308 52.4195 9.99874 51.0318 8.71483 49.5664C6.58796 47.1671 4.39624 44.6771 4.39624 41.4998C4.39624 38.3225 6.58796 35.8325 8.70187 33.4332C9.99874 31.9678 11.2178 30.5801 11.7884 29.1925C12.398 27.714 12.5406 25.7946 12.6703 23.7845C12.8908 20.6461 13.1112 17.4168 15.2641 15.264C17.4169 13.1112 20.6461 12.8907 23.7845 12.6832C25.8076 12.5406 27.7141 12.4109 29.1925 11.8014C30.5801 11.2307 31.9678 9.99871 33.4333 8.7148C35.8325 6.6009 38.3225 4.40918 41.4998 4.40918C44.6772 4.40918 47.1672 6.6009 49.5664 8.7148C51.0319 10.0117 52.4195 11.2307 53.8072 11.8014C55.2856 12.4109 57.205 12.5536 59.2151 12.6832C62.3536 12.9037 65.5828 13.1242 67.7356 15.277C69.8884 17.4298 70.1089 20.659 70.3294 23.7975C70.472 25.8206 70.6017 27.727 71.2112 29.2054C71.7819 30.5931 73.0009 31.9807 74.2978 33.4462C76.4117 35.8454 78.6034 38.3354 78.6034 41.5128C78.6034 44.6901 76.4117 47.1801 74.2978 49.5793C73.0009 51.0448 71.7819 52.4325 71.2112 53.8201C70.6017 55.2985 70.4591 57.205 70.3294 59.2281C70.1089 62.3665 69.8884 65.5957 67.7356 67.7485C65.5828 69.9014 62.3536 70.1218 59.2151 70.3423C57.192 70.485 55.2856 70.6146 53.8072 71.2242C52.4195 71.7948 51.0319 73.0268 49.5664 74.3107C47.1672 76.4117 44.6772 78.6034 41.4998 78.6034ZM41.4998 6.98996C39.2951 6.98996 37.285 8.76668 35.1451 10.6471C33.5889 12.0218 31.9678 13.4484 30.1781 14.1876C28.2976 14.9657 26.093 15.1214 23.9531 15.264C21.1778 15.4586 18.5451 15.6401 17.0926 17.0926C15.6272 18.5581 15.4456 21.1778 15.2641 23.9531C15.1214 26.0929 14.9658 28.2976 14.1876 30.1781C13.4484 31.9678 12.0219 33.5759 10.6472 35.1451C8.76671 37.285 6.98999 39.2951 6.98999 41.4998C6.98999 43.7045 8.76671 45.7146 10.6472 47.8545C12.0219 49.4107 13.4484 51.0318 14.1876 52.8215C14.9658 54.702 15.1214 56.9067 15.2641 59.0465C15.4586 61.8218 15.6401 64.4545 17.0926 65.907C18.5581 67.3725 21.1778 67.554 23.9531 67.7356C26.093 67.8782 28.2976 68.0339 30.1781 68.812C31.9678 69.5512 33.5759 70.9778 35.1451 72.3525C37.272 74.2329 39.2951 76.0096 41.4998 76.0096C43.7045 76.0096 45.7147 74.2329 47.8545 72.3525C49.4108 70.9778 51.0319 69.5512 52.8216 68.812C54.702 68.0339 56.9067 67.8782 59.0466 67.7356C61.8219 67.541 64.4545 67.3595 65.907 65.907C67.3725 64.4415 67.5541 61.8218 67.7356 59.0465C67.8783 56.9067 68.0339 54.702 68.812 52.8215C69.5512 51.0318 70.9778 49.4237 72.3525 47.8545C74.233 45.7146 76.0097 43.7045 76.0097 41.4998C76.0097 39.2951 74.233 37.285 72.3525 35.1451C70.9778 33.5889 69.5512 31.9678 68.812 30.1781C68.0339 28.2976 67.8783 26.0929 67.7356 23.9531C67.5411 21.1778 67.3595 18.5451 65.907 17.0926C64.4416 15.6271 61.8219 15.4456 59.0466 15.264C56.9067 15.1214 54.702 14.9657 52.8216 14.1876C51.0319 13.4484 49.4237 12.0218 47.8545 10.6471C45.7147 8.76668 43.7045 6.98996 41.4998 6.98996Z" fill="black"/>
</svg>
