<svg width="170" height="171" viewBox="0 0 170 171" fill="none" xmlns="http://www.w3.org/2000/svg">
<path d="M24.7275 58.2557C22.4705 56.9762 21.7693 54.5053 23.0305 52.2805C24.048 50.4857 25.826 49.7042 27.7034 50.2004L26.5579 52.2209C25.7364 52.1671 25.091 52.5539 24.695 53.2525C24.0553 54.381 24.4549 55.6301 25.7876 56.3856C27.1203 57.1411 28.3973 56.8425 29.0371 55.714C29.4331 55.0154 29.4336 54.263 28.9654 53.5857L30.1108 51.5652C31.5008 52.9212 31.7326 54.842 30.7151 56.6368C29.4539 58.8616 26.9845 59.5351 24.7275 58.2557Z" fill="#7B4B3A"/>
<path d="M39.1074 44.4412L37.6128 43.823L35.4813 46.259L36.2926 47.6583L34.8363 49.3226L30.3757 41.2499L31.9865 39.4089L40.5799 42.7583L39.1074 44.4412ZM36.0275 43.1582L32.9302 41.8763L34.6201 44.7667L36.0275 43.1582Z" fill="#7B4B3A"/>
<path d="M43.6956 32.0329C43.3025 31.5248 42.7523 31.4194 42.1269 31.9032L41.0911 32.7045L42.4065 34.4048L43.4423 33.6035C44.0677 33.1196 44.1114 32.5704 43.6956 32.0329ZM38.3467 32.6096L41.1512 30.44C42.8319 29.1397 44.4207 29.457 45.343 30.6492C46.0082 31.5091 46.1666 32.683 45.3532 33.8121L49.0377 35.3041L47.1518 36.763L43.7218 35.2772L43.3212 35.5871L45.3245 38.1767L43.6535 39.4693L38.3467 32.6096Z" fill="#7B4B3A"/>
<path d="M51.9528 23.2732C54.428 22.0353 56.8038 22.8086 57.9588 25.118C59.1082 27.4164 58.3072 29.7923 55.8321 31.0301L52.926 32.4834L49.0467 24.7265L51.9528 23.2732ZM53.9977 29.9031L54.8927 29.4555C56.3181 28.7426 56.749 27.505 56.0361 26.0796C55.3232 24.6542 54.0635 24.2344 52.6381 24.9472L51.743 25.3948L53.9977 29.9031Z" fill="#7B4B3A"/>
<path d="M69.9036 25.471L69.0021 24.1281L65.8779 24.9747L65.7777 26.589L63.6432 27.1674L64.4037 17.9757L66.7647 17.3359L72.0619 24.8861L69.9036 25.471ZM63.5831 16.1756L66.0821 14.0137L66.5118 15.5996L63.9644 17.5827L63.5831 16.1756ZM68.0509 22.6962L66.183 19.9128L65.9879 23.2552L68.0509 22.6962Z" fill="#7B4B3A"/>
<path d="M78.2083 18.9173L79.3543 18.8347C80.1923 18.7743 80.5194 18.3296 80.4715 17.6642C80.4235 16.9988 80.036 16.6055 79.1981 16.6659L78.0521 16.7485L78.2083 18.9173ZM82.6156 17.5097C82.7186 18.9391 81.841 20.3401 79.6353 20.499L78.3291 20.5931L78.5528 23.6984L76.4456 23.8502L75.8224 15.1998L79.2358 14.9539C81.3552 14.8012 82.5011 15.9201 82.6156 17.5097Z" fill="#7B4B3A"/>
<path d="M87.6924 23.1514L88.331 14.502L90.4379 14.6576L89.7993 23.3069L87.6924 23.1514Z" fill="#7B4B3A"/>
<path d="M104.204 21.6059C103.584 24.1377 101.226 25.455 98.8377 24.8696C96.4498 24.2843 94.9442 22.0199 95.5649 19.488C96.1855 16.9562 98.5647 15.6568 100.953 16.2422C103.352 16.8305 104.825 19.074 104.204 21.6059ZM97.6647 20.0028C97.3029 21.4787 97.9286 22.6624 99.2965 22.9977C100.64 23.3272 101.755 22.57 102.116 21.0941C102.484 19.5942 101.841 18.4315 100.497 18.102C99.1287 17.7667 98.0324 18.5029 97.6647 20.0028Z" fill="#7B4B3A"/>
<path d="M120.137 30.5313C119.398 31.7877 117.805 32.2548 116.058 31.2272C114.45 30.2811 113.664 28.7432 114.5 27.1999L116.438 28.3402C116.153 28.9465 116.352 29.4364 116.863 29.7371C117.396 30.0504 117.893 29.9847 118.15 29.5482C118.965 28.1639 114.789 26.7101 116.37 24.0713C117.203 22.6551 118.828 22.5501 120.393 23.4712C122.022 24.4298 122.642 25.8844 121.877 27.3551L119.908 26.1959C120.158 25.698 119.986 25.21 119.502 24.9111C119.072 24.6436 118.611 24.673 118.335 25.1415C117.57 26.4405 121.61 28.029 120.137 30.5313Z" fill="#7B4B3A"/>
<path d="M132.612 32.1665L131.515 33.456L129.078 31.3834L127.941 32.7199L130.097 34.5525L129.04 35.795L126.885 33.9624L125.652 35.4119L128.09 37.4845L126.994 38.774L122.947 35.333L128.564 28.7254L132.612 32.1665Z" fill="#7B4B3A"/>
<path d="M130.649 42.0812L137.466 36.7201L139.009 38.6818L135.794 44.3065L142.003 42.4886L143.538 44.4406L136.72 49.8017L135.414 48.1411L139.503 44.9259L134.215 46.6164L133.162 45.2762L136.053 40.519L131.955 43.7418L130.649 42.0812Z" fill="#7B4B3A"/>
<path d="M151.852 59.4529C152.793 62.0551 151.749 64.325 149.321 65.2036C146.905 66.078 144.638 65.0062 143.696 62.404L142.591 59.3486L150.746 56.3975L151.852 59.4529ZM145.029 60.713L145.369 61.654C145.912 63.1526 147.091 63.7245 148.59 63.1822C150.088 62.6399 150.652 61.4375 150.109 59.9388L149.769 58.9978L145.029 60.713Z" fill="#7B4B3A"/>
<path d="M153.216 74.7846C153.851 74.6841 154.208 74.2523 154.084 73.4714L153.879 72.1779L151.756 72.5141L151.961 73.8076C152.085 74.5885 152.545 74.8909 153.216 74.7846ZM155.282 69.8169L155.836 73.3191C156.169 75.4179 155.127 76.6586 153.638 76.8943C152.564 77.0643 151.459 76.639 150.86 75.3829L147.78 77.8969L147.407 75.5418L150.359 73.2482L150.28 72.7479L147.046 73.2599L146.716 71.1733L155.282 69.8169Z" fill="#7B4B3A"/>
<path d="M148.157 88.5777L149.707 88.1181L149.832 84.8837L148.321 84.3062L148.406 82.0964L156.952 85.566L156.858 88.0104L148.07 90.8122L148.157 88.5777ZM151.358 87.6377L154.572 86.686L151.44 85.502L151.358 87.6377Z" fill="#7B4B3A"/>
<path d="M147.729 95.2999L156.111 97.5282L155.47 99.94L149.042 100.749L154.225 104.62L153.587 107.02L145.206 104.792L145.749 102.75L150.775 104.087L146.247 100.876L146.685 99.228L152.225 98.6811L147.186 97.3416L147.729 95.2999Z" fill="#7B4B3A"/>
<path d="M141.013 114.877L142.611 115.125L144.107 112.254L142.988 111.086L144.009 109.125L150.252 115.914L149.122 118.084L139.98 116.86L141.013 114.877ZM144.309 115.396L147.621 115.909L145.296 113.5L144.309 115.396Z" fill="#7B4B3A"/>
<path d="M135.108 127.855C135.575 127.333 136.36 127.29 136.882 127.757C137.411 128.231 137.454 129.016 136.987 129.537C136.513 130.066 135.721 130.117 135.192 129.644C134.67 129.177 134.634 128.384 135.108 127.855Z" fill="#7B4B3A"/>
<path d="M125.204 134.539L129.427 140.341L126.148 142.728L125.7 142.112L128.222 140.276L126.798 138.32L124.75 139.811L124.302 139.195L126.349 137.704L124.447 135.091L125.204 134.539Z" fill="#7B4B3A"/>
<path d="M118.549 147.412L118.183 146.732L120.758 145.347L119.621 143.234L117.319 144.474L116.953 143.794L119.256 142.555L118.085 140.379L115.51 141.764L115.144 141.084L118.544 139.255L121.949 145.583L118.549 147.412Z" fill="#7B4B3A"/>
<path d="M109.388 149.152C109.671 149.915 110.278 150.249 111.282 149.877L112.576 149.397L111.63 146.849L110.337 147.329C109.343 147.697 109.109 148.399 109.388 149.152ZM113.723 149.795L111.551 150.601C109.968 151.188 108.889 150.589 108.481 149.489C108.162 148.63 108.331 147.634 109.367 146.964L106.632 144.772L107.684 144.381L110.307 146.538L111.369 146.144L110.348 143.393L111.227 143.067L113.723 149.795Z" fill="#7B4B3A"/>
<path d="M99.3687 154.151L98.451 154.339L97.0046 147.3L97.9223 147.111L102.763 151.95L101.613 146.353L102.531 146.164L103.977 153.204L103.06 153.392L98.2207 148.564L99.3687 154.151Z" fill="#7B4B3A"/>
<path d="M87.6986 148.3L88.3426 149.869L91.4696 149.736L91.9776 148.117L92.965 148.075L90.6772 155.314L89.5971 155.36L86.7111 148.342L87.6986 148.3ZM88.6425 150.619L90.0931 154.184L91.2346 150.508L88.6425 150.619Z" fill="#7B4B3A"/>
<path d="M77.0729 154.95L76.143 154.836L77.0141 147.703L77.9441 147.817L80.9917 153.945L81.6844 148.273L82.6144 148.387L81.7433 155.52L80.8133 155.407L77.7643 149.288L77.0729 154.95Z" fill="#7B4B3A"/>
<path d="M68.3471 153.285C66.0839 152.624 65.0772 150.893 65.7005 148.758C66.3239 146.623 68.0954 145.736 70.3585 146.397L72.5031 147.023L70.4916 153.911L68.3471 153.285ZM71.3873 147.501L70.1421 147.138C68.3434 146.613 67.1102 147.346 66.6196 149.026C66.129 150.707 66.762 152.028 68.5606 152.553L69.8058 152.917L71.3873 147.501Z" fill="#7B4B3A"/>
<path d="M58.354 141.965L58.1905 143.654L61.018 144.996L62.2231 143.802L63.116 144.226L57.7127 149.559L56.7361 149.095L57.4611 141.541L58.354 141.965ZM58.1057 144.457L57.7235 148.287L60.4495 145.57L58.1057 144.457Z" fill="#7B4B3A"/>
<path d="M42.7187 140.592C40.9103 139.08 40.682 137.09 42.1087 135.384C43.5355 133.679 45.5143 133.575 47.3228 135.088L49.0364 136.522L44.4324 142.026L42.7187 140.592ZM47.8224 136.513L46.8273 135.68C45.3901 134.478 43.9661 134.656 42.8432 135.999C41.7202 137.341 41.7703 138.806 43.2075 140.008L44.2026 140.84L47.8224 136.513Z" fill="#7B4B3A"/>
<path d="M34.0842 126.96C35.722 125.565 37.8955 125.782 39.211 127.326C40.5197 128.862 40.3961 131.05 38.7583 132.446C37.1205 133.841 34.9402 133.616 33.6315 132.08C32.316 130.536 32.4464 128.356 34.0842 126.96ZM38.1373 131.717C39.4695 130.582 39.5735 129.005 38.5919 127.853C37.6103 126.701 36.0373 126.554 34.7052 127.689C33.3651 128.831 33.269 130.401 34.2506 131.552C35.2321 132.704 36.7973 132.859 38.1373 131.717Z" fill="#7B4B3A"/>
<path d="M34.2106 121.343L28.0273 124.882L27.5261 124.006L31.328 118.793L24.9077 119.431L24.4116 118.564L30.5949 115.025L31.0603 115.838L26.4496 118.477L32.2365 117.894L32.5639 118.465L29.1256 123.174L33.7452 120.53L34.2106 121.343Z" fill="#7B4B3A"/>
<path d="M20.3619 109.93L21.0847 109.658L22.1129 112.395L24.3585 111.552L23.439 109.104L24.1618 108.832L25.0814 111.28L27.3945 110.411L26.3663 107.674L27.0892 107.403L28.4468 111.017L21.7195 113.544L20.3619 109.93Z" fill="#7B4B3A"/>
<path d="M22.2155 104.343C20.1107 104.79 18.293 103.565 17.876 101.602C17.5532 100.081 18.0619 98.7099 19.3103 97.8975L19.5434 98.9952C18.7787 99.5575 18.4636 100.403 18.6817 101.431C18.9939 102.901 20.2945 103.772 22.0166 103.406C23.7287 103.043 24.5631 101.718 24.2509 100.248C24.0328 99.2208 23.4013 98.5761 22.4841 98.3708L22.251 97.2731C23.7117 97.5103 24.7237 98.5584 25.0465 100.079C25.4635 102.043 24.3203 103.896 22.2155 104.343Z" fill="#7B4B3A"/>
<path d="M16.1636 89.5442C16.1128 88.0316 16.8527 86.75 18.2136 86.1687L18.2512 87.2902C17.4309 87.7092 16.9735 88.5075 17.0073 89.5158C17.0581 91.0284 18.1868 92.1237 19.9154 92.0657C21.6338 92.008 22.6865 90.8395 22.6358 89.327C22.5885 87.9173 21.6505 86.9805 20.2257 86.884L20.3217 89.7446L19.5603 89.7701L19.4308 85.9115L20.1511 85.8873C21.9367 85.9922 23.4143 87.3539 23.4795 89.2987C23.5472 91.3154 22.0981 92.9504 19.9475 93.0226C17.797 93.0948 16.2313 91.5609 16.1636 89.5442Z" fill="#7B4B3A"/>
<path d="M21.9999 74.2041C21.8749 74.893 21.2286 75.3407 20.5397 75.2157C19.8408 75.0888 19.393 74.4425 19.5181 73.7537C19.6449 73.0547 20.293 72.5969 20.992 72.7237C21.6808 72.8487 22.1267 73.5052 21.9999 74.2041Z" fill="#7B4B3A"/>
</svg>
